<?xml version="1.0" encoding="UTF-8" standalone="no"?>
<!DOCTYPE svg PUBLIC "-//W3C//DTD SVG 1.1//EN" "http://www.w3.org/Graphics/SVG/1.1/DTD/svg11.dtd">
<svg width="100%" height="100%" viewBox="0 180 1000 700" version="1.1" xmlns="http://www.w3.org/2000/svg" xmlns:xlink="http://www.w3.org/1999/xlink" xml:space="preserve" xmlns:serif="http://www.serif.com/" style="fill-rule:evenodd;clip-rule:evenodd;stroke-linecap:round;stroke-linejoin:round;stroke-miterlimit:1.5;">
    <g transform="matrix(1,0,0,1,-3713.58,-2096.91)">
        <g id="error404" transform="matrix(1.30885,0,0,1.35281,-1085.07,-822.475)">
            <rect x="3666.32" y="2158.02" width="764.032" height="739.203" style="fill:none;"/>
            <g transform="matrix(2.54149,0,0,0.515162,-6746.06,1243.03)">
                <ellipse cx="4250.86" cy="2760.59" rx="145.477" ry="136.63" style="fill:rgb(235,164,139);"/>
            </g>
            <g transform="matrix(0.909492,0,0,0.909492,384.291,234.337)">
                <g transform="matrix(0.764032,0,0,0.739203,829.026,607.976)">
                    <path d="M4159.09,2555.31L4271.8,2553.2L4265.8,2767.1L4154.15,2761.59L4159.09,2555.31Z" style="fill:rgb(198,142,178);"/>
                </g>
                <g transform="matrix(0.764032,0,0,0.739203,829.026,607.976)">
                    <path d="M4265.8,2767.1L4431.91,2734.54L4579.68,2784.82L4412.31,2819.68L4265.8,2767.1Z" style="fill:rgb(120,65,107);"/>
                </g>
                <g transform="matrix(0.764032,0,0,0.739203,829.026,607.976)">
                    <path d="M4271.8,2553.2L4437.77,2536.7L4431.91,2734.54L4265.8,2767.1L4271.8,2553.2Z" style="fill:rgb(153,95,139);"/>
                </g>
                <g transform="matrix(0.764032,0,0,0.739203,829.026,607.976)">
                    <path d="M4312.15,2836.39L4412.31,2819.68L4265.8,2767.1L4174.53,2782.95L4312.15,2836.39Z" style="fill:rgb(198,142,178);"/>
                </g>
                <g transform="matrix(0.764032,0,0,0.739203,829.026,607.976)">
                    <path d="M4418.7,2592.31L4587.7,2575.01L4579.68,2784.82L4412.31,2819.68L4418.7,2592.31Z" style="fill:rgb(196,154,181);"/>
                </g>
                <g transform="matrix(0.764032,0,0,0.739203,829.026,607.976)">
                    <path d="M4271.8,2553.2L4437.77,2536.7L4587.7,2575.01L4418.7,2592.31L4271.8,2553.2Z" style="fill:rgb(202,171,191);"/>
                </g>
                <g transform="matrix(0.764032,0,0,0.739203,829.026,607.976)">
                    <path d="M4372.97,2500.95L4221.98,2465.21L4271.8,2553.2L4418.7,2592.31L4372.97,2500.95Z" style="fill:rgb(198,142,178);"/>
                </g>
                <g transform="matrix(0.764032,0,0,0.739203,829.026,607.976)">
                    <path d="M4418.7,2592.31L4479.96,2615.88L4475.59,2856.26L4412.31,2819.68L4418.7,2592.31Z" style="fill:rgb(198,142,178);"/>
                </g>
            </g>
            <g id="cat" transform="matrix(-0.0204111,-9.80272e-05,-0.000110184,0.0214754,3813.23,2692.98)">
                <path d="M-7012.36,-4471.27C-7010.1,-4807.44 -7303.57,-5082.06 -7667.3,-5084.13C-8254.3,-5087.48 -8734.45,-4654.22 -8743.63,-4115.29C-8746.98,-1931.58 -6824.37,-150.956 -4443.18,-137.383C-4265.94,-136.373 -3197.86,-130.849 -3179.99,-130.521C-1805.49,-105.346 -552.846,-678.958 263.571,-1594.48C818.821,-2216.92 1203.46,-2997.68 1230.83,-3861.88C1290.45,-5744.83 60.463,-7324.07 -1898,-7921.61C-2328.43,-8052.94 -2675.63,-8459.96 -2646.59,-8897.72C-2584.32,-9462.8 -2754.59,-10082 -3155.49,-10521.5C-3337.85,-10721.4 -3386.99,-10730 -3617.04,-10876.8C-3651.88,-10899.1 -3696.47,-11098.7 -3812.36,-11296.3C-3943.22,-11519.4 -4145.8,-11741.3 -4168.33,-11725.5C-4172.09,-11722.9 -4230.37,-11617.2 -4298.2,-11387.8C-4359.82,-11179.3 -4329.61,-11074.9 -4390.23,-11076.4C-4745.42,-11085.3 -5062.57,-11048.9 -5360.66,-10855.2C-5459.14,-10791.2 -5547.55,-10715 -5626.66,-10631.6C-5767.75,-10482.7 -5873.27,-10313.7 -6123.91,-10338C-6237.19,-10344.3 -6337.89,-10266.2 -6344.71,-10163.5C-6347.58,-10120.2 -6333.9,-10079.4 -6308.62,-10046.2C-6384.36,-9981.83 -6435.61,-9892.76 -6442.36,-9791.02C-6446.94,-9722.03 -6431.14,-9656.18 -6399.71,-9598.36L-6399.84,-9598.34C-6428.65,-9353.61 -6280.26,-9112.4 -6033.39,-9013.94L-6033.54,-9014.03C-5875.65,-8951.16 -5747.02,-8826.22 -5690.76,-8675.7C-5670.74,-8611.09 -5650.62,-8546.13 -5639.62,-8479.71C-5608.04,-8289.03 -5664.23,-8080.69 -5763.85,-7913.67C-5788.95,-7868.83 -5813.04,-7823.49 -5835.98,-7777.67C-5981.68,-7493.23 -6070.63,-7178.64 -6088.82,-6845.55C-6119.48,-6283.95 -5944.28,-5756.18 -5623.98,-5323.85C-5109.47,-4623.52 -4833,-3767.99 -4894.01,-2860.6C-4908.04,-2651.95 -4938.21,-2373.26 -4984.3,-2097.05C-4985.87,-2087.67 -4985.55,-2081.27 -4995.6,-2043.63C-5005.81,-2005.44 -4999.3,-2024.13 -5008.44,-2000.54C-5080.8,-1813.78 -5317.84,-1588.29 -5641.54,-1596.77C-5731.73,-1599.13 -5892.23,-1658.29 -5964.17,-1709.11C-6046.2,-1767.04 -6137.88,-1868.78 -6189.04,-1933.3C-6721.89,-2605.34 -7017.86,-3422.07 -7017.86,-4271.44C-7017.86,-4338.22 -7016.03,-4404.91 -7012.37,-4471.43" style="fill:rgb(70,26,62);stroke:rgb(67,0,71);stroke-opacity:0;stroke-width:14.93px;"/>
            </g>
            <g id="hat" transform="matrix(3.90443,-2.86715,2.62471,3.34574,606.156,2603.23)">
                <path d="M543.857,432.104L543.857,427.501L557.126,427.502L557.126,432.104L561.866,432.105L561.866,434.222L539.118,434.221L539.118,432.104L543.857,432.104Z" style="fill:rgb(123,65,123);"/>
                <clipPath id="_clip1">
                    <path d="M543.857,432.104L543.857,427.501L557.126,427.502L557.126,432.104L561.866,432.105L561.866,434.222L539.118,434.221L539.118,432.104L543.857,432.104Z"/>
                </clipPath>
                <g clip-path="url(#_clip1)">
                    <g id="ribbon" transform="matrix(0.612609,2.50561e-05,-3.20833e-05,0.784421,212.599,89.5304)">
                        <rect x="540.816" y="433.992" width="21.543" height="2.7" style="fill:rgb(70,26,62);"/>
                        <path d="M540.801,436.684L540.763,436.684C540.763,436.716 540.784,436.729 540.784,436.729C540.784,436.729 540.793,436.739 540.817,436.739L540.913,436.739L540.913,436.645C540.855,436.645 540.817,436.645 540.817,436.645L540.801,436.684ZM540.763,436.497L540.763,436.591L540.869,436.591L540.869,436.497L540.763,436.497ZM541.019,436.739L541.125,436.739L541.125,436.645L541.019,436.645L541.019,436.739ZM541.231,436.739L541.337,436.739L541.337,436.645L541.231,436.645L541.231,436.739ZM540.763,436.31L540.763,436.404L540.869,436.404L540.869,436.31L540.763,436.31ZM541.443,436.739L541.549,436.739L541.549,436.645L541.443,436.645L541.443,436.739ZM540.763,436.123L540.763,436.217L540.869,436.217L540.869,436.123L540.763,436.123ZM541.655,436.739L541.761,436.739L541.761,436.645L541.655,436.645L541.655,436.739ZM540.763,435.936L540.763,436.03L540.869,436.03L540.869,435.936L540.763,435.936ZM541.867,436.739L541.973,436.739L541.973,436.645L541.867,436.645L541.867,436.739ZM542.079,436.739L542.185,436.739L542.185,436.645L542.079,436.645L542.079,436.739ZM540.763,435.749L540.763,435.843L540.869,435.843L540.869,435.749L540.763,435.749ZM542.291,436.739L542.397,436.739L542.397,436.645L542.291,436.645L542.291,436.739ZM540.763,435.563L540.763,435.656L540.869,435.656L540.869,435.563L540.763,435.563ZM542.503,436.739L542.609,436.739L542.609,436.645L542.503,436.645L542.503,436.739ZM540.763,435.376L540.763,435.469L540.869,435.469L540.869,435.376L540.763,435.376ZM542.715,436.739L542.821,436.739L542.821,436.645L542.715,436.645L542.715,436.739ZM542.927,436.739L543.033,436.739L543.033,436.645L542.927,436.645L542.927,436.739ZM540.763,435.189L540.763,435.282L540.869,435.282L540.869,435.189L540.763,435.189ZM543.139,436.739L543.245,436.739L543.245,436.645L543.139,436.645L543.139,436.739ZM540.763,435.002L540.763,435.095L540.869,435.095L540.869,435.002L540.763,435.002ZM543.351,436.739L543.457,436.739L543.457,436.645L543.351,436.645L543.351,436.739ZM540.763,434.815L540.763,434.908L540.869,434.908L540.869,434.815L540.763,434.815ZM543.563,436.739L543.669,436.739L543.669,436.645L543.563,436.645L543.563,436.739ZM543.775,436.739L543.881,436.739L543.881,436.645L543.775,436.645L543.775,436.739ZM540.763,434.628L540.763,434.721L540.869,434.721L540.869,434.628L540.763,434.628ZM543.987,436.739L544.093,436.739L544.093,436.645L543.987,436.645L543.987,436.739ZM540.763,434.441L540.763,434.534L540.869,434.534L540.869,434.441L540.763,434.441ZM544.2,436.739L544.306,436.739L544.306,436.645L544.2,436.645L544.2,436.739ZM540.763,434.254L540.763,434.347L540.869,434.347L540.869,434.254L540.763,434.254ZM544.412,436.739L544.518,436.739L544.518,436.645L544.412,436.645L544.412,436.739ZM540.763,434.067L540.763,434.16L540.869,434.16L540.869,434.067L540.763,434.067ZM544.624,436.739L544.73,436.739L544.73,436.645L544.624,436.645L544.624,436.739ZM544.836,436.739L544.942,436.739L544.942,436.645L544.836,436.645L544.836,436.739ZM540.943,433.945L540.837,433.945L540.837,434.039L540.943,434.039L540.943,433.945ZM545.048,436.739L545.154,436.739L545.154,436.645L545.048,436.645L545.048,436.739ZM541.155,433.945L541.049,433.945L541.049,434.039L541.155,434.039L541.155,433.945ZM545.26,436.739L545.366,436.739L545.366,436.645L545.26,436.645L545.26,436.739ZM541.367,433.945L541.261,433.945L541.261,434.039L541.367,434.039L541.367,433.945ZM545.472,436.739L545.578,436.739L545.578,436.645L545.472,436.645L545.472,436.739ZM541.579,433.945L541.473,433.945L541.473,434.039L541.579,434.039L541.579,433.945ZM545.684,436.739L545.79,436.739L545.79,436.645L545.684,436.645L545.684,436.739ZM541.791,433.945L541.685,433.945L541.685,434.039L541.791,434.039L541.791,433.945ZM545.896,436.739L546.002,436.739L546.002,436.645L545.896,436.645L545.896,436.739ZM542.003,433.945L541.897,433.945L541.897,434.039L542.003,434.039L542.003,433.945ZM546.108,436.739L546.214,436.739L546.214,436.645L546.108,436.645L546.108,436.739ZM542.215,433.945L542.109,433.945L542.109,434.039L542.215,434.039L542.215,433.945ZM546.32,436.739L546.426,436.739L546.426,436.645L546.32,436.645L546.32,436.739ZM542.427,433.945L542.321,433.945L542.321,434.039L542.427,434.039L542.427,433.945ZM546.532,436.739L546.638,436.739L546.638,436.645L546.532,436.645L546.532,436.739ZM542.639,433.945L542.533,433.945L542.533,434.039L542.639,434.039L542.639,433.945ZM546.744,436.739L546.85,436.739L546.85,436.645L546.744,436.645L546.744,436.739ZM542.851,433.945L542.745,433.945L542.745,434.039L542.851,434.039L542.851,433.945ZM546.956,436.739L547.062,436.739L547.062,436.645L546.956,436.645L546.956,436.739ZM543.063,433.945L542.957,433.945L542.957,434.039L543.063,434.039L543.063,433.945ZM547.168,436.739L547.274,436.739L547.274,436.645L547.168,436.645L547.168,436.739ZM543.275,433.945L543.169,433.945L543.169,434.039L543.275,434.039L543.275,433.945ZM547.38,436.739L547.486,436.739L547.486,436.645L547.38,436.645L547.38,436.739ZM543.487,433.945L543.381,433.945L543.381,434.039L543.487,434.039L543.487,433.945ZM547.592,436.739L547.698,436.739L547.698,436.645L547.592,436.645L547.592,436.739ZM543.699,433.945L543.593,433.945L543.593,434.039L543.699,434.039L543.699,433.945ZM547.804,436.739L547.91,436.739L547.91,436.645L547.804,436.645L547.804,436.739ZM543.911,433.945L543.805,433.945L543.805,434.039L543.911,434.039L543.911,433.945ZM548.016,436.739L548.122,436.739L548.122,436.645L548.016,436.645L548.016,436.739ZM544.123,433.945L544.017,433.945L544.017,434.039L544.123,434.039L544.123,433.945ZM548.228,436.739L548.334,436.739L548.334,436.645L548.228,436.645L548.228,436.739ZM544.335,433.945L544.229,433.945L544.229,434.039L544.335,434.039L544.335,433.945ZM548.44,436.739L548.546,436.739L548.546,436.645L548.44,436.645L548.44,436.739ZM544.548,433.945L544.442,433.945L544.442,434.039L544.548,434.039L544.548,433.945ZM548.652,436.739L548.758,436.739L548.758,436.645L548.652,436.645L548.652,436.739ZM544.76,433.945L544.654,433.945L544.654,434.039L544.76,434.039L544.76,433.945ZM548.864,436.739L548.97,436.739L548.97,436.645L548.864,436.645L548.864,436.739ZM544.972,433.945L544.866,433.945L544.866,434.039L544.972,434.039L544.972,433.945ZM549.076,436.739L549.182,436.739L549.182,436.645L549.076,436.645L549.076,436.739ZM545.184,433.945L545.078,433.945L545.078,434.039L545.184,434.039L545.184,433.945ZM549.288,436.739L549.394,436.739L549.394,436.645L549.288,436.645L549.288,436.739ZM545.396,433.945L545.29,433.945L545.29,434.039L545.396,434.039L545.396,433.945ZM549.5,436.739L549.606,436.739L549.606,436.645L549.5,436.645L549.5,436.739ZM545.608,433.945L545.502,433.945L545.502,434.039L545.608,434.039L545.608,433.945ZM549.712,436.739L549.818,436.739L549.818,436.645L549.712,436.645L549.712,436.739ZM545.82,433.945L545.714,433.945L545.714,434.039L545.82,434.039L545.82,433.945ZM549.924,436.739L550.03,436.739L550.03,436.645L549.924,436.645L549.924,436.739ZM546.032,433.945L545.926,433.945L545.926,434.039L546.032,434.039L546.032,433.945ZM550.136,436.739L550.242,436.739L550.242,436.645L550.136,436.645L550.136,436.739ZM546.244,433.945L546.138,433.945L546.138,434.039L546.244,434.039L546.244,433.945ZM550.348,436.739L550.454,436.739L550.454,436.645L550.348,436.645L550.348,436.739ZM546.456,433.945L546.35,433.945L546.35,434.039L546.456,434.039L546.456,433.945ZM550.56,436.739L550.666,436.739L550.666,436.645L550.56,436.645L550.56,436.739ZM546.668,433.945L546.562,433.945L546.562,434.039L546.668,434.039L546.668,433.945ZM550.772,436.739L550.878,436.739L550.878,436.645L550.772,436.645L550.772,436.739ZM546.88,433.945L546.774,433.945L546.774,434.039L546.88,434.039L546.88,433.945ZM550.984,436.739L551.09,436.739L551.09,436.645L550.984,436.645L550.984,436.739ZM547.092,433.945L546.986,433.945L546.986,434.039L547.092,434.039L547.092,433.945ZM551.196,436.739L551.302,436.739L551.302,436.645L551.196,436.645L551.196,436.739ZM547.304,433.945L547.198,433.945L547.198,434.039L547.304,434.039L547.304,433.945ZM551.409,436.739L551.515,436.739L551.515,436.645L551.409,436.645L551.409,436.739ZM547.516,433.945L547.41,433.945L547.41,434.039L547.516,434.039L547.516,433.945ZM551.621,436.739L551.727,436.739L551.727,436.645L551.621,436.645L551.621,436.739ZM547.728,433.945L547.622,433.945L547.622,434.039L547.728,434.039L547.728,433.945ZM551.833,436.739L551.939,436.739L551.939,436.645L551.833,436.645L551.833,436.739ZM547.94,433.945L547.834,433.945L547.834,434.039L547.94,434.039L547.94,433.945ZM552.045,436.739L552.151,436.739L552.151,436.645L552.045,436.645L552.045,436.739ZM548.152,433.945L548.046,433.945L548.046,434.039L548.152,434.039L548.152,433.945ZM552.257,436.739L552.363,436.739L552.363,436.645L552.257,436.645L552.257,436.739ZM548.364,433.945L548.258,433.945L548.258,434.039L548.364,434.039L548.364,433.945ZM552.469,436.739L552.575,436.739L552.575,436.645L552.469,436.645L552.469,436.739ZM548.576,433.945L548.47,433.945L548.47,434.039L548.576,434.039L548.576,433.945ZM552.681,436.739L552.787,436.739L552.787,436.645L552.681,436.645L552.681,436.739ZM548.788,433.945L548.682,433.945L548.682,434.039L548.788,434.039L548.788,433.945ZM552.893,436.739L552.999,436.739L552.999,436.645L552.893,436.645L552.893,436.739ZM549,433.945L548.894,433.945L548.894,434.039L549,434.039L549,433.945ZM553.105,436.739L553.211,436.739L553.211,436.645L553.105,436.645L553.105,436.739ZM549.212,433.945L549.106,433.945L549.106,434.039L549.212,434.039L549.212,433.945ZM553.317,436.739L553.423,436.739L553.423,436.645L553.317,436.645L553.317,436.739ZM549.424,433.945L549.318,433.945L549.318,434.039L549.424,434.039L549.424,433.945ZM553.529,436.739L553.635,436.739L553.635,436.645L553.529,436.645L553.529,436.739ZM549.636,433.945L549.53,433.945L549.53,434.039L549.636,434.039L549.636,433.945ZM553.741,436.739L553.847,436.739L553.847,436.645L553.741,436.645L553.741,436.739ZM549.848,433.945L549.742,433.945L549.742,434.039L549.848,434.039L549.848,433.945ZM553.953,436.739L554.059,436.739L554.059,436.645L553.953,436.645L553.953,436.739ZM550.06,433.945L549.954,433.945L549.954,434.039L550.06,434.039L550.06,433.945ZM554.165,436.739L554.271,436.739L554.271,436.645L554.165,436.645L554.165,436.739ZM550.272,433.945L550.166,433.945L550.166,434.039L550.272,434.039L550.272,433.945ZM554.377,436.739L554.483,436.739L554.483,436.645L554.377,436.645L554.377,436.739ZM550.484,433.945L550.378,433.945L550.378,434.039L550.484,434.039L550.484,433.945ZM554.589,436.739L554.695,436.739L554.695,436.645L554.589,436.645L554.589,436.739ZM550.696,433.945L550.59,433.945L550.59,434.039L550.696,434.039L550.696,433.945ZM554.801,436.739L554.907,436.739L554.907,436.645L554.801,436.645L554.801,436.739ZM550.908,433.945L550.802,433.945L550.802,434.039L550.908,434.039L550.908,433.945ZM555.013,436.739L555.119,436.739L555.119,436.645L555.013,436.645L555.013,436.739ZM551.121,433.945L551.014,433.945L551.014,434.039L551.121,434.039L551.121,433.945ZM555.225,436.739L555.331,436.739L555.331,436.645L555.225,436.645L555.225,436.739ZM551.333,433.945L551.227,433.945L551.227,434.039L551.333,434.039L551.333,433.945ZM555.437,436.739L555.543,436.739L555.543,436.645L555.437,436.645L555.437,436.739ZM551.545,433.945L551.439,433.945L551.439,434.039L551.545,434.039L551.545,433.945ZM555.649,436.739L555.755,436.739L555.755,436.645L555.649,436.645L555.649,436.739ZM551.757,433.945L551.651,433.945L551.651,434.039L551.757,434.039L551.757,433.945ZM555.861,436.739L555.967,436.739L555.967,436.645L555.861,436.645L555.861,436.739ZM551.969,433.945L551.863,433.945L551.863,434.039L551.969,434.039L551.969,433.945ZM556.073,436.739L556.179,436.739L556.179,436.645L556.073,436.645L556.073,436.739ZM552.181,433.945L552.075,433.945L552.075,434.039L552.181,434.039L552.181,433.945ZM556.285,436.739L556.391,436.739L556.391,436.645L556.285,436.645L556.285,436.739ZM552.393,433.945L552.287,433.945L552.287,434.039L552.393,434.039L552.393,433.945ZM556.497,436.739L556.603,436.739L556.603,436.645L556.497,436.645L556.497,436.739ZM552.605,433.945L552.499,433.945L552.499,434.039L552.605,434.039L552.605,433.945ZM556.709,436.739L556.815,436.739L556.815,436.645L556.709,436.645L556.709,436.739ZM552.817,433.945L552.711,433.945L552.711,434.039L552.817,434.039L552.817,433.945ZM556.921,436.739L557.027,436.739L557.027,436.645L556.921,436.645L556.921,436.739ZM553.029,433.945L552.923,433.945L552.923,434.039L553.029,434.039L553.029,433.945ZM557.133,436.739L557.239,436.739L557.239,436.645L557.133,436.645L557.133,436.739ZM553.241,433.945L553.135,433.945L553.135,434.039L553.241,434.039L553.241,433.945ZM557.345,436.739L557.451,436.739L557.451,436.645L557.345,436.645L557.345,436.739ZM553.453,433.945L553.347,433.945L553.347,434.039L553.453,434.039L553.453,433.945ZM557.557,436.739L557.663,436.739L557.663,436.645L557.557,436.645L557.557,436.739ZM553.665,433.945L553.559,433.945L553.559,434.039L553.665,434.039L553.665,433.945ZM557.769,436.739L557.875,436.739L557.875,436.645L557.769,436.645L557.769,436.739ZM553.877,433.945L553.771,433.945L553.771,434.039L553.877,434.039L553.877,433.945ZM557.981,436.739L558.087,436.739L558.087,436.645L557.981,436.645L557.981,436.739ZM554.089,433.945L553.983,433.945L553.983,434.039L554.089,434.039L554.089,433.945ZM558.193,436.739L558.299,436.739L558.299,436.645L558.193,436.645L558.193,436.739ZM554.301,433.945L554.195,433.945L554.195,434.039L554.301,434.039L554.301,433.945ZM558.405,436.739L558.511,436.739L558.511,436.645L558.405,436.645L558.405,436.739ZM554.513,433.945L554.407,433.945L554.407,434.039L554.513,434.039L554.513,433.945ZM558.618,436.739L558.724,436.739L558.724,436.645L558.618,436.645L558.618,436.739ZM554.725,433.945L554.619,433.945L554.619,434.039L554.725,434.039L554.725,433.945ZM558.83,436.739L558.936,436.739L558.936,436.645L558.83,436.645L558.83,436.739ZM554.937,433.945L554.831,433.945L554.831,434.039L554.937,434.039L554.937,433.945ZM559.042,436.739L559.148,436.739L559.148,436.645L559.042,436.645L559.042,436.739ZM555.149,433.945L555.043,433.945L555.043,434.039L555.149,434.039L555.149,433.945ZM559.254,436.739L559.36,436.739L559.36,436.645L559.254,436.645L559.254,436.739ZM555.361,433.945L555.255,433.945L555.255,434.039L555.361,434.039L555.361,433.945ZM559.466,436.739L559.572,436.739L559.572,436.645L559.466,436.645L559.466,436.739ZM555.573,433.945L555.467,433.945L555.467,434.039L555.573,434.039L555.573,433.945ZM559.678,436.739L559.784,436.739L559.784,436.645L559.678,436.645L559.678,436.739ZM555.785,433.945L555.679,433.945L555.679,434.039L555.785,434.039L555.785,433.945ZM559.89,436.739L559.996,436.739L559.996,436.645L559.89,436.645L559.89,436.739ZM555.997,433.945L555.891,433.945L555.891,434.039L555.997,434.039L555.997,433.945ZM560.102,436.739L560.208,436.739L560.208,436.645L560.102,436.645L560.102,436.739ZM556.209,433.945L556.103,433.945L556.103,434.039L556.209,434.039L556.209,433.945ZM560.314,436.739L560.42,436.739L560.42,436.645L560.314,436.645L560.314,436.739ZM556.421,433.945L556.315,433.945L556.315,434.039L556.421,434.039L556.421,433.945ZM560.526,436.739L560.632,436.739L560.632,436.645L560.526,436.645L560.526,436.739ZM556.633,433.945L556.527,433.945L556.527,434.039L556.633,434.039L556.633,433.945ZM560.738,436.739L560.844,436.739L560.844,436.645L560.738,436.645L560.738,436.739ZM556.845,433.945L556.739,433.945L556.739,434.039L556.845,434.039L556.845,433.945ZM560.95,436.739L561.056,436.739L561.056,436.645L560.95,436.645L560.95,436.739ZM557.057,433.945L556.951,433.945L556.951,434.039L557.057,434.039L557.057,433.945ZM561.162,436.739L561.268,436.739L561.268,436.645L561.162,436.645L561.162,436.739ZM557.269,433.945L557.163,433.945L557.163,434.039L557.269,434.039L557.269,433.945ZM561.374,436.739L561.48,436.739L561.48,436.645L561.374,436.645L561.374,436.739ZM557.481,433.945L557.375,433.945L557.375,434.039L557.481,434.039L557.481,433.945ZM561.586,436.739L561.692,436.739L561.692,436.645L561.586,436.645L561.586,436.739ZM557.694,433.945L557.588,433.945L557.588,434.039L557.694,434.039L557.694,433.945ZM561.798,436.739L561.904,436.739L561.904,436.645L561.798,436.645L561.798,436.739ZM557.906,433.945L557.8,433.945L557.8,434.039L557.906,434.039L557.906,433.945ZM562.01,436.739L562.116,436.739L562.116,436.645L562.01,436.645L562.01,436.739ZM558.118,433.945L558.012,433.945L558.012,434.039L558.118,434.039L558.118,433.945ZM562.222,436.739L562.328,436.739L562.328,436.645L562.222,436.645L562.222,436.739ZM558.33,433.945L558.224,433.945L558.224,434.039L558.33,434.039L558.33,433.945ZM558.542,433.945L558.436,433.945L558.436,434.039L558.542,434.039L558.542,433.945ZM562.411,436.625L562.411,436.532L562.305,436.532L562.305,436.625L562.411,436.625ZM558.754,433.945L558.648,433.945L558.648,434.039L558.754,434.039L558.754,433.945ZM562.411,436.438L562.411,436.345L562.305,436.345L562.305,436.438L562.411,436.438ZM558.966,433.945L558.86,433.945L558.86,434.039L558.966,434.039L558.966,433.945ZM562.411,436.251L562.411,436.158L562.305,436.158L562.305,436.251L562.411,436.251ZM559.178,433.945L559.072,433.945L559.072,434.039L559.178,434.039L559.178,433.945ZM562.411,436.064L562.411,435.971L562.305,435.971L562.305,436.064L562.411,436.064ZM559.39,433.945L559.284,433.945L559.284,434.039L559.39,434.039L559.39,433.945ZM559.602,433.945L559.496,433.945L559.496,434.039L559.602,434.039L559.602,433.945ZM562.411,435.877L562.411,435.784L562.305,435.784L562.305,435.877L562.411,435.877ZM559.814,433.945L559.708,433.945L559.708,434.039L559.814,434.039L559.814,433.945ZM562.411,435.69L562.411,435.597L562.305,435.597L562.305,435.69L562.411,435.69ZM560.026,433.945L559.92,433.945L559.92,434.039L560.026,434.039L560.026,433.945ZM562.411,435.503L562.411,435.41L562.305,435.41L562.305,435.503L562.411,435.503ZM560.238,433.945L560.132,433.945L560.132,434.039L560.238,434.039L560.238,433.945ZM560.45,433.945L560.344,433.945L560.344,434.039L560.45,434.039L560.45,433.945ZM562.411,435.316L562.411,435.223L562.305,435.223L562.305,435.316L562.411,435.316ZM560.662,433.945L560.556,433.945L560.556,434.039L560.662,434.039L560.662,433.945ZM562.411,435.129L562.411,435.036L562.305,435.036L562.305,435.129L562.411,435.129ZM560.874,433.945L560.768,433.945L560.768,434.039L560.874,434.039L560.874,433.945ZM562.411,434.942L562.411,434.849L562.305,434.849L562.305,434.942L562.411,434.942ZM561.086,433.945L560.98,433.945L560.98,434.039L561.086,434.039L561.086,433.945ZM561.298,433.945L561.192,433.945L561.192,434.039L561.298,434.039L561.298,433.945ZM562.411,434.755L562.411,434.662L562.305,434.662L562.305,434.755L562.411,434.755ZM561.51,433.945L561.404,433.945L561.404,434.039L561.51,434.039L561.51,433.945ZM562.411,434.568L562.411,434.475L562.305,434.475L562.305,434.568L562.411,434.568ZM561.722,433.945L561.616,433.945L561.616,434.039L561.722,434.039L561.722,433.945ZM562.411,434.381L562.411,434.288L562.305,434.288L562.305,434.381L562.411,434.381ZM561.934,433.945L561.828,433.945L561.828,434.039L561.934,434.039L561.934,433.945ZM562.146,433.945L562.04,433.945L562.04,434.039L562.146,434.039L562.146,433.945ZM562.411,434.195L562.411,434.101L562.305,434.101L562.305,434.195L562.411,434.195ZM562.348,434.008C562.373,433.984 562.411,433.955 562.411,433.992L562.411,434.008L562.348,434.008C562.34,434.015 562.334,434.022 562.33,434.026L562.326,434.029L562.357,434.039L562.252,434.039L562.252,433.945C562.315,433.945 562.357,433.945 562.357,433.945L562.334,434.008L562.314,434.008L562.326,434.029L562.334,434.008L562.348,434.008Z" style="fill:rgb(67,0,71);fill-opacity:0;"/>
                    </g>
                </g>
                <path d="M539.15,434.218C539.15,434.21 539.15,434.185 539.15,434.145L539.085,434.145C539.085,434.185 539.085,434.21 539.085,434.218L539.15,434.218ZM539.245,434.185C539.22,434.185 539.198,434.185 539.18,434.185L539.18,434.258C539.198,434.258 539.22,434.258 539.245,434.258L539.245,434.185ZM539.15,434.072C539.15,434.049 539.15,434.025 539.15,433.998L539.085,433.998C539.085,434.025 539.085,434.049 539.085,434.072L539.15,434.072ZM539.375,434.185C539.352,434.185 539.33,434.185 539.31,434.185L539.31,434.258C539.33,434.258 539.352,434.258 539.375,434.258L539.375,434.185ZM539.505,434.185C539.482,434.185 539.461,434.185 539.44,434.185L539.44,434.258C539.461,434.258 539.482,434.258 539.505,434.258L539.505,434.185ZM539.15,433.925C539.15,433.902 539.15,433.877 539.15,433.852L539.085,433.852C539.085,433.877 539.085,433.902 539.085,433.925L539.15,433.925ZM539.635,434.185C539.612,434.185 539.591,434.185 539.57,434.185L539.57,434.258C539.591,434.258 539.612,434.258 539.635,434.258L539.635,434.185ZM539.15,433.778C539.15,433.755 539.15,433.73 539.15,433.705L539.085,433.705C539.085,433.73 539.085,433.755 539.085,433.778L539.15,433.778ZM539.765,434.185C539.742,434.185 539.721,434.185 539.7,434.185L539.7,434.258C539.721,434.258 539.742,434.258 539.765,434.258L539.765,434.185ZM539.15,433.632C539.15,433.608 539.15,433.583 539.15,433.558L539.085,433.558C539.085,433.583 539.085,433.608 539.085,433.632L539.15,433.632ZM539.895,434.185C539.872,434.185 539.851,434.185 539.83,434.185L539.83,434.258C539.851,434.258 539.872,434.258 539.895,434.258L539.895,434.185ZM540.024,434.185C540.002,434.185 539.981,434.185 539.959,434.185L539.959,434.258C539.981,434.258 540.002,434.258 540.024,434.258L540.024,434.185ZM539.15,433.485C539.15,433.461 539.15,433.436 539.15,433.412L539.085,433.412C539.085,433.436 539.085,433.461 539.085,433.485L539.15,433.485ZM540.154,434.185C540.132,434.185 540.111,434.185 540.089,434.185L540.089,434.258C540.111,434.258 540.132,434.258 540.154,434.258L540.154,434.185ZM539.15,433.339C539.15,433.314 539.15,433.29 539.15,433.265L539.085,433.265C539.085,433.29 539.085,433.314 539.085,433.339L539.15,433.339ZM540.284,434.185C540.262,434.185 540.241,434.185 540.219,434.185L540.219,434.258C540.241,434.258 540.262,434.258 540.284,434.258L540.284,434.185ZM539.15,433.192C539.15,433.167 539.15,433.143 539.15,433.119L539.085,433.119C539.085,433.143 539.085,433.167 539.085,433.192L539.15,433.192ZM540.414,434.185C540.392,434.185 540.371,434.185 540.349,434.185L540.349,434.258C540.371,434.258 540.392,434.258 540.414,434.258L540.414,434.185ZM540.544,434.185C540.522,434.185 540.5,434.185 540.479,434.185L540.479,434.258C540.5,434.258 540.522,434.258 540.544,434.258L540.544,434.185ZM539.15,433.045C539.15,433.021 539.15,432.996 539.15,432.972L539.085,432.972C539.085,432.996 539.085,433.021 539.085,433.045L539.15,433.045ZM540.674,434.185C540.652,434.185 540.63,434.185 540.609,434.185L540.609,434.258C540.63,434.258 540.652,434.258 540.674,434.258L540.674,434.185ZM539.15,432.899C539.15,432.874 539.15,432.849 539.15,432.825L539.085,432.825C539.085,432.849 539.085,432.874 539.085,432.899L539.15,432.899ZM540.804,434.185C540.782,434.185 540.76,434.185 540.739,434.185L540.739,434.258C540.76,434.258 540.782,434.258 540.804,434.258L540.804,434.185ZM539.15,432.752C539.15,432.727 539.15,432.703 539.15,432.679L539.085,432.679C539.085,432.703 539.085,432.727 539.085,432.752L539.15,432.752ZM540.934,434.185C540.912,434.185 540.89,434.185 540.869,434.185L540.869,434.258C540.89,434.258 540.912,434.258 540.934,434.258L540.934,434.185ZM541.064,434.185C541.042,434.185 541.02,434.185 540.999,434.185L540.999,434.258C541.02,434.258 541.042,434.258 541.064,434.258L541.064,434.185ZM539.15,432.605C539.15,432.58 539.15,432.556 539.15,432.532L539.085,432.532C539.085,432.556 539.085,432.58 539.085,432.605L539.15,432.605ZM541.193,434.185C541.172,434.185 541.15,434.185 541.129,434.185L541.129,434.258C541.15,434.258 541.172,434.258 541.193,434.258L541.193,434.185ZM539.15,432.459C539.15,432.433 539.15,432.409 539.15,432.385L539.085,432.385C539.085,432.409 539.085,432.433 539.085,432.459L539.15,432.459ZM541.323,434.185C541.302,434.185 541.28,434.185 541.258,434.185L541.258,434.258C541.28,434.258 541.302,434.258 541.323,434.258L541.323,434.185ZM539.15,432.312C539.15,432.285 539.15,432.261 539.15,432.239L539.085,432.239C539.085,432.261 539.085,432.285 539.085,432.312L539.15,432.312ZM541.453,434.185C541.431,434.185 541.41,434.185 541.388,434.185L541.388,434.258C541.41,434.258 541.431,434.258 541.453,434.258L541.453,434.185ZM541.583,434.185C541.561,434.185 541.54,434.185 541.518,434.185L541.518,434.258C541.54,434.258 541.561,434.258 541.583,434.258L541.583,434.185ZM539.128,432.099L539.128,432.067C539.122,432.067 539.118,432.067 539.118,432.067C539.118,432.067 539.098,432.133 539.098,432.133C539.098,432.133 539.085,432.104 539.085,432.104C539.085,432.104 539.085,432.13 539.085,432.165L539.15,432.165C539.15,432.13 539.15,432.108 539.15,432.104C539.15,432.085 539.14,432.089 539.128,432.099ZM541.713,434.185C541.691,434.185 541.67,434.185 541.648,434.185L541.648,434.258C541.67,434.258 541.691,434.258 541.713,434.258L541.713,434.185ZM539.193,432.14C539.212,432.14 539.233,432.14 539.258,432.14L539.258,432.067C539.233,432.067 539.212,432.067 539.193,432.067L539.193,432.14ZM541.843,434.185C541.821,434.185 541.8,434.185 541.778,434.185L541.778,434.258C541.8,434.258 541.821,434.258 541.843,434.258L541.843,434.185ZM539.323,432.14C539.343,432.14 539.365,432.14 539.388,432.14L539.388,432.067C539.365,432.067 539.343,432.067 539.323,432.067L539.323,432.14ZM541.973,434.185C541.951,434.185 541.929,434.185 541.908,434.185L541.908,434.258C541.929,434.258 541.951,434.258 541.973,434.258L541.973,434.185ZM539.453,432.14C539.474,432.14 539.495,432.14 539.518,432.14L539.518,432.067C539.495,432.067 539.474,432.067 539.453,432.067L539.453,432.14ZM542.103,434.185C542.081,434.185 542.059,434.185 542.038,434.185L542.038,434.258C542.059,434.258 542.081,434.258 542.103,434.258L542.103,434.185ZM539.583,432.14C539.604,432.14 539.626,432.14 539.648,432.14L539.648,432.067C539.626,432.067 539.604,432.067 539.583,432.067L539.583,432.14ZM542.233,434.185C542.211,434.185 542.189,434.185 542.168,434.185L542.168,434.258C542.189,434.258 542.211,434.258 542.233,434.258L542.233,434.185ZM539.713,432.14C539.734,432.14 539.756,432.14 539.778,432.14L539.778,432.067C539.756,432.067 539.734,432.067 539.713,432.067L539.713,432.14ZM542.362,434.185C542.341,434.185 542.319,434.185 542.298,434.185L542.298,434.258C542.319,434.258 542.341,434.258 542.362,434.258L542.362,434.185ZM539.843,432.14C539.864,432.14 539.886,432.14 539.908,432.14L539.908,432.067C539.886,432.067 539.864,432.067 539.843,432.067L539.843,432.14ZM542.492,434.185C542.471,434.185 542.449,434.185 542.427,434.185L542.427,434.258C542.449,434.258 542.471,434.258 542.492,434.258L542.492,434.185ZM539.973,432.14C539.994,432.14 540.016,432.14 540.037,432.14L540.037,432.067C540.016,432.067 539.994,432.067 539.973,432.067L539.973,432.14ZM542.622,434.185C542.601,434.185 542.579,434.185 542.557,434.185L542.557,434.258C542.579,434.258 542.601,434.258 542.622,434.258L542.622,434.185ZM540.102,432.14C540.124,432.14 540.145,432.14 540.167,432.14L540.167,432.067C540.145,432.067 540.124,432.067 540.102,432.067L540.102,432.14ZM542.752,434.185C542.73,434.185 542.709,434.185 542.687,434.185L542.687,434.258C542.709,434.258 542.73,434.258 542.752,434.258L542.752,434.185ZM540.232,432.14C540.254,432.14 540.275,432.14 540.297,432.14L540.297,432.067C540.275,432.067 540.254,432.067 540.232,432.067L540.232,432.14ZM542.882,434.185C542.86,434.185 542.839,434.185 542.817,434.185L542.817,434.258C542.839,434.258 542.86,434.258 542.882,434.258L542.882,434.185ZM540.362,432.14C540.384,432.14 540.405,432.14 540.427,432.14L540.427,432.067C540.405,432.067 540.384,432.067 540.362,432.067L540.362,432.14ZM543.012,434.185C542.99,434.185 542.969,434.185 542.947,434.185L542.947,434.258C542.969,434.258 542.99,434.258 543.012,434.258L543.012,434.185ZM540.492,432.14C540.514,432.14 540.535,432.14 540.557,432.14L540.557,432.067C540.535,432.067 540.514,432.067 540.492,432.067L540.492,432.14ZM543.142,434.185C543.12,434.185 543.098,434.185 543.077,434.185L543.077,434.258C543.098,434.258 543.12,434.258 543.142,434.258L543.142,434.185ZM540.622,432.14C540.644,432.14 540.665,432.14 540.687,432.14L540.687,432.067C540.665,432.067 540.644,432.067 540.622,432.067L540.622,432.14ZM543.272,434.185C543.25,434.185 543.228,434.185 543.207,434.185L543.207,434.258C543.228,434.258 543.25,434.258 543.272,434.258L543.272,434.185ZM540.752,432.14C540.773,432.14 540.795,432.14 540.817,432.14L540.817,432.067C540.795,432.067 540.773,432.067 540.752,432.067L540.752,432.14ZM543.402,434.185C543.38,434.185 543.358,434.185 543.337,434.185L543.337,434.258C543.358,434.258 543.38,434.258 543.402,434.258L543.402,434.185ZM540.882,432.14C540.903,432.14 540.925,432.14 540.947,432.14L540.947,432.067C540.925,432.067 540.903,432.067 540.882,432.067L540.882,432.14ZM543.532,434.185C543.51,434.185 543.488,434.185 543.467,434.185L543.467,434.258C543.488,434.258 543.51,434.258 543.532,434.258L543.532,434.185ZM541.012,432.14C541.033,432.14 541.055,432.14 541.077,432.14L541.077,432.067C541.055,432.067 541.033,432.067 541.012,432.067L541.012,432.14ZM543.661,434.185C543.64,434.185 543.618,434.185 543.596,434.185L543.596,434.258C543.618,434.258 543.64,434.258 543.661,434.258L543.661,434.185ZM541.142,432.14C541.163,432.14 541.185,432.14 541.207,432.14L541.207,432.067C541.185,432.067 541.163,432.067 541.142,432.067L541.142,432.14ZM543.791,434.185C543.77,434.185 543.748,434.185 543.726,434.185L543.726,434.258C543.748,434.258 543.77,434.258 543.791,434.258L543.791,434.185ZM541.271,432.14C541.293,432.14 541.315,432.14 541.336,432.14L541.336,432.067C541.315,432.067 541.293,432.067 541.271,432.067L541.271,432.14ZM543.921,434.185C543.899,434.185 543.878,434.185 543.856,434.185L543.856,434.258C543.878,434.258 543.899,434.258 543.921,434.258L543.921,434.185ZM541.401,432.14C541.423,432.14 541.445,432.14 541.466,432.14L541.466,432.067C541.445,432.067 541.423,432.067 541.401,432.067L541.401,432.14ZM544.051,434.185C544.029,434.185 544.008,434.185 543.986,434.185L543.986,434.258C544.008,434.258 544.029,434.258 544.051,434.258L544.051,434.185ZM541.531,432.14C541.553,432.14 541.575,432.14 541.596,432.14L541.596,432.067C541.575,432.067 541.553,432.067 541.531,432.067L541.531,432.14ZM544.181,434.185C544.159,434.185 544.138,434.185 544.116,434.185L544.116,434.258C544.138,434.258 544.159,434.258 544.181,434.258L544.181,434.185ZM541.661,432.14C541.683,432.14 541.704,432.14 541.726,432.14L541.726,432.067C541.704,432.067 541.683,432.067 541.661,432.067L541.661,432.14ZM544.311,434.185C544.289,434.185 544.268,434.185 544.246,434.185L544.246,434.258C544.268,434.258 544.289,434.258 544.311,434.258L544.311,434.185ZM541.791,432.14C541.813,432.14 541.834,432.14 541.856,432.14L541.856,432.067C541.834,432.067 541.813,432.067 541.791,432.067L541.791,432.14ZM544.441,434.185C544.419,434.185 544.397,434.185 544.376,434.185L544.376,434.258C544.397,434.258 544.419,434.258 544.441,434.258L544.441,434.185ZM541.921,432.14C541.943,432.14 541.964,432.14 541.986,432.14L541.986,432.067C541.964,432.067 541.943,432.067 541.921,432.067L541.921,432.14ZM544.571,434.185C544.549,434.185 544.527,434.185 544.506,434.185L544.506,434.258C544.527,434.258 544.549,434.258 544.571,434.258L544.571,434.185ZM542.051,432.14C542.073,432.14 542.094,432.14 542.116,432.14L542.116,432.067C542.094,432.067 542.073,432.067 542.051,432.067L542.051,432.14ZM544.701,434.185C544.679,434.185 544.657,434.185 544.636,434.185L544.636,434.258C544.657,434.258 544.679,434.258 544.701,434.258L544.701,434.185ZM542.181,432.14C542.202,432.14 542.224,432.14 542.246,432.14L542.246,432.067C542.224,432.067 542.202,432.067 542.181,432.067L542.181,432.14ZM544.83,434.185C544.809,434.185 544.787,434.185 544.765,434.185L544.765,434.258C544.787,434.258 544.809,434.258 544.83,434.258L544.83,434.185ZM542.311,432.14C542.332,432.14 542.354,432.14 542.376,432.14L542.376,432.067C542.354,432.067 542.332,432.067 542.311,432.067L542.311,432.14ZM544.96,434.185C544.939,434.185 544.917,434.185 544.895,434.185L544.895,434.258C544.917,434.258 544.939,434.258 544.96,434.258L544.96,434.185ZM542.441,432.14C542.462,432.14 542.484,432.14 542.505,432.14L542.505,432.067C542.484,432.067 542.462,432.067 542.441,432.067L542.441,432.14ZM545.09,434.185C545.069,434.185 545.047,434.185 545.025,434.185L545.025,434.258C545.047,434.258 545.069,434.258 545.09,434.258L545.09,434.185ZM542.57,432.14C542.592,432.14 542.614,432.14 542.635,432.14L542.635,432.067C542.614,432.067 542.592,432.067 542.57,432.067L542.57,432.14ZM545.22,434.185C545.198,434.185 545.177,434.185 545.155,434.185L545.155,434.258C545.177,434.258 545.198,434.258 545.22,434.258L545.22,434.185ZM542.7,432.14C542.722,432.14 542.744,432.14 542.765,432.14L542.765,432.067C542.744,432.067 542.722,432.067 542.7,432.067L542.7,432.14ZM545.35,434.185C545.328,434.185 545.307,434.185 545.285,434.185L545.285,434.258C545.307,434.258 545.328,434.258 545.35,434.258L545.35,434.185ZM542.83,432.14C542.852,432.14 542.874,432.14 542.895,432.14L542.895,432.067C542.874,432.067 542.852,432.067 542.83,432.067L542.83,432.14ZM545.48,434.185C545.458,434.185 545.437,434.185 545.415,434.185L545.415,434.258C545.437,434.258 545.458,434.258 545.48,434.258L545.48,434.185ZM542.96,432.14C542.982,432.14 543.004,432.14 543.025,432.14L543.025,432.067C543.004,432.067 542.982,432.067 542.96,432.067L542.96,432.14ZM545.61,434.185C545.588,434.185 545.566,434.185 545.545,434.185L545.545,434.258C545.566,434.258 545.588,434.258 545.61,434.258L545.61,434.185ZM543.09,432.141C543.112,432.141 543.134,432.141 543.155,432.141L543.155,432.067C543.134,432.067 543.112,432.067 543.09,432.067L543.09,432.141ZM545.74,434.185C545.718,434.185 545.696,434.185 545.675,434.185L545.675,434.258C545.696,434.258 545.718,434.258 545.74,434.258L545.74,434.185ZM543.22,432.141C543.242,432.141 543.264,432.141 543.285,432.141L543.285,432.067C543.264,432.067 543.242,432.067 543.22,432.067L543.22,432.141ZM545.87,434.185C545.848,434.185 545.826,434.185 545.805,434.185L545.805,434.258C545.826,434.258 545.848,434.258 545.87,434.258L545.87,434.185ZM543.35,432.141C543.372,432.141 543.394,432.141 543.415,432.141L543.415,432.067C543.394,432.067 543.372,432.067 543.35,432.067L543.35,432.141ZM545.999,434.185C545.978,434.185 545.956,434.185 545.935,434.185L545.935,434.258C545.956,434.258 545.978,434.258 545.999,434.258L545.999,434.185ZM543.48,432.141C543.502,432.141 543.524,432.141 543.545,432.141L543.545,432.067C543.524,432.067 543.502,432.067 543.48,432.067L543.48,432.141ZM546.129,434.185C546.108,434.185 546.086,434.185 546.064,434.185L546.064,434.258C546.086,434.258 546.108,434.258 546.129,434.258L546.129,434.185ZM543.61,432.141C543.633,432.141 543.654,432.141 543.674,432.141L543.674,432.067C543.654,432.067 543.633,432.067 543.61,432.067L543.61,432.141ZM546.259,434.185C546.238,434.185 546.216,434.185 546.194,434.185L546.194,434.258C546.216,434.258 546.238,434.258 546.259,434.258L546.259,434.185ZM543.739,432.141C543.765,432.141 543.787,432.141 543.804,432.141L543.804,432.067C543.787,432.067 543.765,432.067 543.739,432.067L543.739,432.141ZM543.838,432.133C543.838,432.133 543.89,432.147 543.89,432.103C543.89,432.099 543.89,432.073 543.89,432.031L543.825,432.031C543.825,432.073 543.825,432.099 543.825,432.103C543.825,432.125 543.838,432.133 543.838,432.133ZM546.389,434.185C546.367,434.185 546.346,434.185 546.324,434.185L546.324,434.258C546.346,434.258 546.367,434.258 546.389,434.258L546.389,434.185ZM546.519,434.185C546.497,434.185 546.476,434.185 546.454,434.185L546.454,434.258C546.476,434.258 546.497,434.258 546.519,434.258L546.519,434.185ZM543.89,431.957C543.89,431.935 543.89,431.911 543.89,431.884L543.825,431.884C543.825,431.911 543.825,431.935 543.825,431.957L543.89,431.957ZM546.649,434.185C546.627,434.185 546.606,434.185 546.584,434.185L546.584,434.258C546.606,434.258 546.627,434.258 546.649,434.258L546.649,434.185ZM543.89,431.811C543.89,431.787 543.89,431.763 543.89,431.737L543.825,431.737C543.825,431.763 543.825,431.787 543.825,431.811L543.89,431.811ZM546.779,434.185C546.757,434.185 546.736,434.185 546.714,434.185L546.714,434.258C546.736,434.258 546.757,434.258 546.779,434.258L546.779,434.185ZM546.909,434.185C546.887,434.185 546.865,434.185 546.844,434.185L546.844,434.258C546.865,434.258 546.887,434.258 546.909,434.258L546.909,434.185ZM543.89,431.664C543.89,431.64 543.89,431.616 543.89,431.591L543.825,431.591C543.825,431.616 543.825,431.64 543.825,431.664L543.89,431.664ZM547.039,434.185C547.017,434.185 546.995,434.185 546.974,434.185L546.974,434.258C546.995,434.258 547.017,434.258 547.039,434.258L547.039,434.185ZM543.89,431.517C543.89,431.493 543.89,431.469 543.89,431.444L543.825,431.444C543.825,431.469 543.825,431.493 543.825,431.517L543.89,431.517ZM547.169,434.185C547.147,434.185 547.125,434.185 547.104,434.185L547.104,434.258C547.125,434.258 547.147,434.258 547.169,434.258L547.169,434.185ZM543.89,431.371C543.89,431.347 543.89,431.322 543.89,431.297L543.825,431.297C543.825,431.322 543.825,431.347 543.825,431.371L543.89,431.371ZM547.298,434.185C547.277,434.185 547.255,434.185 547.233,434.185L547.233,434.258C547.255,434.258 547.277,434.258 547.298,434.258L547.298,434.185ZM547.428,434.185C547.407,434.185 547.385,434.185 547.363,434.185L547.363,434.258C547.385,434.258 547.407,434.258 547.428,434.258L547.428,434.185ZM543.89,431.224C543.89,431.2 543.89,431.175 543.89,431.151L543.825,431.151C543.825,431.175 543.825,431.2 543.825,431.224L543.89,431.224ZM547.558,434.185C547.537,434.185 547.515,434.185 547.493,434.185L547.493,434.258C547.515,434.258 547.537,434.258 547.558,434.258L547.558,434.185ZM543.89,431.077C543.89,431.053 543.89,431.029 543.89,431.004L543.825,431.004C543.825,431.029 543.825,431.053 543.825,431.077L543.89,431.077ZM547.688,434.185C547.666,434.185 547.645,434.185 547.623,434.185L547.623,434.258C547.645,434.258 547.666,434.258 547.688,434.258L547.688,434.185ZM543.89,430.931C543.89,430.906 543.89,430.882 543.89,430.857L543.825,430.857C543.825,430.882 543.825,430.906 543.825,430.931L543.89,430.931ZM547.818,434.185C547.796,434.185 547.775,434.185 547.753,434.185L547.753,434.258C547.775,434.258 547.796,434.258 547.818,434.258L547.818,434.185ZM543.89,430.784C543.89,430.76 543.89,430.735 543.89,430.711L543.825,430.711C543.825,430.735 543.825,430.76 543.825,430.784L543.89,430.784ZM547.948,434.185C547.926,434.185 547.905,434.185 547.883,434.185L547.883,434.258C547.905,434.258 547.926,434.258 547.948,434.258L547.948,434.185ZM548.078,434.185C548.056,434.185 548.034,434.185 548.013,434.185L548.013,434.258C548.034,434.258 548.056,434.258 548.078,434.258L548.078,434.185ZM543.89,430.637C543.89,430.613 543.89,430.589 543.89,430.564L543.825,430.564C543.825,430.589 543.825,430.613 543.825,430.637L543.89,430.637ZM548.208,434.185C548.186,434.185 548.164,434.185 548.143,434.185L548.143,434.258C548.164,434.258 548.186,434.258 548.208,434.258L548.208,434.185ZM543.89,430.491C543.89,430.466 543.89,430.442 543.89,430.417L543.825,430.417C543.825,430.442 543.825,430.466 543.825,430.491L543.89,430.491ZM548.338,434.185C548.316,434.185 548.294,434.185 548.273,434.185L548.273,434.258C548.294,434.258 548.316,434.258 548.338,434.258L548.338,434.185ZM543.89,430.344C543.89,430.32 543.89,430.295 543.89,430.271L543.825,430.271C543.825,430.295 543.825,430.32 543.825,430.344L543.89,430.344ZM548.467,434.185C548.446,434.185 548.424,434.185 548.402,434.185L548.402,434.258C548.424,434.258 548.446,434.258 548.467,434.258L548.467,434.185ZM548.597,434.185C548.576,434.185 548.554,434.185 548.532,434.185L548.532,434.258C548.554,434.258 548.576,434.258 548.597,434.258L548.597,434.185ZM543.89,430.197C543.89,430.173 543.89,430.148 543.89,430.124L543.825,430.124C543.825,430.148 543.825,430.173 543.825,430.197L543.89,430.197ZM548.727,434.185C548.706,434.185 548.684,434.185 548.662,434.185L548.662,434.258C548.684,434.258 548.706,434.258 548.727,434.258L548.727,434.185ZM543.89,430.051C543.89,430.026 543.89,430.002 543.89,429.977L543.825,429.977C543.825,430.002 543.825,430.026 543.825,430.051L543.89,430.051ZM548.857,434.185C548.835,434.185 548.814,434.185 548.792,434.185L548.792,434.258C548.814,434.258 548.835,434.258 548.857,434.258L548.857,434.185ZM543.89,429.904C543.89,429.88 543.89,429.855 543.89,429.831L543.825,429.831C543.825,429.855 543.825,429.88 543.825,429.904L543.89,429.904ZM548.987,434.185C548.965,434.185 548.944,434.185 548.922,434.185L548.922,434.258C548.944,434.258 548.965,434.258 548.987,434.258L548.987,434.185ZM549.117,434.185C549.095,434.185 549.074,434.185 549.052,434.185L549.052,434.258C549.074,434.258 549.095,434.258 549.117,434.258L549.117,434.185ZM543.89,429.757C543.89,429.733 543.89,429.708 543.89,429.684L543.825,429.684C543.825,429.708 543.825,429.733 543.825,429.757L543.89,429.757ZM549.247,434.185C549.225,434.185 549.203,434.185 549.182,434.185L549.182,434.258C549.203,434.258 549.225,434.258 549.247,434.258L549.247,434.185ZM543.89,429.611C543.89,429.586 543.89,429.562 543.89,429.537L543.825,429.537C543.825,429.562 543.825,429.586 543.825,429.611L543.89,429.611ZM549.377,434.185C549.355,434.185 549.333,434.185 549.312,434.185L549.312,434.258C549.333,434.258 549.355,434.258 549.377,434.258L549.377,434.185ZM543.89,429.464C543.89,429.44 543.89,429.415 543.89,429.391L543.825,429.391C543.825,429.415 543.825,429.44 543.825,429.464L543.89,429.464ZM549.507,434.185C549.485,434.185 549.463,434.185 549.442,434.185L549.442,434.258C549.463,434.258 549.485,434.258 549.507,434.258L549.507,434.185ZM549.636,434.185C549.615,434.185 549.593,434.185 549.572,434.185L549.571,434.258C549.593,434.258 549.615,434.258 549.636,434.258L549.636,434.185ZM543.89,429.317C543.89,429.293 543.89,429.268 543.89,429.244L543.825,429.244C543.825,429.268 543.825,429.293 543.825,429.317L543.89,429.317ZM549.766,434.185C549.745,434.185 549.723,434.185 549.701,434.185L549.701,434.258C549.723,434.258 549.745,434.258 549.766,434.258L549.766,434.185ZM543.89,429.171C543.89,429.146 543.89,429.122 543.89,429.097L543.825,429.097C543.825,429.122 543.825,429.146 543.825,429.171L543.89,429.171ZM549.896,434.185C549.875,434.185 549.853,434.185 549.831,434.185L549.831,434.258C549.853,434.258 549.875,434.258 549.896,434.258L549.896,434.185ZM543.89,429.024C543.89,428.999 543.89,428.975 543.89,428.951L543.825,428.951C543.825,428.975 543.825,428.999 543.825,429.024L543.89,429.024ZM550.026,434.185C550.004,434.185 549.983,434.185 549.961,434.185L549.961,434.258C549.983,434.258 550.004,434.258 550.026,434.258L550.026,434.185ZM550.156,434.185C550.134,434.185 550.113,434.185 550.091,434.185L550.091,434.258C550.113,434.258 550.134,434.258 550.156,434.258L550.156,434.185ZM543.89,428.877C543.89,428.853 543.89,428.828 543.89,428.804L543.825,428.804C543.825,428.828 543.825,428.853 543.825,428.877L543.89,428.877ZM550.286,434.185C550.264,434.185 550.243,434.185 550.221,434.185L550.221,434.258C550.243,434.258 550.264,434.258 550.286,434.258L550.286,434.185ZM543.89,428.731C543.89,428.706 543.89,428.682 543.89,428.657L543.825,428.657C543.825,428.682 543.825,428.706 543.825,428.731L543.89,428.731ZM550.416,434.185C550.394,434.185 550.372,434.185 550.351,434.185L550.351,434.258C550.372,434.258 550.394,434.258 550.416,434.258L550.416,434.185ZM543.89,428.584C543.89,428.559 543.89,428.535 543.89,428.511L543.825,428.511C543.825,428.535 543.825,428.559 543.825,428.584L543.89,428.584ZM550.546,434.185C550.524,434.185 550.502,434.185 550.481,434.185L550.481,434.258C550.502,434.258 550.524,434.258 550.546,434.258L550.546,434.185ZM550.676,434.185C550.654,434.185 550.632,434.185 550.611,434.185L550.611,434.258C550.632,434.258 550.654,434.258 550.676,434.258L550.676,434.185ZM543.89,428.437C543.89,428.413 543.89,428.388 543.89,428.364L543.825,428.364C543.825,428.388 543.825,428.413 543.825,428.437L543.89,428.437ZM550.805,434.185C550.784,434.185 550.762,434.185 550.741,434.185L550.741,434.258C550.762,434.258 550.784,434.258 550.805,434.258L550.805,434.185ZM543.89,428.291C543.89,428.266 543.89,428.241 543.89,428.217L543.825,428.217C543.825,428.241 543.825,428.266 543.825,428.291L543.89,428.291ZM550.935,434.185C550.914,434.185 550.892,434.185 550.87,434.185L550.87,434.258C550.892,434.258 550.914,434.258 550.935,434.258L550.935,434.185ZM543.89,428.144C543.89,428.119 543.89,428.095 543.89,428.071L543.825,428.071C543.825,428.095 543.825,428.119 543.825,428.144L543.89,428.144ZM551.065,434.185C551.044,434.185 551.022,434.185 551,434.185L551,434.258C551.022,434.258 551.044,434.258 551.065,434.258L551.065,434.185ZM551.195,434.185C551.173,434.185 551.152,434.185 551.13,434.185L551.13,434.258C551.152,434.258 551.173,434.258 551.195,434.258L551.195,434.185ZM543.89,427.997C543.89,427.972 543.89,427.948 543.89,427.924L543.825,427.924C543.825,427.948 543.825,427.972 543.825,427.997L543.89,427.997ZM551.325,434.185C551.303,434.185 551.282,434.185 551.26,434.185L551.26,434.258C551.282,434.258 551.303,434.258 551.325,434.258L551.325,434.185ZM543.89,427.851C543.89,427.825 543.89,427.801 543.89,427.777L543.825,427.777C543.825,427.801 543.825,427.825 543.825,427.851L543.89,427.851ZM551.455,434.185C551.433,434.185 551.412,434.185 551.39,434.185L551.39,434.258C551.412,434.258 551.433,434.258 551.455,434.258L551.455,434.185ZM543.89,427.704C543.89,427.677 543.89,427.653 543.89,427.631L543.825,427.631C543.825,427.653 543.825,427.677 543.825,427.704L543.89,427.704ZM551.585,434.185C551.563,434.185 551.542,434.185 551.52,434.185L551.52,434.258C551.542,434.258 551.563,434.258 551.585,434.258L551.585,434.185ZM543.872,427.492L543.872,427.464C543.864,427.464 543.858,427.464 543.858,427.464C543.858,427.464 543.838,427.53 543.838,427.53C543.838,427.53 543.825,427.502 543.825,427.502C543.825,427.502 543.825,427.524 543.825,427.557L543.89,427.558C543.89,427.524 543.89,427.505 543.89,427.502C543.89,427.485 543.882,427.485 543.872,427.492ZM551.715,434.185C551.693,434.185 551.671,434.185 551.65,434.185L551.65,434.258C551.671,434.258 551.693,434.258 551.715,434.258L551.715,434.185ZM551.845,434.185C551.823,434.185 551.801,434.185 551.78,434.185L551.78,434.258C551.801,434.258 551.823,434.258 551.845,434.258L551.845,434.185ZM543.937,427.538C543.956,427.538 543.978,427.538 544.002,427.538L544.002,427.464C543.978,427.464 543.956,427.464 543.937,427.464L543.937,427.538ZM551.974,434.185C551.953,434.185 551.931,434.185 551.91,434.185L551.91,434.258C551.931,434.258 551.953,434.258 551.974,434.259L551.974,434.185ZM544.067,427.538C544.088,427.538 544.109,427.538 544.132,427.538L544.132,427.464C544.109,427.464 544.088,427.464 544.067,427.464L544.067,427.538ZM552.104,434.185C552.083,434.185 552.061,434.185 552.039,434.185L552.039,434.259C552.061,434.259 552.083,434.259 552.104,434.259L552.104,434.185ZM544.197,427.538C544.218,427.538 544.24,427.538 544.262,427.538L544.262,427.465C544.24,427.464 544.218,427.464 544.197,427.464L544.197,427.538ZM552.234,434.185C552.213,434.185 552.191,434.185 552.169,434.185L552.169,434.259C552.191,434.259 552.213,434.259 552.234,434.259L552.234,434.185ZM544.327,427.538C544.348,427.538 544.37,427.538 544.392,427.538L544.392,427.465C544.37,427.465 544.348,427.465 544.327,427.465L544.327,427.538ZM552.364,434.185C552.342,434.185 552.321,434.185 552.299,434.185L552.299,434.259C552.321,434.259 552.342,434.259 552.364,434.259L552.364,434.185ZM544.457,427.538C544.478,427.538 544.5,427.538 544.522,427.538L544.522,427.465C544.5,427.465 544.478,427.465 544.457,427.465L544.457,427.538ZM552.494,434.185C552.472,434.185 552.451,434.185 552.429,434.185L552.429,434.259C552.451,434.259 552.472,434.259 552.494,434.259L552.494,434.185ZM544.587,427.538C544.608,427.538 544.63,427.538 544.652,427.538L544.652,427.465C544.63,427.465 544.608,427.465 544.587,427.465L544.587,427.538ZM552.624,434.185C552.602,434.185 552.581,434.185 552.559,434.185L552.559,434.259C552.581,434.259 552.602,434.259 552.624,434.259L552.624,434.185ZM544.717,427.538C544.738,427.538 544.76,427.538 544.782,427.538L544.782,427.465C544.76,427.465 544.738,427.465 544.717,427.465L544.717,427.538ZM552.754,434.185C552.732,434.185 552.711,434.185 552.689,434.185L552.689,434.259C552.711,434.259 552.732,434.259 552.754,434.259L552.754,434.185ZM544.847,427.538C544.868,427.538 544.89,427.538 544.912,427.538L544.912,427.465C544.89,427.465 544.868,427.465 544.847,427.465L544.847,427.538ZM552.884,434.185C552.862,434.185 552.84,434.185 552.819,434.185L552.819,434.259C552.84,434.259 552.862,434.259 552.884,434.259L552.884,434.185ZM544.977,427.538C544.998,427.538 545.02,427.538 545.041,427.538L545.041,427.465C545.02,427.465 544.998,427.465 544.977,427.465L544.977,427.538ZM553.014,434.185C552.992,434.185 552.97,434.185 552.949,434.185L552.949,434.259C552.97,434.259 552.992,434.259 553.014,434.259L553.014,434.185ZM545.106,427.538C545.128,427.538 545.15,427.538 545.171,427.538L545.171,427.465C545.15,427.465 545.128,427.465 545.106,427.465L545.106,427.538ZM553.143,434.185C553.122,434.185 553.1,434.185 553.079,434.185L553.079,434.259C553.1,434.259 553.122,434.259 553.143,434.259L553.143,434.185ZM545.236,427.538C545.258,427.538 545.279,427.538 545.301,427.538L545.301,427.465C545.279,427.465 545.258,427.465 545.236,427.465L545.236,427.538ZM553.273,434.185C553.252,434.185 553.23,434.185 553.208,434.185L553.208,434.259C553.23,434.259 553.252,434.259 553.273,434.259L553.273,434.185ZM545.366,427.538C545.388,427.538 545.409,427.538 545.431,427.538L545.431,427.465C545.409,427.465 545.388,427.465 545.366,427.465L545.366,427.538ZM553.403,434.185C553.382,434.185 553.36,434.185 553.338,434.185L553.338,434.259C553.36,434.259 553.382,434.259 553.403,434.259L553.403,434.185ZM545.496,427.538C545.518,427.538 545.539,427.538 545.561,427.538L545.561,427.465C545.539,427.465 545.518,427.465 545.496,427.465L545.496,427.538ZM553.533,434.185C553.512,434.185 553.49,434.185 553.468,434.185L553.468,434.259C553.49,434.259 553.512,434.259 553.533,434.259L553.533,434.185ZM545.626,427.538C545.647,427.538 545.669,427.538 545.691,427.538L545.691,427.465C545.669,427.465 545.647,427.465 545.626,427.465L545.626,427.538ZM553.663,434.185C553.641,434.185 553.62,434.185 553.598,434.185L553.598,434.259C553.62,434.259 553.641,434.259 553.663,434.259L553.663,434.185ZM545.756,427.538C545.777,427.538 545.799,427.538 545.821,427.538L545.821,427.465C545.799,427.465 545.777,427.465 545.756,427.465L545.756,427.538ZM553.793,434.185C553.771,434.185 553.75,434.185 553.728,434.185L553.728,434.259C553.75,434.259 553.771,434.259 553.793,434.259L553.793,434.185ZM545.886,427.538C545.907,427.538 545.929,427.538 545.951,427.538L545.951,427.465C545.929,427.465 545.907,427.465 545.886,427.465L545.886,427.538ZM553.923,434.185C553.901,434.185 553.88,434.185 553.858,434.185L553.858,434.259C553.88,434.259 553.901,434.259 553.923,434.259L553.923,434.185ZM546.016,427.538C546.037,427.538 546.059,427.538 546.081,427.538L546.081,427.465C546.059,427.465 546.037,427.465 546.016,427.465L546.016,427.538ZM554.053,434.185C554.031,434.185 554.01,434.185 553.988,434.185L553.988,434.259C554.01,434.259 554.031,434.259 554.053,434.259L554.053,434.185ZM546.146,427.538C546.167,427.538 546.189,427.538 546.211,427.538L546.211,427.465C546.189,427.465 546.167,427.465 546.146,427.465L546.146,427.538ZM554.183,434.185C554.161,434.185 554.139,434.185 554.118,434.185L554.118,434.259C554.139,434.259 554.161,434.259 554.183,434.259L554.183,434.185ZM546.275,427.538C546.297,427.538 546.319,427.538 546.34,427.538L546.34,427.465C546.319,427.465 546.297,427.465 546.275,427.465L546.275,427.538ZM554.313,434.185C554.291,434.185 554.269,434.185 554.248,434.185L554.248,434.259C554.269,434.259 554.291,434.259 554.313,434.259L554.313,434.185ZM546.405,427.538C546.427,427.538 546.449,427.538 546.47,427.538L546.47,427.465C546.449,427.465 546.427,427.465 546.405,427.465L546.405,427.538ZM554.442,434.185C554.421,434.185 554.399,434.185 554.378,434.185L554.378,434.259C554.399,434.259 554.421,434.259 554.442,434.259L554.442,434.185ZM546.535,427.538C546.557,427.538 546.578,427.538 546.6,427.538L546.6,427.465C546.578,427.465 546.557,427.465 546.535,427.465L546.535,427.538ZM554.572,434.185C554.551,434.185 554.529,434.185 554.507,434.185L554.507,434.259C554.529,434.259 554.551,434.259 554.572,434.259L554.572,434.185ZM546.665,427.538C546.687,427.538 546.708,427.538 546.73,427.538L546.73,427.465C546.708,427.465 546.687,427.465 546.665,427.465L546.665,427.538ZM554.702,434.185C554.681,434.185 554.659,434.185 554.637,434.185L554.637,434.259C554.659,434.259 554.681,434.259 554.702,434.259L554.702,434.185ZM546.795,427.538C546.817,427.538 546.838,427.538 546.86,427.538L546.86,427.465C546.838,427.465 546.817,427.465 546.795,427.465L546.795,427.538ZM554.832,434.185C554.811,434.185 554.789,434.185 554.767,434.185L554.767,434.259C554.789,434.259 554.811,434.259 554.832,434.259L554.832,434.185ZM546.925,427.538C546.946,427.538 546.968,427.538 546.99,427.538L546.99,427.465C546.968,427.465 546.946,427.465 546.925,427.465L546.925,427.538ZM554.962,434.185C554.94,434.185 554.919,434.185 554.897,434.185L554.897,434.259C554.919,434.259 554.94,434.259 554.962,434.259L554.962,434.185ZM547.055,427.538C547.076,427.538 547.098,427.538 547.12,427.538L547.12,427.465C547.098,427.465 547.076,427.465 547.055,427.465L547.055,427.538ZM555.092,434.185C555.07,434.185 555.049,434.185 555.027,434.185L555.027,434.259C555.049,434.259 555.07,434.259 555.092,434.259L555.092,434.185ZM547.185,427.538C547.206,427.538 547.228,427.538 547.25,427.538L547.25,427.465C547.228,427.465 547.206,427.465 547.185,427.465L547.185,427.538ZM555.222,434.185C555.2,434.185 555.179,434.185 555.157,434.185L555.157,434.259C555.179,434.259 555.2,434.259 555.222,434.259L555.222,434.185ZM547.315,427.538C547.336,427.538 547.358,427.538 547.38,427.538L547.38,427.465C547.358,427.465 547.336,427.465 547.315,427.465L547.315,427.538ZM555.352,434.185C555.33,434.185 555.309,434.185 555.287,434.185L555.287,434.259C555.309,434.259 555.33,434.259 555.352,434.259L555.352,434.185ZM547.444,427.538C547.466,427.538 547.488,427.538 547.509,427.538L547.509,427.465C547.488,427.465 547.466,427.465 547.444,427.465L547.444,427.538ZM555.482,434.185C555.46,434.185 555.438,434.185 555.417,434.185L555.417,434.259C555.438,434.259 555.46,434.259 555.482,434.259L555.482,434.185ZM547.574,427.538C547.596,427.538 547.618,427.538 547.639,427.538L547.639,427.465C547.618,427.465 547.596,427.465 547.574,427.465L547.574,427.538ZM555.612,434.185C555.59,434.185 555.568,434.185 555.547,434.185L555.547,434.259C555.568,434.259 555.59,434.259 555.612,434.259L555.612,434.185ZM547.704,427.538C547.726,427.538 547.747,427.538 547.769,427.538L547.769,427.465C547.747,427.465 547.726,427.465 547.704,427.465L547.704,427.538ZM555.742,434.185C555.72,434.185 555.698,434.185 555.677,434.185L555.677,434.259C555.698,434.259 555.72,434.259 555.742,434.259L555.742,434.185ZM547.834,427.538C547.856,427.538 547.877,427.538 547.899,427.538L547.899,427.465C547.877,427.465 547.856,427.465 547.834,427.465L547.834,427.538ZM555.871,434.185C555.85,434.185 555.828,434.185 555.806,434.185L555.806,434.259C555.828,434.259 555.85,434.259 555.871,434.259L555.871,434.185ZM547.964,427.538C547.986,427.538 548.007,427.538 548.029,427.538L548.029,427.465C548.007,427.465 547.986,427.465 547.964,427.465L547.964,427.538ZM556.001,434.185C555.98,434.185 555.958,434.185 555.936,434.185L555.936,434.259C555.958,434.259 555.98,434.259 556.001,434.259L556.001,434.185ZM548.094,427.538C548.116,427.538 548.137,427.538 548.159,427.538L548.159,427.465C548.137,427.465 548.116,427.465 548.094,427.465L548.094,427.538ZM548.224,427.538C548.245,427.538 548.267,427.538 548.289,427.538L548.289,427.465C548.267,427.465 548.245,427.465 548.224,427.465L548.224,427.538ZM556.131,434.185C556.11,434.185 556.088,434.185 556.066,434.185L556.066,434.259C556.088,434.259 556.11,434.259 556.131,434.259L556.131,434.185ZM556.261,434.185C556.24,434.185 556.218,434.185 556.196,434.185L556.196,434.259C556.218,434.259 556.24,434.259 556.261,434.259L556.261,434.185ZM548.354,427.538C548.375,427.538 548.397,427.538 548.419,427.538L548.419,427.465C548.397,427.465 548.375,427.465 548.354,427.465L548.354,427.538ZM556.391,434.185C556.369,434.185 556.348,434.185 556.326,434.185L556.326,434.259C556.348,434.259 556.369,434.259 556.391,434.259L556.391,434.185ZM548.484,427.538C548.505,427.538 548.527,427.538 548.549,427.538L548.549,427.465C548.527,427.465 548.505,427.465 548.484,427.465L548.484,427.538ZM556.521,434.185C556.499,434.185 556.478,434.185 556.456,434.185L556.456,434.259C556.478,434.259 556.499,434.259 556.521,434.259L556.521,434.185ZM548.613,427.538C548.635,427.538 548.657,427.538 548.678,427.538L548.678,427.465C548.657,427.465 548.635,427.465 548.614,427.465L548.613,427.538ZM556.651,434.185C556.629,434.185 556.608,434.185 556.586,434.185L556.586,434.259C556.608,434.259 556.629,434.259 556.651,434.259L556.651,434.185ZM548.743,427.538C548.765,427.538 548.787,427.538 548.808,427.538L548.808,427.465C548.787,427.465 548.765,427.465 548.743,427.465L548.743,427.538ZM556.781,434.185C556.759,434.185 556.737,434.185 556.716,434.185L556.716,434.259C556.737,434.259 556.759,434.259 556.781,434.259L556.781,434.185ZM548.873,427.538C548.895,427.538 548.917,427.538 548.938,427.538L548.938,427.465C548.917,427.465 548.895,427.465 548.873,427.465L548.873,427.538ZM556.911,434.185C556.889,434.185 556.867,434.185 556.846,434.185L556.846,434.259C556.867,434.259 556.889,434.259 556.911,434.259L556.911,434.185ZM549.003,427.538C549.025,427.538 549.046,427.538 549.068,427.538L549.068,427.465C549.046,427.465 549.025,427.465 549.003,427.465L549.003,427.538ZM557.04,434.185C557.019,434.185 556.997,434.185 556.976,434.185L556.975,434.259C556.997,434.259 557.019,434.259 557.04,434.259L557.04,434.185ZM549.133,427.538C549.155,427.538 549.176,427.538 549.198,427.538L549.198,427.465C549.176,427.465 549.155,427.465 549.133,427.465L549.133,427.538ZM557.17,434.185C557.149,434.185 557.127,434.185 557.105,434.185L557.105,434.259C557.127,434.259 557.149,434.259 557.17,434.259L557.17,434.185ZM549.263,427.538C549.285,427.538 549.306,427.538 549.328,427.538L549.328,427.465C549.306,427.465 549.285,427.465 549.263,427.465L549.263,427.538ZM557.3,434.185C557.279,434.185 557.257,434.185 557.235,434.185L557.235,434.259C557.257,434.259 557.279,434.259 557.3,434.259L557.3,434.185ZM549.393,427.538C549.414,427.538 549.436,427.538 549.458,427.538L549.458,427.465C549.436,427.465 549.414,427.465 549.393,427.465L549.393,427.538ZM557.43,434.185C557.409,434.185 557.387,434.185 557.365,434.185L557.365,434.259C557.387,434.259 557.409,434.259 557.43,434.259L557.43,434.185ZM549.523,427.538C549.544,427.538 549.566,427.538 549.588,427.538L549.588,427.465C549.566,427.465 549.544,427.465 549.523,427.465L549.523,427.538ZM557.56,434.185C557.538,434.185 557.517,434.185 557.495,434.185L557.495,434.259C557.517,434.259 557.538,434.259 557.56,434.259L557.56,434.185ZM549.653,427.538C549.674,427.538 549.696,427.538 549.718,427.538L549.718,427.465C549.696,427.465 549.674,427.465 549.653,427.465L549.653,427.538ZM557.69,434.185C557.668,434.185 557.647,434.185 557.625,434.185L557.625,434.259C557.647,434.259 557.668,434.259 557.69,434.259L557.69,434.185ZM549.783,427.538C549.804,427.538 549.826,427.538 549.847,427.538L549.847,427.465C549.826,427.465 549.804,427.465 549.783,427.465L549.783,427.538ZM557.82,434.185C557.798,434.185 557.777,434.185 557.755,434.185L557.755,434.259C557.777,434.259 557.798,434.259 557.82,434.259L557.82,434.185ZM549.912,427.538C549.934,427.538 549.956,427.538 549.977,427.538L549.977,427.465C549.956,427.465 549.934,427.465 549.912,427.465L549.912,427.538ZM557.95,434.185C557.928,434.185 557.906,434.185 557.885,434.185L557.885,434.259C557.906,434.259 557.928,434.259 557.95,434.259L557.95,434.185ZM550.042,427.538C550.064,427.538 550.086,427.538 550.107,427.538L550.107,427.465C550.086,427.465 550.064,427.465 550.042,427.465L550.042,427.538ZM558.08,434.185C558.058,434.185 558.036,434.185 558.015,434.185L558.015,434.259C558.036,434.259 558.058,434.259 558.08,434.259L558.08,434.185ZM550.172,427.538C550.194,427.538 550.216,427.538 550.237,427.538L550.237,427.465C550.216,427.465 550.194,427.465 550.172,427.465L550.172,427.538ZM558.209,434.185C558.188,434.185 558.166,434.185 558.145,434.185L558.145,434.259C558.166,434.259 558.188,434.259 558.209,434.259L558.209,434.185ZM550.302,427.538C550.324,427.538 550.345,427.538 550.367,427.538L550.367,427.465C550.345,427.465 550.324,427.465 550.302,427.465L550.302,427.538ZM558.339,434.185C558.318,434.185 558.296,434.185 558.274,434.185L558.274,434.259C558.296,434.259 558.318,434.259 558.339,434.259L558.339,434.185ZM550.432,427.538C550.454,427.538 550.475,427.538 550.497,427.538L550.497,427.465C550.475,427.465 550.454,427.465 550.432,427.465L550.432,427.538ZM558.469,434.185C558.448,434.185 558.426,434.185 558.404,434.185L558.404,434.259C558.426,434.259 558.448,434.259 558.469,434.259L558.469,434.185ZM550.562,427.538C550.584,427.538 550.605,427.538 550.627,427.538L550.627,427.465C550.605,427.465 550.584,427.465 550.562,427.465L550.562,427.538ZM558.599,434.185C558.578,434.185 558.556,434.185 558.534,434.185L558.534,434.259C558.556,434.259 558.578,434.259 558.599,434.259L558.599,434.185ZM550.692,427.538C550.713,427.538 550.735,427.538 550.757,427.538L550.757,427.465C550.735,427.465 550.713,427.465 550.692,427.465L550.692,427.538ZM558.729,434.185C558.707,434.185 558.686,434.185 558.664,434.185L558.664,434.259C558.686,434.259 558.707,434.259 558.729,434.259L558.729,434.185ZM550.822,427.538C550.843,427.538 550.865,427.538 550.887,427.538L550.887,427.465C550.865,427.465 550.843,427.465 550.822,427.465L550.822,427.538ZM558.859,434.185C558.837,434.185 558.816,434.185 558.794,434.185L558.794,434.259C558.816,434.259 558.837,434.259 558.859,434.259L558.859,434.185ZM550.952,427.538C550.973,427.538 550.995,427.538 551.017,427.538L551.017,427.465C550.995,427.465 550.973,427.465 550.952,427.465L550.952,427.538ZM558.989,434.185C558.967,434.185 558.946,434.185 558.924,434.185L558.924,434.259C558.946,434.259 558.967,434.259 558.989,434.259L558.989,434.185ZM551.081,427.538C551.103,427.538 551.125,427.538 551.146,427.538L551.146,427.465C551.125,427.465 551.103,427.465 551.081,427.465L551.081,427.538ZM559.119,434.185C559.097,434.185 559.075,434.185 559.054,434.185L559.054,434.259C559.075,434.259 559.097,434.259 559.119,434.259L559.119,434.185ZM551.211,427.538C551.233,427.538 551.255,427.538 551.276,427.538L551.276,427.465C551.255,427.465 551.233,427.465 551.211,427.465L551.211,427.538ZM559.249,434.185C559.227,434.185 559.205,434.185 559.184,434.185L559.184,434.259C559.205,434.259 559.227,434.259 559.249,434.259L559.249,434.185ZM551.341,427.538C551.363,427.538 551.385,427.538 551.406,427.538L551.406,427.465C551.385,427.465 551.363,427.465 551.341,427.465L551.341,427.538ZM559.378,434.185C559.357,434.185 559.335,434.185 559.313,434.185L559.313,434.259C559.335,434.259 559.357,434.259 559.378,434.259L559.378,434.185ZM551.471,427.538C551.493,427.538 551.514,427.538 551.536,427.538L551.536,427.465C551.514,427.465 551.493,427.465 551.471,427.465L551.471,427.538ZM559.508,434.185C559.487,434.185 559.465,434.185 559.443,434.185L559.443,434.259C559.465,434.259 559.487,434.259 559.508,434.259L559.508,434.185ZM551.601,427.538C551.623,427.538 551.644,427.538 551.666,427.538L551.666,427.465C551.644,427.465 551.623,427.465 551.601,427.465L551.601,427.538ZM559.638,434.185C559.617,434.185 559.595,434.185 559.573,434.185L559.573,434.259C559.595,434.259 559.617,434.259 559.638,434.259L559.638,434.185ZM551.731,427.538C551.753,427.538 551.774,427.538 551.796,427.538L551.796,427.465C551.774,427.465 551.753,427.465 551.731,427.465L551.731,427.538ZM557.136,432.141C557.148,432.141 557.17,432.141 557.201,432.141L557.201,432.068C557.17,432.068 557.148,432.068 557.136,432.068L557.136,432.141ZM557.094,431.969C557.094,431.998 557.094,432.022 557.094,432.042L557.159,432.042C557.159,432.022 557.159,431.998 557.159,431.969L557.094,431.969ZM559.768,434.185C559.747,434.185 559.725,434.185 559.703,434.185L559.703,434.259C559.725,434.259 559.747,434.259 559.768,434.259L559.768,434.185ZM551.861,427.538C551.882,427.538 551.904,427.538 551.926,427.538L551.926,427.465C551.904,427.465 551.882,427.465 551.861,427.465L551.861,427.538ZM557.266,432.141C557.286,432.141 557.308,432.141 557.331,432.141L557.331,432.068C557.308,432.068 557.286,432.068 557.266,432.068L557.266,432.141ZM559.898,434.185C559.877,434.185 559.855,434.185 559.833,434.185L559.833,434.259C559.855,434.259 559.877,434.259 559.898,434.259L559.898,434.185ZM551.991,427.538C552.012,427.538 552.034,427.538 552.056,427.538L552.056,427.465C552.034,427.465 552.012,427.465 551.991,427.465L551.991,427.538ZM557.094,431.822C557.094,431.849 557.094,431.873 557.094,431.896L557.159,431.896C557.159,431.873 557.159,431.849 557.159,431.822L557.094,431.822ZM557.396,432.141C557.417,432.141 557.438,432.141 557.461,432.141L557.461,432.068C557.438,432.068 557.417,432.068 557.396,432.068L557.396,432.141ZM560.028,434.186C560.006,434.186 559.985,434.185 559.963,434.185L559.963,434.259C559.985,434.259 560.006,434.259 560.028,434.259L560.028,434.186ZM552.121,427.538C552.142,427.538 552.164,427.538 552.186,427.538L552.186,427.465C552.164,427.465 552.142,427.465 552.121,427.465L552.121,427.538ZM557.526,432.141C557.547,432.141 557.569,432.141 557.591,432.141L557.591,432.068C557.569,432.068 557.547,432.068 557.526,432.068L557.526,432.141ZM557.094,431.676C557.094,431.701 557.094,431.726 557.094,431.749L557.159,431.749C557.159,431.726 557.159,431.701 557.159,431.676L557.094,431.676ZM560.158,434.186C560.136,434.186 560.115,434.186 560.093,434.186L560.093,434.259C560.115,434.259 560.136,434.259 560.158,434.259L560.158,434.186ZM552.251,427.538C552.272,427.538 552.294,427.538 552.315,427.538L552.315,427.465C552.294,427.465 552.272,427.465 552.251,427.465L552.251,427.538ZM557.656,432.141C557.677,432.141 557.699,432.141 557.721,432.141L557.721,432.068C557.699,432.068 557.677,432.068 557.656,432.068L557.656,432.141ZM557.094,431.529C557.094,431.554 557.094,431.579 557.094,431.602L557.159,431.602C557.159,431.579 557.159,431.554 557.159,431.529L557.094,431.529ZM560.288,434.186C560.266,434.186 560.245,434.186 560.223,434.186L560.223,434.259C560.245,434.259 560.266,434.259 560.288,434.259L560.288,434.186ZM552.38,427.538C552.402,427.538 552.424,427.538 552.445,427.538L552.445,427.465C552.424,427.465 552.402,427.465 552.38,427.465L552.38,427.538ZM557.786,432.141C557.807,432.141 557.829,432.141 557.851,432.141L557.851,432.068C557.829,432.068 557.807,432.068 557.786,432.068L557.786,432.141ZM560.418,434.186C560.396,434.186 560.375,434.186 560.353,434.186L560.353,434.259C560.375,434.259 560.396,434.259 560.418,434.259L560.418,434.186ZM552.51,427.538C552.532,427.538 552.554,427.538 552.575,427.538L552.575,427.465C552.554,427.465 552.532,427.465 552.51,427.465L552.51,427.538ZM557.094,431.383C557.094,431.407 557.094,431.432 557.094,431.456L557.159,431.456C557.159,431.432 557.159,431.407 557.159,431.383L557.094,431.383ZM557.916,432.141C557.937,432.141 557.959,432.141 557.981,432.141L557.981,432.068C557.959,432.068 557.937,432.068 557.916,432.068L557.916,432.141ZM560.548,434.186C560.526,434.186 560.505,434.186 560.483,434.186L560.483,434.259C560.505,434.259 560.526,434.259 560.548,434.259L560.548,434.186ZM552.64,427.538C552.662,427.538 552.684,427.538 552.705,427.538L552.705,427.465C552.684,427.465 552.662,427.465 552.64,427.465L552.64,427.538ZM558.046,432.141C558.067,432.141 558.089,432.141 558.111,432.141L558.111,432.068C558.089,432.068 558.067,432.068 558.046,432.068L558.046,432.141ZM557.094,431.236C557.094,431.261 557.094,431.285 557.094,431.309L557.159,431.309C557.159,431.285 557.159,431.261 557.159,431.236L557.094,431.236ZM560.677,434.186C560.656,434.186 560.634,434.186 560.613,434.186L560.613,434.259C560.634,434.259 560.656,434.259 560.677,434.259L560.677,434.186ZM552.77,427.538C552.792,427.538 552.813,427.538 552.835,427.538L552.835,427.465C552.813,427.465 552.792,427.465 552.77,427.465L552.77,427.538ZM558.175,432.141C558.197,432.141 558.219,432.141 558.24,432.141L558.24,432.068C558.219,432.068 558.197,432.068 558.175,432.068L558.175,432.141ZM557.094,431.089C557.094,431.114 557.094,431.138 557.094,431.163L557.159,431.163C557.159,431.138 557.159,431.114 557.159,431.089L557.094,431.089ZM560.807,434.186C560.786,434.186 560.764,434.186 560.742,434.186L560.742,434.259C560.764,434.259 560.786,434.259 560.807,434.259L560.807,434.186ZM552.9,427.538C552.922,427.538 552.943,427.538 552.965,427.538L552.965,427.465C552.943,427.465 552.922,427.465 552.9,427.465L552.9,427.538ZM558.305,432.141C558.327,432.141 558.348,432.141 558.37,432.141L558.37,432.068C558.348,432.068 558.327,432.068 558.305,432.068L558.305,432.141ZM560.937,434.186C560.916,434.186 560.894,434.186 560.872,434.186L560.872,434.259C560.894,434.259 560.916,434.259 560.937,434.259L560.937,434.186ZM553.03,427.538C553.052,427.538 553.073,427.538 553.095,427.538L553.095,427.465C553.073,427.465 553.052,427.465 553.03,427.465L553.03,427.538ZM557.094,430.943C557.094,430.967 557.094,430.992 557.094,431.016L557.159,431.016C557.159,430.992 557.159,430.967 557.159,430.943L557.094,430.943ZM558.435,432.141C558.457,432.141 558.478,432.141 558.5,432.141L558.5,432.068C558.478,432.068 558.457,432.068 558.435,432.068L558.435,432.141ZM553.16,427.538C553.181,427.538 553.203,427.538 553.225,427.538L553.225,427.465C553.203,427.465 553.181,427.465 553.16,427.465L553.16,427.538ZM561.067,434.186C561.046,434.186 561.024,434.186 561.002,434.186L561.002,434.259C561.024,434.259 561.046,434.259 561.067,434.259L561.067,434.186ZM558.565,432.141C558.587,432.141 558.608,432.141 558.63,432.141L558.63,432.068C558.608,432.068 558.587,432.068 558.565,432.068L558.565,432.141ZM557.094,430.796C557.094,430.821 557.094,430.845 557.094,430.869L557.159,430.869C557.159,430.845 557.159,430.821 557.159,430.796L557.094,430.796ZM553.29,427.538C553.311,427.538 553.333,427.538 553.355,427.538L553.355,427.465C553.333,427.465 553.311,427.465 553.29,427.465L553.29,427.538ZM561.197,434.186C561.176,434.186 561.154,434.186 561.132,434.186L561.132,434.259C561.154,434.259 561.176,434.259 561.197,434.259L561.197,434.186ZM558.695,432.141C558.717,432.141 558.738,432.141 558.76,432.141L558.76,432.068C558.738,432.068 558.717,432.068 558.695,432.068L558.695,432.141ZM557.094,430.649C557.094,430.674 557.094,430.698 557.094,430.723L557.159,430.723C557.159,430.698 557.159,430.674 557.159,430.649L557.094,430.649ZM553.42,427.538C553.441,427.538 553.463,427.538 553.484,427.538L553.484,427.465C553.463,427.465 553.441,427.465 553.42,427.465L553.42,427.538ZM561.327,434.186C561.306,434.186 561.284,434.186 561.262,434.186L561.262,434.259C561.284,434.259 561.306,434.259 561.327,434.259L561.327,434.186ZM558.825,432.141C558.846,432.141 558.868,432.141 558.89,432.141L558.89,432.068C558.868,432.068 558.846,432.068 558.825,432.068L558.825,432.141ZM557.094,430.503C557.094,430.527 557.094,430.552 557.094,430.576L557.159,430.576C557.159,430.552 557.159,430.527 557.159,430.503L557.094,430.503ZM561.457,434.186C561.436,434.186 561.414,434.186 561.392,434.186L561.392,434.259C561.414,434.259 561.436,434.259 561.457,434.259L561.457,434.186ZM553.549,427.538C553.571,427.538 553.593,427.538 553.614,427.538L553.614,427.465C553.593,427.465 553.571,427.465 553.549,427.465L553.549,427.538ZM558.955,432.141C558.976,432.141 558.998,432.141 559.02,432.141L559.02,432.068C558.998,432.068 558.976,432.068 558.955,432.068L558.955,432.141ZM561.587,434.186C561.566,434.186 561.545,434.186 561.522,434.186L561.522,434.259C561.545,434.259 561.566,434.259 561.587,434.259L561.587,434.186ZM553.679,427.538C553.701,427.538 553.723,427.538 553.744,427.538L553.744,427.465C553.723,427.465 553.701,427.465 553.679,427.465L553.679,427.538ZM559.085,432.141C559.106,432.141 559.128,432.141 559.15,432.141L559.15,432.068C559.128,432.068 559.106,432.068 559.085,432.068L559.085,432.141ZM557.094,430.356C557.094,430.38 557.094,430.405 557.094,430.429L557.159,430.429C557.159,430.405 557.159,430.38 557.159,430.356L557.094,430.356ZM561.717,434.186C561.697,434.186 561.675,434.186 561.652,434.186L561.652,434.259C561.675,434.259 561.697,434.259 561.717,434.259L561.717,434.186ZM553.809,427.538C553.831,427.538 553.853,427.538 553.874,427.538L553.874,427.465C553.853,427.465 553.831,427.465 553.809,427.465L553.809,427.538ZM559.215,432.141C559.236,432.141 559.258,432.141 559.28,432.141L559.28,432.068C559.258,432.068 559.236,432.068 559.215,432.068L559.215,432.141ZM557.094,430.209C557.094,430.234 557.094,430.258 557.094,430.283L557.159,430.283C557.159,430.258 557.159,430.234 557.159,430.209L557.094,430.209ZM561.847,434.186C561.832,434.186 561.811,434.186 561.782,434.186L561.782,434.259C561.811,434.259 561.832,434.259 561.847,434.259L561.847,434.186ZM553.939,427.538C553.961,427.538 553.982,427.538 554.004,427.538L554.004,427.465C553.982,427.465 553.961,427.465 553.939,427.465L553.939,427.538ZM559.344,432.141C559.366,432.141 559.388,432.141 559.409,432.141L559.409,432.068C559.388,432.068 559.366,432.068 559.344,432.068L559.344,432.141ZM557.094,430.063C557.094,430.087 557.094,430.112 557.094,430.136L557.159,430.136C557.159,430.112 557.159,430.087 557.159,430.063L557.094,430.063ZM554.069,427.538C554.091,427.538 554.112,427.538 554.134,427.538L554.134,427.465C554.112,427.465 554.091,427.465 554.069,427.465L554.069,427.538ZM561.833,434.097C561.833,434.127 561.833,434.151 561.833,434.171L561.898,434.171C561.898,434.151 561.898,434.127 561.898,434.097L561.833,434.097ZM559.474,432.141C559.496,432.141 559.518,432.141 559.539,432.141L559.539,432.068C559.518,432.068 559.496,432.068 559.474,432.068L559.474,432.141ZM554.199,427.538C554.221,427.538 554.242,427.538 554.264,427.538L554.264,427.465C554.242,427.465 554.221,427.465 554.199,427.465L554.199,427.538ZM559.604,432.141C559.626,432.141 559.648,432.141 559.669,432.141L559.669,432.068C559.648,432.068 559.626,432.068 559.604,432.068L559.604,432.141ZM557.094,429.916C557.094,429.94 557.094,429.965 557.094,429.989L557.159,429.989C557.159,429.965 557.159,429.94 557.159,429.916L557.094,429.916ZM561.833,433.951C561.833,433.977 561.833,434.001 561.833,434.024L561.898,434.024C561.898,434.001 561.898,433.977 561.898,433.951L561.833,433.951ZM554.329,427.538C554.351,427.538 554.372,427.538 554.394,427.538L554.394,427.465C554.372,427.465 554.351,427.465 554.329,427.465L554.329,427.538ZM559.734,432.141C559.756,432.141 559.777,432.141 559.799,432.141L559.799,432.068C559.777,432.068 559.756,432.068 559.734,432.068L559.734,432.141ZM557.094,429.769C557.094,429.794 557.094,429.818 557.094,429.843L557.159,429.843C557.159,429.818 557.159,429.794 557.159,429.769L557.094,429.769ZM561.833,433.804C561.833,433.829 561.833,433.854 561.833,433.877L561.898,433.877C561.898,433.854 561.898,433.829 561.898,433.804L561.833,433.804ZM554.459,427.538C554.48,427.538 554.502,427.538 554.524,427.538L554.524,427.465C554.502,427.465 554.48,427.465 554.459,427.465L554.459,427.538ZM559.864,432.141C559.886,432.141 559.907,432.141 559.929,432.141L559.929,432.068C559.907,432.068 559.886,432.068 559.864,432.068L559.864,432.141ZM557.094,429.623C557.094,429.647 557.094,429.672 557.094,429.696L557.159,429.696C557.159,429.672 557.159,429.647 557.159,429.623L557.094,429.623ZM554.589,427.538C554.61,427.538 554.632,427.538 554.654,427.538L554.654,427.465C554.632,427.465 554.61,427.465 554.589,427.465L554.589,427.538ZM561.833,433.657C561.833,433.682 561.833,433.707 561.833,433.731L561.898,433.731C561.898,433.707 561.898,433.682 561.898,433.657L561.833,433.657ZM559.994,432.141C560.016,432.141 560.037,432.141 560.059,432.141L560.059,432.068C560.037,432.068 560.016,432.068 559.994,432.068L559.994,432.141ZM554.718,427.538C554.74,427.538 554.762,427.538 554.783,427.538L554.783,427.465C554.762,427.465 554.74,427.465 554.718,427.465L554.718,427.538ZM557.094,429.476C557.094,429.5 557.094,429.525 557.094,429.549L557.159,429.549C557.159,429.525 557.159,429.5 557.159,429.476L557.094,429.476ZM560.124,432.141C560.146,432.141 560.167,432.141 560.189,432.141L560.189,432.068C560.167,432.068 560.146,432.068 560.124,432.068L560.124,432.141ZM561.833,433.511C561.833,433.536 561.833,433.56 561.833,433.584L561.898,433.584C561.898,433.56 561.898,433.536 561.898,433.511L561.833,433.511ZM554.848,427.538C554.87,427.538 554.892,427.538 554.913,427.538L554.913,427.465C554.892,427.465 554.87,427.465 554.848,427.465L554.848,427.538ZM560.254,432.141C560.275,432.141 560.297,432.141 560.319,432.141L560.319,432.068C560.297,432.068 560.275,432.068 560.254,432.068L560.254,432.141ZM557.094,429.329C557.094,429.354 557.094,429.378 557.094,429.403L557.159,429.403C557.159,429.378 557.159,429.354 557.159,429.329L557.094,429.329ZM561.833,433.364C561.833,433.389 561.833,433.413 561.833,433.437L561.898,433.437C561.898,433.413 561.898,433.389 561.898,433.364L561.833,433.364ZM554.978,427.538C555,427.538 555.022,427.538 555.043,427.538L555.043,427.465C555.022,427.465 555,427.465 554.978,427.465L554.978,427.538ZM560.384,432.141C560.405,432.141 560.427,432.141 560.449,432.141L560.449,432.068C560.427,432.068 560.405,432.068 560.384,432.068L560.384,432.141ZM557.094,429.183C557.094,429.207 557.094,429.231 557.094,429.256L557.159,429.256C557.159,429.231 557.159,429.207 557.159,429.183L557.094,429.183ZM555.108,427.538C555.13,427.538 555.152,427.538 555.173,427.538L555.173,427.465C555.152,427.465 555.13,427.465 555.108,427.465L555.108,427.538ZM561.833,433.217C561.833,433.242 561.833,433.266 561.833,433.291L561.898,433.291C561.898,433.266 561.898,433.242 561.898,433.217L561.833,433.217ZM560.514,432.141C560.535,432.141 560.557,432.141 560.578,432.141L560.578,432.068C560.557,432.068 560.535,432.068 560.514,432.068L560.514,432.141ZM555.238,427.538C555.26,427.538 555.281,427.538 555.303,427.538L555.303,427.465C555.281,427.465 555.26,427.465 555.238,427.465L555.238,427.538ZM557.094,429.036C557.094,429.06 557.094,429.085 557.094,429.109L557.159,429.109C557.159,429.085 557.159,429.06 557.159,429.036L557.094,429.036ZM560.643,432.141C560.665,432.141 560.687,432.141 560.708,432.141L560.708,432.068C560.687,432.068 560.665,432.068 560.643,432.068L560.643,432.141ZM561.833,433.071C561.833,433.095 561.833,433.12 561.833,433.144L561.898,433.144C561.898,433.12 561.898,433.095 561.898,433.071L561.833,433.071ZM555.368,427.538C555.39,427.538 555.411,427.538 555.433,427.538L555.433,427.465C555.411,427.465 555.39,427.465 555.368,427.465L555.368,427.538ZM560.773,432.141C560.795,432.141 560.817,432.141 560.838,432.141L560.838,432.068C560.817,432.068 560.795,432.068 560.773,432.068L560.773,432.141ZM557.094,428.889C557.094,428.914 557.094,428.938 557.094,428.963L557.159,428.963C557.159,428.938 557.159,428.914 557.159,428.889L557.094,428.889ZM561.833,432.924C561.833,432.948 561.833,432.973 561.833,432.997L561.898,432.997C561.898,432.973 561.898,432.948 561.898,432.924L561.833,432.924ZM555.498,427.538C555.52,427.538 555.541,427.538 555.563,427.538L555.563,427.465C555.541,427.465 555.52,427.465 555.498,427.465L555.498,427.538ZM560.903,432.141C560.925,432.141 560.947,432.141 560.968,432.141L560.968,432.068C560.947,432.068 560.925,432.068 560.903,432.068L560.903,432.141ZM557.094,428.743C557.094,428.767 557.094,428.791 557.094,428.816L557.159,428.816C557.159,428.791 557.159,428.767 557.159,428.743L557.094,428.743ZM555.628,427.538C555.65,427.538 555.671,427.538 555.693,427.538L555.693,427.465C555.671,427.465 555.65,427.465 555.628,427.465L555.628,427.538ZM561.833,432.777C561.833,432.802 561.833,432.826 561.833,432.851L561.898,432.851C561.898,432.826 561.898,432.802 561.898,432.777L561.833,432.777ZM561.033,432.141C561.055,432.141 561.077,432.141 561.098,432.141L561.098,432.068C561.077,432.068 561.055,432.068 561.033,432.068L561.033,432.141ZM555.758,427.538C555.779,427.538 555.801,427.538 555.823,427.538L555.823,427.465C555.801,427.465 555.779,427.465 555.758,427.465L555.758,427.538ZM557.094,428.596C557.094,428.62 557.094,428.645 557.094,428.669L557.159,428.669C557.159,428.645 557.159,428.62 557.159,428.596L557.094,428.596ZM561.163,432.141C561.185,432.141 561.207,432.141 561.228,432.141L561.228,432.068C561.207,432.068 561.185,432.068 561.163,432.068L561.163,432.141ZM561.833,432.631C561.833,432.655 561.833,432.679 561.833,432.704L561.898,432.704C561.898,432.679 561.898,432.655 561.898,432.631L561.833,432.631ZM555.888,427.538C555.909,427.538 555.931,427.538 555.952,427.538L555.952,427.465C555.931,427.465 555.909,427.465 555.888,427.465L555.888,427.538ZM561.293,432.141C561.315,432.141 561.337,432.141 561.358,432.141L561.358,432.068C561.337,432.068 561.315,432.068 561.293,432.068L561.293,432.141ZM557.094,428.449C557.094,428.474 557.094,428.498 557.094,428.523L557.159,428.523C557.159,428.498 557.159,428.474 557.159,428.449L557.094,428.449ZM561.833,432.484C561.833,432.508 561.833,432.532 561.833,432.557L561.898,432.557C561.898,432.532 561.898,432.508 561.898,432.484L561.833,432.484ZM556.017,427.538C556.039,427.538 556.061,427.538 556.082,427.538L556.082,427.465C556.061,427.465 556.039,427.465 556.017,427.465L556.017,427.538ZM561.423,432.141C561.445,432.141 561.467,432.141 561.488,432.141L561.488,432.068C561.467,432.068 561.445,432.068 561.423,432.068L561.423,432.141ZM557.094,428.303C557.094,428.327 557.094,428.351 557.094,428.376L557.159,428.376C557.159,428.351 557.159,428.327 557.159,428.303L557.094,428.303ZM556.147,427.538C556.169,427.538 556.191,427.538 556.212,427.538L556.212,427.465C556.191,427.465 556.169,427.465 556.147,427.465L556.147,427.538ZM561.833,432.338C561.833,432.361 561.833,432.385 561.833,432.411L561.898,432.411C561.898,432.385 561.898,432.361 561.898,432.338L561.833,432.338ZM561.553,432.141C561.575,432.141 561.597,432.141 561.618,432.141L561.618,432.068C561.597,432.068 561.575,432.068 561.553,432.068L561.553,432.141ZM556.277,427.538C556.299,427.538 556.321,427.538 556.342,427.538L556.342,427.465C556.321,427.465 556.299,427.465 556.277,427.465L556.277,427.538ZM557.094,428.156C557.094,428.18 557.094,428.204 557.094,428.229L557.159,428.229C557.159,428.204 557.159,428.18 557.159,428.156L557.094,428.156ZM561.683,432.141C561.706,432.141 561.728,432.141 561.747,432.141L561.747,432.068C561.728,432.068 561.706,432.068 561.683,432.068L561.683,432.141ZM561.833,432.191C561.833,432.212 561.833,432.237 561.833,432.264L561.898,432.264C561.898,432.237 561.898,432.212 561.898,432.191L561.833,432.191ZM556.407,427.538C556.429,427.538 556.451,427.538 556.472,427.538L556.472,427.465C556.451,427.465 556.429,427.465 556.407,427.465L556.407,427.538ZM561.851,432.118L561.865,432.068C561.865,432.068 561.844,432.068 561.812,432.068L561.812,432.141C561.844,432.141 561.865,432.141 561.865,432.141C561.865,432.141 561.846,432.134 561.846,432.134L561.839,432.118L561.851,432.118ZM557.094,428.009C557.094,428.033 557.094,428.058 557.094,428.083L557.159,428.083C557.159,428.058 557.159,428.033 557.159,428.009L557.094,428.009ZM561.859,432.118L561.851,432.118L561.846,432.134C561.846,432.134 561.852,432.126 561.859,432.118L561.898,432.118C561.898,432.11 561.898,432.106 561.898,432.105C561.898,432.075 561.874,432.099 561.859,432.118ZM556.537,427.538C556.559,427.538 556.581,427.538 556.602,427.538L556.602,427.465C556.581,427.465 556.559,427.465 556.537,427.465L556.537,427.538ZM557.094,427.863C557.094,427.886 557.094,427.911 557.094,427.936L557.159,427.936C557.159,427.911 557.159,427.886 557.159,427.863L557.094,427.863ZM556.667,427.538C556.689,427.538 556.711,427.538 556.732,427.538L556.732,427.465C556.711,427.465 556.689,427.465 556.667,427.465L556.667,427.538ZM556.797,427.538C556.819,427.538 556.841,427.538 556.862,427.538L556.862,427.465C556.841,427.465 556.82,427.465 556.797,427.465L556.797,427.538ZM557.094,427.716C557.094,427.739 557.094,427.763 557.094,427.789L557.159,427.789C557.159,427.763 557.159,427.739 557.159,427.716L557.094,427.716ZM556.927,427.538C556.95,427.538 556.972,427.538 556.992,427.538L556.992,427.465C556.972,427.465 556.95,427.465 556.927,427.465L556.927,427.538ZM557.094,427.569C557.094,427.59 557.094,427.614 557.094,427.643L557.159,427.643C557.159,427.614 557.159,427.59 557.159,427.569L557.094,427.569ZM557.057,427.538C557.09,427.538 557.112,427.538 557.121,427.538L557.121,427.465C557.112,427.465 557.09,427.465 557.057,427.465L557.057,427.538Z" style="fill:rgb(67,0,71);fill-opacity:0;"/>
            </g>
            <g transform="matrix(0.429219,0.0911156,-0.0941761,0.415271,2412.49,1075.29)">
                <text x="4070.44px" y="2324.61px" style="font-family:'AmericanTypewriter', 'American Typewriter', serif;font-size:259px;fill:rgb(70,26,62);stroke:rgb(70,26,62);stroke-opacity:0;stroke-width:1.74px;stroke-linecap:butt;stroke-miterlimit:2;">?</text>
            </g>
        </g>
    </g>
</svg>
