<?xml version="1.0" encoding="UTF-8" standalone="no"?>
<!DOCTYPE svg PUBLIC "-//W3C//DTD SVG 1.1//EN" "http://www.w3.org/Graphics/SVG/1.1/DTD/svg11.dtd">
<svg width="100%" height="100%" viewBox="0 230 1000 700" version="1.1" xmlns="http://www.w3.org/2000/svg" xmlns:xlink="http://www.w3.org/1999/xlink" xml:space="preserve" xmlns:serif="http://www.serif.com/" style="fill-rule:evenodd;clip-rule:evenodd;stroke-linejoin:round;stroke-miterlimit:1.85976;">
    <g transform="matrix(1,0,0,1,-4774.55,-2096.91)">
        <g id="error500" transform="matrix(1.30885,0,0,1.35281,-24.1017,-822.475)">
            <rect x="3666.32" y="2158.02" width="764.032" height="739.203" style="fill:none;"/>
            <g transform="matrix(2.54149,0,0,0.515162,-6746.06,1243.03)">
                <ellipse cx="4250.86" cy="2760.59" rx="145.477" ry="136.63" style="fill:rgb(235,164,139);"/>
            </g>
            <g transform="matrix(0.994153,0,0,0.994153,-61.9927,0.452795)">
                <g transform="matrix(0.764032,0,0,0.739203,829.026,607.976)">
                    <path d="M4159.09,2555.31L4271.8,2553.2L4265.8,2767.1L4154.15,2761.59L4159.09,2555.31Z" style="fill:rgb(198,142,178);"/>
                </g>
                <g transform="matrix(0.764032,0,0,0.739203,829.026,607.976)">
                    <path d="M4265.8,2767.1L4431.91,2734.54L4579.68,2784.82L4412.31,2819.68L4265.8,2767.1Z" style="fill:rgb(120,65,107);"/>
                </g>
                <g transform="matrix(0.764032,0,0,0.739203,829.026,607.976)">
                    <path d="M4271.8,2553.2L4437.77,2536.7L4431.91,2734.54L4265.8,2767.1L4271.8,2553.2Z" style="fill:rgb(153,95,139);"/>
                </g>
                <g transform="matrix(0.764032,0,0,0.739203,829.026,607.976)">
                    <path d="M4312.15,2836.39L4412.31,2819.68L4265.8,2767.1L4174.53,2782.95L4312.15,2836.39Z" style="fill:rgb(198,142,178);"/>
                </g>
                <g transform="matrix(0.768525,0,0,0.74355,54.4419,611.069)">
                    <path d="M5217.07,2727.8C5234.18,2710.15 5234.37,2694.26 5243.16,2668.09C5254.22,2635.19 5285.39,2608.65 5325.19,2601.47C5352.38,2596.56 5380.23,2605.1 5416.81,2630.85C5453.85,2656.92 5519.17,2649.49 5523.86,2675.46C5532.92,2725.71 5414.29,2773.44 5358.04,2783.58C5315.84,2791.2 5278.09,2772.69 5254.09,2744.86L5249.84,2739.93C5244.98,2746 5249.84,2739.93 5241.78,2749.29C5201.32,2796.35 5124.4,2800.83 5075.89,2762.39C5064.06,2752.73 5062.18,2735.3 5071.74,2723.36C5077.66,2715.96 5088.51,2714.78 5095.95,2720.74L5095.95,2720.73C5097.37,2721.98 5098.82,2723.19 5100.31,2724.36C5119.19,2739.28 5142.14,2747.59 5165.69,2748.5C5167.95,2748.59 5171.62,2748.03 5174.31,2747.84C5191.64,2746.59 5204.5,2740.77 5217.07,2727.8Z" style="fill:rgb(59,23,52);"/>
                </g>
                <g transform="matrix(0.764032,0,0,0.739203,829.026,607.976)">
                    <path d="M4418.7,2592.31L4587.7,2575.01L4579.68,2784.82L4412.31,2819.68L4418.7,2592.31Z" style="fill:rgb(196,154,181);"/>
                </g>
                <g transform="matrix(0.764032,0,0,0.739203,829.026,607.976)">
                    <path d="M4271.8,2553.2L4437.77,2536.7L4587.7,2575.01L4418.7,2592.31L4271.8,2553.2Z" style="fill:rgb(202,171,191);"/>
                </g>
                <g id="hat" transform="matrix(3.47938,0.0490131,-0.0448685,2.98151,2366.34,1185.75)">
                    <path d="M543.857,432.104L543.857,427.501L557.126,427.502L557.126,432.104L561.866,432.105L561.866,434.222L539.118,434.221L539.118,432.104L543.857,432.104Z" style="fill:rgb(123,65,123);"/>
                    <clipPath id="_clip1">
                        <path d="M543.857,432.104L543.857,427.501L557.126,427.502L557.126,432.104L561.866,432.105L561.866,434.222L539.118,434.221L539.118,432.104L543.857,432.104Z"/>
                    </clipPath>
                    <g clip-path="url(#_clip1)">
                        <g id="ribbon" transform="matrix(0.612609,2.50561e-05,-3.20833e-05,0.784421,212.599,89.5304)">
                            <rect x="540.816" y="433.992" width="21.543" height="2.7" style="fill:rgb(70,26,62);"/>
                            <path d="M562.177,436.758L562.327,436.758L562.327,436.626L562.177,436.626L562.177,436.758ZM561.877,436.758L562.027,436.758L562.027,436.626L561.877,436.626L561.877,436.758ZM561.576,436.758L561.727,436.758L561.727,436.626L561.576,436.626L561.576,436.758ZM561.276,436.758L561.426,436.758L561.426,436.626L561.276,436.626L561.276,436.758ZM560.976,436.758L561.126,436.758L561.126,436.626L560.976,436.626L560.976,436.758ZM560.675,436.758L560.825,436.758L560.825,436.626L560.675,436.626L560.675,436.758ZM560.375,436.758L560.525,436.758L560.525,436.626L560.375,436.626L560.375,436.758ZM560.074,436.758L560.224,436.758L560.224,436.626L560.074,436.626L560.074,436.758ZM559.774,436.758L559.924,436.758L559.924,436.626L559.774,436.626L559.774,436.758ZM559.473,436.758L559.624,436.758L559.624,436.626L559.473,436.626L559.473,436.758ZM559.173,436.758L559.323,436.758L559.323,436.626L559.173,436.626L559.173,436.758ZM558.873,436.758L559.023,436.758L559.023,436.626L558.873,436.626L558.873,436.758ZM558.572,436.758L558.722,436.758L558.722,436.626L558.572,436.626L558.572,436.758ZM558.272,436.758L558.422,436.758L558.422,436.626L558.272,436.626L558.272,436.758ZM557.971,436.758L558.121,436.758L558.121,436.626L557.971,436.626L557.971,436.758ZM557.671,436.758L557.821,436.758L557.821,436.626L557.671,436.626L557.671,436.758ZM557.37,436.758L557.521,436.758L557.521,436.626L557.37,436.626L557.37,436.758ZM557.07,436.758L557.22,436.758L557.22,436.626L557.07,436.626L557.07,436.758ZM556.77,436.758L556.92,436.758L556.92,436.626L556.77,436.626L556.77,436.758ZM556.469,436.758L556.619,436.758L556.619,436.626L556.469,436.626L556.469,436.758ZM556.169,436.758L556.319,436.758L556.319,436.626L556.169,436.626L556.169,436.758ZM555.868,436.758L556.018,436.758L556.018,436.626L555.868,436.626L555.868,436.758ZM555.568,436.758L555.718,436.758L555.718,436.626L555.568,436.626L555.568,436.758ZM555.267,436.758L555.418,436.758L555.418,436.626L555.267,436.626L555.267,436.758ZM554.967,436.758L555.117,436.758L555.117,436.626L554.967,436.626L554.967,436.758ZM554.667,436.758L554.817,436.758L554.817,436.626L554.667,436.626L554.667,436.758ZM554.366,436.758L554.516,436.758L554.516,436.626L554.366,436.626L554.366,436.758ZM554.066,436.758L554.216,436.758L554.216,436.626L554.066,436.626L554.066,436.758ZM553.765,436.758L553.915,436.758L553.915,436.626L553.765,436.626L553.765,436.758ZM553.465,436.758L553.615,436.758L553.615,436.626L553.465,436.626L553.465,436.758ZM553.164,436.758L553.315,436.758L553.315,436.626L553.164,436.626L553.164,436.758ZM552.864,436.758L553.014,436.758L553.014,436.626L552.864,436.626L552.864,436.758ZM552.563,436.758L552.714,436.758L552.714,436.626L552.563,436.626L552.563,436.758ZM552.263,436.758L552.413,436.758L552.413,436.626L552.263,436.626L552.263,436.758ZM551.963,436.758L552.113,436.758L552.113,436.626L551.963,436.626L551.963,436.758ZM551.662,436.758L551.812,436.758L551.812,436.626L551.662,436.626L551.662,436.758ZM551.362,436.758L551.512,436.758L551.512,436.626L551.362,436.626L551.362,436.758ZM551.061,436.758L551.212,436.758L551.212,436.626L551.061,436.626L551.061,436.758ZM550.761,436.758L550.911,436.758L550.911,436.626L550.761,436.626L550.761,436.758ZM550.46,436.758L550.611,436.758L550.611,436.626L550.46,436.626L550.46,436.758ZM550.16,436.758L550.31,436.758L550.31,436.626L550.16,436.626L550.16,436.758ZM549.86,436.758L550.01,436.758L550.01,436.626L549.86,436.626L549.86,436.758ZM549.559,436.758L549.709,436.758L549.709,436.626L549.559,436.626L549.559,436.758ZM549.259,436.758L549.409,436.758L549.409,436.626L549.259,436.626L549.259,436.758ZM562.433,436.587L562.433,436.454L562.283,436.454L562.283,436.587L562.433,436.587ZM548.958,436.758L549.108,436.758L549.108,436.626L548.958,436.626L548.958,436.758ZM548.658,436.758L548.808,436.758L548.808,436.626L548.658,436.626L548.658,436.758ZM548.357,436.758L548.508,436.758L548.508,436.626L548.357,436.626L548.357,436.758ZM548.057,436.758L548.207,436.758L548.207,436.626L548.057,436.626L548.057,436.758ZM547.757,436.758L547.907,436.758L547.907,436.626L547.757,436.626L547.757,436.758ZM547.456,436.758L547.606,436.758L547.606,436.626L547.456,436.626L547.456,436.758ZM547.156,436.758L547.306,436.758L547.306,436.626L547.156,436.626L547.156,436.758ZM546.855,436.758L547.005,436.758L547.005,436.626L546.855,436.626L546.855,436.758ZM546.555,436.758L546.705,436.758L546.705,436.626L546.555,436.626L546.555,436.758ZM546.254,436.758L546.405,436.758L546.405,436.626L546.254,436.626L546.254,436.758ZM545.954,436.758L546.104,436.758L546.104,436.626L545.954,436.626L545.954,436.758ZM545.654,436.758L545.804,436.758L545.804,436.626L545.654,436.626L545.654,436.758ZM545.353,436.758L545.503,436.758L545.503,436.626L545.353,436.626L545.353,436.758ZM545.053,436.758L545.203,436.758L545.203,436.626L545.053,436.626L545.053,436.758ZM544.752,436.758L544.903,436.758L544.903,436.626L544.752,436.626L544.752,436.758ZM544.452,436.758L544.602,436.758L544.602,436.626L544.452,436.626L544.452,436.758ZM544.151,436.758L544.302,436.758L544.302,436.626L544.151,436.626L544.151,436.758ZM543.851,436.758L544.001,436.758L544.001,436.626L543.851,436.626L543.851,436.758ZM543.551,436.758L543.701,436.758L543.701,436.626L543.551,436.626L543.551,436.758ZM543.25,436.758L543.4,436.758L543.4,436.626L543.25,436.626L543.25,436.758ZM542.95,436.758L543.1,436.758L543.1,436.626L542.95,436.626L542.95,436.758ZM542.649,436.758L542.799,436.758L542.799,436.626L542.649,436.626L542.649,436.758ZM542.349,436.758L542.499,436.758L542.499,436.626L542.349,436.626L542.349,436.758ZM542.048,436.758L542.199,436.758L542.199,436.626L542.048,436.626L542.048,436.758ZM541.748,436.758L541.898,436.758L541.898,436.626L541.748,436.626L541.748,436.758ZM541.448,436.758L541.598,436.758L541.598,436.626L541.448,436.626L541.448,436.758ZM541.147,436.758L541.297,436.758L541.297,436.626L541.147,436.626L541.147,436.758ZM540.847,436.758L540.997,436.758L540.997,436.626L540.847,436.626L540.847,436.758ZM562.433,436.322L562.433,436.189L562.283,436.189L562.283,436.322L562.433,436.322ZM540.74,436.454L540.74,436.587L540.891,436.587L540.891,436.454L540.74,436.454ZM562.433,436.057L562.433,435.924L562.283,435.924L562.283,436.057L562.433,436.057ZM540.74,436.189L540.74,436.322L540.891,436.322L540.891,436.189L540.74,436.189ZM562.433,435.792L562.433,435.659L562.283,435.659L562.283,435.792L562.433,435.792ZM540.74,435.925L540.74,436.057L540.891,436.057L540.891,435.925L540.74,435.925ZM562.433,435.527L562.433,435.394L562.283,435.394L562.283,435.527L562.433,435.527ZM540.74,435.66L540.74,435.792L540.891,435.792L540.891,435.66L540.74,435.66ZM562.433,435.262L562.433,435.13L562.283,435.13L562.283,435.262L562.433,435.262ZM540.74,435.395L540.74,435.527L540.891,435.527L540.891,435.395L540.74,435.395ZM562.433,434.997L562.433,434.865L562.283,434.865L562.283,434.997L562.433,434.997ZM540.74,435.13L540.74,435.262L540.891,435.262L540.891,435.13L540.74,435.13ZM562.433,434.732L562.433,434.6L562.283,434.6L562.283,434.732L562.433,434.732ZM540.74,434.865L540.74,434.997L540.891,434.997L540.891,434.865L540.74,434.865ZM562.433,434.467L562.433,434.335L562.283,434.335L562.283,434.467L562.433,434.467ZM540.74,434.6L540.74,434.732L540.891,434.732L540.891,434.6L540.74,434.6ZM562.433,434.202L562.433,434.07L562.283,434.07L562.283,434.202L562.433,434.202ZM540.74,434.335L540.74,434.468L540.891,434.468L540.891,434.335L540.74,434.335ZM562.359,434.058C562.359,434.058 562.457,433.926 562.357,433.926L562.208,433.926L562.208,434.058C562.307,434.058 562.359,434.058 562.359,434.058ZM562.058,433.926L561.908,433.926L561.908,434.058L562.058,434.058L562.058,433.926ZM561.757,433.926L561.607,433.926L561.607,434.058L561.757,434.058L561.757,433.926ZM561.457,433.926L561.307,433.926L561.307,434.058L561.457,434.058L561.457,433.926ZM561.157,433.926L561.006,433.926L561.006,434.058L561.157,434.058L561.157,433.926ZM560.856,433.926L560.706,433.926L560.706,434.058L560.856,434.058L560.856,433.926ZM560.556,433.926L560.405,433.926L560.405,434.058L560.556,434.058L560.556,433.926ZM560.255,433.926L560.105,433.926L560.105,434.058L560.255,434.058L560.255,433.926ZM559.955,433.926L559.805,433.926L559.805,434.058L559.955,434.058L559.955,433.926ZM559.654,433.926L559.504,433.926L559.504,434.058L559.654,434.058L559.654,433.926ZM559.354,433.926L559.204,433.926L559.204,434.058L559.354,434.058L559.354,433.926ZM559.054,433.926L558.903,433.926L558.903,434.058L559.054,434.058L559.054,433.926ZM558.753,433.926L558.603,433.926L558.603,434.058L558.753,434.058L558.753,433.926ZM558.453,433.926L558.302,433.926L558.302,434.058L558.453,434.058L558.453,433.926ZM558.152,433.926L558.002,433.926L558.002,434.058L558.152,434.058L558.152,433.926ZM557.852,433.926L557.702,433.926L557.702,434.058L557.852,434.058L557.852,433.926ZM557.551,433.926L557.401,433.926L557.401,434.058L557.551,434.058L557.551,433.926ZM557.251,433.926L557.101,433.926L557.101,434.058L557.251,434.058L557.251,433.926ZM556.95,433.926L556.8,433.926L556.8,434.058L556.95,434.058L556.95,433.926ZM556.65,433.926L556.5,433.926L556.5,434.058L556.65,434.058L556.65,433.926ZM556.35,433.926L556.199,433.926L556.199,434.058L556.35,434.058L556.35,433.926ZM556.049,433.926L555.899,433.926L555.899,434.058L556.049,434.058L556.049,433.926ZM555.749,433.926L555.599,433.926L555.599,434.058L555.749,434.058L555.749,433.926ZM555.448,433.926L555.298,433.926L555.298,434.058L555.448,434.058L555.448,433.926ZM555.148,433.926L554.998,433.926L554.998,434.058L555.148,434.058L555.148,433.926ZM554.847,433.926L554.697,433.926L554.697,434.058L554.847,434.058L554.847,433.926ZM554.547,433.926L554.397,433.926L554.397,434.058L554.547,434.058L554.547,433.926ZM554.247,433.926L554.096,433.926L554.096,434.058L554.247,434.058L554.247,433.926ZM553.946,433.926L553.796,433.926L553.796,434.058L553.946,434.058L553.946,433.926ZM553.646,433.926L553.496,433.926L553.496,434.058L553.646,434.058L553.646,433.926ZM553.345,433.926L553.195,433.926L553.195,434.058L553.345,434.058L553.345,433.926ZM553.045,433.926L552.895,433.926L552.895,434.058L553.045,434.058L553.045,433.926ZM552.744,433.926L552.594,433.926L552.594,434.058L552.744,434.058L552.744,433.926ZM552.444,433.926L552.294,433.926L552.294,434.058L552.444,434.058L552.444,433.926ZM552.144,433.926L551.993,433.926L551.993,434.058L552.144,434.058L552.144,433.926ZM540.74,434.07L540.74,434.203L540.891,434.203L540.891,434.07L540.74,434.07ZM551.843,433.926L551.693,433.926L551.693,434.058L551.843,434.058L551.843,433.926ZM551.543,433.926L551.392,433.926L551.392,434.058L551.543,434.058L551.543,433.926ZM551.242,433.926L551.092,433.926L551.092,434.058L551.242,434.058L551.242,433.926ZM550.942,433.926L550.792,433.926L550.792,434.058L550.942,434.058L550.942,433.926ZM550.641,433.926L550.491,433.926L550.491,434.058L550.641,434.058L550.641,433.926ZM550.341,433.926L550.191,433.926L550.191,434.058L550.341,434.058L550.341,433.926ZM550.041,433.926L549.89,433.926L549.89,434.058L550.041,434.058L550.041,433.926ZM549.74,433.926L549.59,433.926L549.59,434.058L549.74,434.058L549.74,433.926ZM549.44,433.926L549.289,433.926L549.289,434.058L549.44,434.058L549.44,433.926ZM549.139,433.926L548.989,433.926L548.989,434.058L549.139,434.058L549.139,433.926ZM548.839,433.926L548.689,433.926L548.689,434.058L548.839,434.058L548.839,433.926ZM548.538,433.926L548.388,433.926L548.388,434.058L548.538,434.058L548.538,433.926ZM548.238,433.926L548.088,433.926L548.088,434.058L548.238,434.058L548.238,433.926ZM547.937,433.926L547.787,433.926L547.787,434.058L547.937,434.058L547.937,433.926ZM547.637,433.926L547.487,433.926L547.487,434.058L547.637,434.058L547.637,433.926ZM547.337,433.926L547.186,433.926L547.186,434.058L547.337,434.058L547.337,433.926ZM547.036,433.926L546.886,433.926L546.886,434.058L547.036,434.058L547.036,433.926ZM546.736,433.926L546.586,433.926L546.586,434.058L546.736,434.058L546.736,433.926ZM546.435,433.926L546.285,433.926L546.285,434.058L546.435,434.058L546.435,433.926ZM546.135,433.926L545.985,433.926L545.985,434.058L546.135,434.058L546.135,433.926ZM545.834,433.926L545.684,433.926L545.684,434.058L545.834,434.058L545.834,433.926ZM545.534,433.926L545.384,433.926L545.384,434.058L545.534,434.058L545.534,433.926ZM545.234,433.926L545.083,433.926L545.083,434.058L545.234,434.058L545.234,433.926ZM544.933,433.926L544.783,433.926L544.783,434.058L544.933,434.058L544.933,433.926ZM544.633,433.926L544.483,433.926L544.483,434.058L544.633,434.058L544.633,433.926ZM544.332,433.926L544.182,433.926L544.182,434.058L544.332,434.058L544.332,433.926ZM544.032,433.926L543.882,433.926L543.882,434.058L544.032,434.058L544.032,433.926ZM543.731,433.926L543.581,433.926L543.581,434.058L543.731,434.058L543.731,433.926ZM543.431,433.926L543.281,433.926L543.281,434.058L543.431,434.058L543.431,433.926ZM543.131,433.926L542.98,433.926L542.98,434.058L543.131,434.058L543.131,433.926ZM542.83,433.926L542.68,433.926L542.68,434.058L542.83,434.058L542.83,433.926ZM542.53,433.926L542.38,433.926L542.38,434.058L542.53,434.058L542.53,433.926ZM542.229,433.926L542.079,433.926L542.079,434.058L542.229,434.058L542.229,433.926ZM541.929,433.926L541.779,433.926L541.779,434.058L541.929,434.058L541.929,433.926ZM541.628,433.926L541.478,433.926L541.478,434.058L541.628,434.058L541.628,433.926ZM541.328,433.926L541.178,433.926L541.178,434.058L541.328,434.058L541.328,433.926ZM541.028,433.926L540.877,433.926L540.877,434.058L541.028,434.058L541.028,433.926Z" style="fill:rgb(67,0,71);fill-opacity:0;"/>
                        </g>
                    </g>
                    <path d="M543.857,432.104L543.857,427.501L557.126,427.502L557.126,432.104L561.866,432.105L561.866,434.222L539.118,434.221L539.118,432.104L543.857,432.104Z" style="fill:none;stroke:rgb(67,0,71);stroke-opacity:0;stroke-width:0.1px;stroke-dasharray:0.1,0.1;"/>
                </g>
                <g transform="matrix(0.764032,0,0,0.739203,829.026,607.976)">
                    <path d="M4372.97,2500.95L4221.98,2465.21L4271.8,2553.2L4418.7,2592.31L4372.97,2500.95Z" style="fill:rgb(198,142,178);"/>
                </g>
                <g transform="matrix(0.764032,0,0,0.739203,829.026,607.976)">
                    <path d="M4418.7,2592.31L4479.96,2615.88L4475.59,2856.26L4412.31,2819.68L4418.7,2592.31Z" style="fill:rgb(198,142,178);"/>
                </g>
            </g>
            <g transform="matrix(1,0,0,1,-8.72154,-2.54981)">
                <g transform="matrix(0.764032,0,0,0.739203,17.5164,607.83)">
                    <path d="M5421.09,2482.85C5421.09,2481.09 5421.09,2457.99 5421.09,2456.68C5421.09,2453.85 5423.4,2451.56 5426.26,2451.56C5429.11,2451.56 5431.42,2453.85 5431.42,2456.68L5431.42,2482.85C5431.42,2485.67 5429.11,2487.97 5426.26,2487.97C5423.4,2487.97 5421.09,2485.67 5421.09,2482.85Z" style="fill:rgb(59,23,52);"/>
                </g>
                <g transform="matrix(0.662703,0.367867,-0.380223,0.641167,1567.02,-1131.61)">
                    <path d="M5421.09,2482.85C5421.09,2481.09 5421.09,2457.99 5421.09,2456.68C5421.09,2453.85 5423.4,2451.56 5426.26,2451.56C5429.11,2451.56 5431.42,2453.85 5431.42,2456.68L5431.42,2482.85C5431.42,2485.67 5429.11,2487.97 5426.26,2487.97C5423.4,2487.97 5421.09,2485.67 5421.09,2482.85Z" style="fill:rgb(59,23,52);"/>
                </g>
                <g transform="matrix(0.37632,0.643319,-0.664927,0.364091,3873.32,-1897.08)">
                    <path d="M5421.09,2482.85C5421.09,2481.09 5421.09,2457.99 5421.09,2456.68C5421.09,2453.85 5423.4,2451.56 5426.26,2451.56C5429.11,2451.56 5431.42,2453.85 5431.42,2456.68L5431.42,2482.85C5431.42,2485.67 5429.11,2487.97 5426.26,2487.97C5423.4,2487.97 5421.09,2485.67 5421.09,2482.85Z" style="fill:rgb(59,23,52);"/>
                </g>
                <g transform="matrix(0.0118828,0.739113,-0.763939,0.0114966,6111.65,-1487.2)">
                    <path d="M5421.09,2482.85C5421.09,2481.09 5421.09,2457.99 5421.09,2456.68C5421.09,2453.85 5423.4,2451.56 5426.26,2451.56C5429.11,2451.56 5431.42,2453.85 5431.42,2456.68L5431.42,2482.85C5431.42,2485.67 5429.11,2487.97 5426.26,2487.97C5423.4,2487.97 5421.09,2485.67 5421.09,2482.85Z" style="fill:rgb(59,23,52);"/>
                </g>
            </g>
            <g transform="matrix(0.708265,-0.277228,0.28654,0.685248,-550.719,2223.65)">
                <path d="M5157.55,2894.86C5157.55,2894.86 5156.41,2885.18 5165.79,2880.66C5171.91,2877.72 5175.84,2878.51 5179.39,2879.14C5181.34,2879.49 5183.63,2879.25 5184.99,2878.92C5189.16,2877.93 5237.03,2839.3 5242.07,2836.6C5245.26,2834.89 5249.91,2835.18 5252.34,2836.45C5255.22,2837.96 5256.81,2839.48 5257.43,2841.7C5257.89,2843.35 5257.44,2845.71 5256.67,2846.61C5255.03,2848.54 5198.94,2885.09 5197.52,2888.84C5196.46,2891.64 5199.58,2895.29 5197.38,2899.93C5195.19,2904.58 5188.06,2908.43 5181.21,2908.99C5174.25,2909.55 5167.98,2906.78 5167.98,2906.78C5167.98,2906.78 5174.51,2903.56 5178.26,2901.6C5179.42,2900.99 5180.95,2898.91 5181,2898.19C5181.13,2896.18 5180.15,2893.71 5177.93,2891.76C5176.05,2890.11 5172.5,2888.41 5169.59,2889.55C5164.09,2891.7 5157.55,2894.86 5157.55,2894.86ZM5247.48,2839.16C5250.2,2839.16 5252.41,2840.95 5252.41,2843.15C5252.41,2845.35 5250.2,2847.14 5247.48,2847.14C5244.75,2847.14 5242.54,2845.35 5242.54,2843.15C5242.54,2840.95 5244.75,2839.16 5247.48,2839.16Z" style="fill:rgb(59,23,52);"/>
            </g>
        </g>
    </g>
</svg>
