<?xml version="1.0" encoding="UTF-8" standalone="no"?>
<!DOCTYPE svg PUBLIC "-//W3C//DTD SVG 1.1//EN" "http://www.w3.org/Graphics/SVG/1.1/DTD/svg11.dtd">
<svg width="100%" height="100%" viewBox="0 0 976 315" version="1.1" xmlns="http://www.w3.org/2000/svg" xmlns:xlink="http://www.w3.org/1999/xlink" xml:space="preserve" xmlns:serif="http://www.serif.com/" style="fill-rule:evenodd;clip-rule:evenodd;stroke-linecap:round;stroke-linejoin:round;stroke-miterlimit:1.5;">
    <g transform="matrix(1,0,0,1,-4799.39,-3640.89)">
        <g id="error403" transform="matrix(1.27633,0,0,0.425281,119.977,2723.13)">
            <rect x="3666.32" y="2158.02" width="764.032" height="739.203" style="fill:none;"/>
            <g transform="matrix(2.60625,0,0,1.63872,-7030.83,-1892.72)">
                <ellipse cx="4250.86" cy="2760.59" rx="145.477" ry="136.63" style="fill:rgb(235,164,139);"/>
            </g>
            <g transform="matrix(0.340202,-2.90331,0.999898,1.05529,193.341,11735.3)">
                <g id="cat" transform="matrix(0.253467,0.69734,-0.720763,0.24523,5467.18,-2134.56)">
                    <path d="M5179.15,3797.85C5175.96,3796.57 5172.93,3795.02 5170.07,3793.24C5169.04,3792.62 5168.02,3791.96 5167.02,3791.29C5163.3,3788.65 5158.48,3786.85 5153.87,3787.01C5152.26,3787.07 5150.67,3787.33 5149.08,3787.59C5145.36,3788.41 5142.06,3790.87 5140.16,3794.15L5140.16,3794.15C5137.2,3799.28 5131.08,3801.86 5125.33,3800.55L5125.33,3800.55C5123.88,3801.08 5122.27,3801.24 5120.64,3800.95C5118.24,3800.52 5116.25,3799.16 5114.91,3797.32C5114.06,3797.78 5113.06,3797.97 5112.03,3797.79C5109.61,3797.36 5108,3794.94 5108.44,3792.48C5109.65,3787.06 5105.9,3784.29 5102.72,3780.79C5100.94,3778.83 5099.35,3776.69 5098.08,3774.36C5094.23,3767.3 5094.16,3760.26 5095.28,3752.52C5095.47,3751.2 5092.91,3751.57 5088.11,3749.65C5082.82,3747.53 5080.45,3745.97 5080.4,3745.88C5080.08,3745.34 5085.87,3741.52 5091.51,3739.28C5096.51,3737.29 5101.37,3736.86 5101.99,3736.16C5106.06,3731.53 5106.39,3730.48 5111.61,3727.05C5123.08,3719.49 5138.24,3717.48 5151.52,3720.4C5161.86,3722.24 5172.42,3715.77 5176.64,3706.72C5195.82,3665.53 5236.5,3642.99 5281.14,3649.49C5301.62,3652.47 5319.22,3663.04 5332.61,3676.9C5349.12,3693.98 5352.3,3703.12 5357.48,3727.31C5361.1,3744.24 5359.89,3757.37 5362.75,3766.19C5366.36,3777.3 5372.26,3788.36 5383.76,3793.51C5399.79,3800.68 5407.41,3797.82 5436.92,3792.78C5438.5,3792.51 5440.04,3792.1 5441.59,3791.7L5441.58,3791.7C5449.46,3790.03 5457.2,3795.04 5458.86,3802.87C5461.54,3815.52 5453.5,3827.96 5440.9,3830.75C5415.43,3836.02 5390.19,3830.53 5369.92,3817.37C5366.15,3814.93 5360.95,3811.02 5352.35,3806.49C5352.3,3806.49 5330.34,3808.34 5328.28,3817.11C5325.79,3827.67 5318.16,3833.55 5307.62,3833.1C5294.38,3832.53 5290.86,3832.46 5289.28,3828.97C5287.44,3824.92 5289.86,3820.64 5292.87,3817.11C5295.18,3814.4 5286.44,3817.08 5268.69,3810.02C5255.72,3804.86 5247.82,3801.12 5247.82,3801.12C5247.82,3801.12 5237.27,3808.04 5234.32,3817.11C5229.74,3831.16 5220.62,3832.87 5216.41,3833.1C5212.97,3833.29 5216.62,3833.46 5203.15,3833.1C5196.99,3832.94 5196.32,3828.24 5195.96,3825.77C5195.13,3820.09 5200.93,3818.13 5201.33,3814.48C5202.16,3807.03 5179.15,3797.85 5179.15,3797.85L5179.15,3797.85Z" style="fill:rgb(70,26,62);stroke:rgb(67,0,71);stroke-opacity:0;stroke-width:0.42px;"/>
                </g>
                <g id="hat" transform="matrix(1.31971,3.69414,3.38177,-1.13087,1829.27,823.318)">
                    <path d="M543.857,432.104L543.857,427.501L557.126,427.502L557.126,432.104L561.866,432.105L561.866,434.222L539.118,434.221L539.118,432.104L543.857,432.104Z" style="fill:rgb(123,65,123);"/>
                    <clipPath id="_clip1">
                        <path d="M543.857,432.104L543.857,427.501L557.126,427.502L557.126,432.104L561.866,432.105L561.866,434.222L539.118,434.221L539.118,432.104L543.857,432.104Z"/>
                    </clipPath>
                    <g clip-path="url(#_clip1)">
                        <g id="ribbon" transform="matrix(0.612609,2.50561e-05,-3.20833e-05,0.784421,212.599,89.5304)">
                            <rect x="540.816" y="433.992" width="21.543" height="2.7" style="fill:rgb(70,26,62);"/>
                            <path d="M562.294,434.049L562.23,434.049L562.23,433.935C562.314,433.935 562.359,433.935 562.359,433.935L562.361,433.936C562.374,433.937 562.423,433.946 562.423,433.993C562.423,433.997 562.423,434.019 562.423,434.055L562.294,434.055L562.294,434.049ZM562.101,434.049L561.972,434.049L561.972,433.935L562.101,433.935L562.101,434.049ZM561.844,434.049L561.715,434.049L561.715,433.935L561.844,433.935L561.844,434.049ZM561.586,434.049L561.458,434.049L561.458,433.935L561.586,433.935L561.586,434.049ZM561.329,434.049L561.201,434.049L561.201,433.935L561.329,433.935L561.329,434.049ZM561.072,434.049L560.943,434.049L560.943,433.935L561.072,433.935L561.072,434.049ZM560.815,434.049L560.686,434.049L560.686,433.935L560.815,433.935L560.815,434.049ZM560.557,434.049L560.429,434.049L560.429,433.935L560.557,433.935L560.557,434.049ZM560.3,434.049L560.171,434.049L560.171,433.935L560.3,433.935L560.3,434.049ZM560.043,434.049L559.914,434.049L559.914,433.935L560.043,433.935L560.043,434.049ZM559.786,434.049L559.657,434.049L559.657,433.935L559.786,433.935L559.786,434.049ZM559.528,434.049L559.4,434.049L559.4,433.935L559.528,433.935L559.528,434.049ZM559.271,434.049L559.142,434.049L559.142,433.935L559.271,433.935L559.271,434.049ZM559.014,434.049L558.885,434.049L558.885,433.935L559.014,433.935L559.014,434.049ZM558.757,434.049L558.628,434.049L558.628,433.935L558.757,433.935L558.757,434.049ZM558.499,434.049L558.371,434.049L558.371,433.935L558.499,433.935L558.499,434.049ZM558.242,434.049L558.113,434.049L558.113,433.935L558.242,433.935L558.242,434.049ZM557.985,434.049L557.856,434.049L557.856,433.935L557.985,433.935L557.985,434.049ZM557.727,434.049L557.599,434.049L557.599,433.935L557.727,433.935L557.727,434.049ZM557.47,434.049L557.342,434.049L557.342,433.935L557.47,433.935L557.47,434.049ZM557.213,434.049L557.084,434.049L557.084,433.935L557.213,433.935L557.213,434.049ZM556.956,434.049L556.827,434.049L556.827,433.935L556.956,433.935L556.956,434.049ZM556.698,434.049L556.57,434.049L556.57,433.935L556.698,433.935L556.698,434.049ZM556.441,434.049L556.312,434.049L556.312,433.935L556.441,433.935L556.441,434.049ZM556.184,434.049L556.055,434.049L556.055,433.935L556.184,433.935L556.184,434.049ZM555.927,434.049L555.798,434.049L555.798,433.935L555.927,433.935L555.927,434.049ZM555.669,434.049L555.541,434.049L555.541,433.935L555.669,433.935L555.669,434.049ZM555.412,434.049L555.283,434.049L555.283,433.935L555.412,433.935L555.412,434.049ZM555.155,434.049L555.026,434.049L555.026,433.935L555.155,433.935L555.155,434.049ZM554.898,434.049L554.769,434.049L554.769,433.935L554.898,433.935L554.898,434.049ZM554.64,434.049L554.512,434.049L554.512,433.935L554.64,433.935L554.64,434.049ZM554.383,434.049L554.254,434.049L554.254,433.935L554.383,433.935L554.383,434.049ZM554.126,434.049L553.997,434.049L553.997,433.935L554.126,433.935L554.126,434.049ZM553.869,434.049L553.74,434.049L553.74,433.935L553.869,433.935L553.869,434.049ZM553.611,434.049L553.483,434.049L553.483,433.935L553.611,433.935L553.611,434.049ZM553.354,434.049L553.225,434.049L553.225,433.935L553.354,433.935L553.354,434.049ZM553.097,434.049L552.968,434.049L552.968,433.935L553.097,433.935L553.097,434.049ZM552.839,434.049L552.711,434.049L552.711,433.935L552.839,433.935L552.839,434.049ZM552.582,434.049L552.454,434.049L552.454,433.935L552.582,433.935L552.582,434.049ZM552.325,434.049L552.196,434.049L552.196,433.935L552.325,433.935L552.325,434.049ZM552.068,434.049L551.939,434.049L551.939,433.935L552.068,433.935L552.068,434.049ZM551.81,434.049L551.682,434.049L551.682,433.935L551.81,433.935L551.81,434.049ZM551.553,434.049L551.424,434.049L551.424,433.935L551.553,433.935L551.553,434.049ZM551.296,434.049L551.167,434.049L551.167,433.935L551.296,433.935L551.296,434.049ZM551.039,434.049L550.91,434.049L550.91,433.935L551.039,433.935L551.039,434.049ZM550.781,434.049L550.653,434.049L550.653,433.935L550.781,433.935L550.781,434.049ZM550.524,434.049L550.395,434.049L550.395,433.935L550.524,433.935L550.524,434.049ZM550.267,434.049L550.138,434.049L550.138,433.935L550.267,433.935L550.267,434.049ZM550.01,434.049L549.881,434.049L549.881,433.935L550.01,433.935L550.01,434.049ZM549.752,434.049L549.624,434.049L549.624,433.935L549.752,433.935L549.752,434.049ZM549.495,434.049L549.366,434.049L549.366,433.935L549.495,433.935L549.495,434.049ZM549.238,434.049L549.109,434.049L549.109,433.935L549.238,433.935L549.238,434.049ZM548.98,434.049L548.852,434.049L548.852,433.935L548.98,433.935L548.98,434.049ZM548.723,434.049L548.595,434.049L548.595,433.935L548.723,433.935L548.723,434.049ZM548.466,434.049L548.337,434.049L548.337,433.935L548.466,433.935L548.466,434.049ZM548.209,434.049L548.08,434.049L548.08,433.935L548.209,433.935L548.209,434.049ZM547.951,434.049L547.823,434.049L547.823,433.935L547.951,433.935L547.951,434.049ZM547.694,434.049L547.566,434.049L547.566,433.935L547.694,433.935L547.694,434.049ZM547.437,434.049L547.308,434.049L547.308,433.935L547.437,433.935L547.437,434.049ZM547.18,434.049L547.051,434.049L547.051,433.935L547.18,433.935L547.18,434.049ZM546.922,434.049L546.794,434.049L546.794,433.935L546.922,433.935L546.922,434.049ZM546.665,434.049L546.536,434.049L546.536,433.935L546.665,433.935L546.665,434.049ZM546.408,434.049L546.279,434.049L546.279,433.935L546.408,433.935L546.408,434.049ZM546.151,434.049L546.022,434.049L546.022,433.935L546.151,433.935L546.151,434.049ZM545.893,434.049L545.765,434.049L545.765,433.935L545.893,433.935L545.893,434.049ZM545.636,434.049L545.507,434.049L545.507,433.935L545.636,433.935L545.636,434.049ZM545.379,434.049L545.25,434.049L545.25,433.935L545.379,433.935L545.379,434.049ZM545.121,434.049L544.993,434.049L544.993,433.935L545.121,433.935L545.121,434.049ZM544.864,434.049L544.736,434.049L544.736,433.935L544.864,433.935L544.864,434.049ZM544.607,434.049L544.478,434.049L544.478,433.935L544.607,433.935L544.607,434.049ZM544.35,434.049L544.221,434.049L544.221,433.935L544.35,433.935L544.35,434.049ZM544.092,434.049L543.964,434.049L543.964,433.935L544.092,433.935L544.092,434.049ZM543.835,434.049L543.707,434.049L543.707,433.935L543.835,433.935L543.835,434.049ZM543.578,434.049L543.449,434.049L543.449,433.935L543.578,433.935L543.578,434.049ZM543.321,434.049L543.192,434.049L543.192,433.935L543.321,433.935L543.321,434.049ZM543.063,434.049L542.935,434.049L542.935,433.935L543.063,433.935L543.063,434.049ZM542.806,434.049L542.677,434.049L542.677,433.935L542.806,433.935L542.806,434.049ZM542.549,434.049L542.42,434.049L542.42,433.935L542.549,433.935L542.549,434.049ZM542.292,434.049L542.163,434.049L542.163,433.935L542.292,433.935L542.292,434.049ZM542.034,434.049L541.906,434.049L541.906,433.935L542.034,433.935L542.034,434.049ZM541.777,434.049L541.648,434.049L541.648,433.935L541.777,433.935L541.777,434.049ZM541.52,434.049L541.391,434.049L541.391,433.935L541.52,433.935L541.52,434.049ZM541.262,434.049L541.134,434.049L541.134,433.935L541.262,433.935L541.262,434.049ZM541.005,434.049L540.877,434.049L540.877,433.935L541.005,433.935L541.005,434.049ZM540.88,434.052L540.88,434.165L540.751,434.165L540.751,434.052L540.88,434.052ZM562.294,434.282L562.294,434.168L562.423,434.168L562.423,434.282L562.294,434.282ZM540.88,434.279L540.88,434.392L540.751,434.392L540.751,434.279L540.88,434.279ZM562.294,434.509L562.294,434.395L562.423,434.395L562.423,434.509L562.294,434.509ZM540.88,434.506L540.88,434.619L540.751,434.619L540.751,434.506L540.88,434.506ZM562.294,434.736L562.294,434.622L562.423,434.622L562.423,434.736L562.294,434.736ZM540.88,434.732L540.88,434.846L540.751,434.846L540.751,434.732L540.88,434.732ZM562.294,434.962L562.294,434.849L562.423,434.849L562.423,434.962L562.294,434.962ZM540.88,434.959L540.88,435.073L540.751,435.073L540.751,434.959L540.88,434.959ZM562.294,435.189L562.294,435.076L562.423,435.076L562.423,435.189L562.294,435.189ZM540.88,435.186L540.88,435.299L540.751,435.299L540.751,435.186L540.88,435.186ZM562.294,435.416L562.294,435.303L562.423,435.303L562.423,435.416L562.294,435.416ZM540.88,435.413L540.88,435.526L540.751,435.526L540.751,435.413L540.88,435.413ZM562.294,435.643L562.294,435.53L562.423,435.53L562.423,435.643L562.294,435.643ZM540.88,435.64L540.88,435.753L540.751,435.753L540.751,435.64L540.88,435.64ZM562.294,435.87L562.294,435.756L562.423,435.756L562.423,435.87L562.294,435.87ZM540.88,435.867L540.88,435.98L540.751,435.98L540.751,435.867L540.88,435.867ZM562.294,436.097L562.294,435.983L562.423,435.983L562.423,436.097L562.294,436.097ZM540.88,436.093L540.88,436.207L540.751,436.207L540.751,436.093L540.88,436.093ZM562.294,436.323L562.294,436.21L562.423,436.21L562.423,436.323L562.294,436.323ZM540.88,436.32L540.88,436.434L540.751,436.434L540.751,436.32L540.88,436.32ZM562.294,436.55L562.294,436.437L562.423,436.437L562.423,436.55L562.294,436.55ZM562.326,436.664L562.377,436.664C562.368,436.647 562.359,436.635 562.359,436.635L562.391,436.664L562.377,436.664C562.396,436.697 562.415,436.749 562.357,436.749L562.262,436.749L562.262,436.635C562.325,436.635 562.359,436.635 562.359,436.635L562.326,436.664ZM562.004,436.635L562.133,436.635L562.133,436.749L562.004,436.749L562.004,436.635ZM561.747,436.635L561.876,436.635L561.876,436.749L561.747,436.749L561.747,436.635ZM561.49,436.635L561.618,436.635L561.618,436.749L561.49,436.749L561.49,436.635ZM561.232,436.635L561.361,436.635L561.361,436.749L561.232,436.749L561.232,436.635ZM560.975,436.635L561.104,436.635L561.104,436.749L560.975,436.749L560.975,436.635ZM560.718,436.635L560.847,436.635L560.847,436.749L560.718,436.749L560.718,436.635ZM560.461,436.635L560.589,436.635L560.589,436.749L560.461,436.749L560.461,436.635ZM560.203,436.635L560.332,436.635L560.332,436.749L560.203,436.749L560.203,436.635ZM559.946,436.635L560.075,436.635L560.075,436.749L559.946,436.749L559.946,436.635ZM559.689,436.635L559.817,436.635L559.817,436.749L559.689,436.749L559.689,436.635ZM540.88,436.547L540.88,436.661L540.751,436.661L540.751,436.547L540.88,436.547ZM559.432,436.635L559.56,436.635L559.56,436.749L559.432,436.749L559.432,436.635ZM559.174,436.635L559.303,436.635L559.303,436.749L559.174,436.749L559.174,436.635ZM558.917,436.635L559.046,436.635L559.046,436.749L558.917,436.749L558.917,436.635ZM558.66,436.635L558.788,436.635L558.788,436.749L558.66,436.749L558.66,436.635ZM558.403,436.635L558.531,436.635L558.531,436.749L558.403,436.749L558.403,436.635ZM558.145,436.635L558.274,436.635L558.274,436.749L558.145,436.749L558.145,436.635ZM557.888,436.635L558.017,436.635L558.017,436.749L557.888,436.749L557.888,436.635ZM557.631,436.635L557.759,436.635L557.759,436.749L557.631,436.749L557.631,436.635ZM557.373,436.635L557.502,436.635L557.502,436.749L557.373,436.749L557.373,436.635ZM557.116,436.635L557.245,436.635L557.245,436.749L557.116,436.749L557.116,436.635ZM556.859,436.635L556.988,436.635L556.988,436.749L556.859,436.749L556.859,436.635ZM556.602,436.635L556.73,436.635L556.73,436.749L556.602,436.749L556.602,436.635ZM556.344,436.635L556.473,436.635L556.473,436.749L556.344,436.749L556.344,436.635ZM562.391,436.664L562.423,436.664C562.423,436.68 562.423,436.692 562.423,436.692L562.391,436.664ZM556.087,436.635L556.216,436.635L556.216,436.749L556.087,436.749L556.087,436.635ZM555.83,436.635L555.959,436.635L555.959,436.749L555.83,436.749L555.83,436.635ZM555.573,436.635L555.701,436.635L555.701,436.749L555.573,436.749L555.573,436.635ZM555.315,436.635L555.444,436.635L555.444,436.749L555.315,436.749L555.315,436.635ZM555.058,436.635L555.187,436.635L555.187,436.749L555.058,436.749L555.058,436.635ZM554.801,436.635L554.93,436.635L554.93,436.749L554.801,436.749L554.801,436.635ZM554.544,436.635L554.672,436.635L554.672,436.749L554.544,436.749L554.544,436.635ZM554.286,436.635L554.415,436.635L554.415,436.749L554.286,436.749L554.286,436.635ZM554.029,436.635L554.158,436.635L554.158,436.749L554.029,436.749L554.029,436.635ZM553.772,436.635L553.901,436.635L553.901,436.749L553.772,436.749L553.772,436.635ZM553.515,436.635L553.643,436.635L553.643,436.749L553.515,436.749L553.515,436.635ZM553.257,436.635L553.386,436.635L553.386,436.749L553.257,436.749L553.257,436.635ZM553,436.635L553.129,436.635L553.129,436.749L553,436.749L553,436.635ZM552.743,436.635L552.871,436.635L552.871,436.749L552.743,436.749L552.743,436.635ZM552.486,436.635L552.614,436.635L552.614,436.749L552.486,436.749L552.486,436.635ZM552.228,436.635L552.357,436.635L552.357,436.749L552.228,436.749L552.228,436.635ZM551.971,436.635L552.1,436.635L552.1,436.749L551.971,436.749L551.971,436.635ZM551.714,436.635L551.842,436.635L551.842,436.749L551.714,436.749L551.714,436.635ZM551.456,436.635L551.585,436.635L551.585,436.749L551.456,436.749L551.456,436.635ZM551.199,436.635L551.328,436.635L551.328,436.749L551.199,436.749L551.199,436.635ZM550.942,436.635L551.071,436.635L551.071,436.749L550.942,436.749L550.942,436.635ZM550.685,436.635L550.813,436.635L550.813,436.749L550.685,436.749L550.685,436.635ZM550.427,436.635L550.556,436.635L550.556,436.749L550.427,436.749L550.427,436.635ZM550.17,436.635L550.299,436.635L550.299,436.749L550.17,436.749L550.17,436.635ZM549.913,436.635L550.042,436.635L550.042,436.749L549.913,436.749L549.913,436.635ZM549.656,436.635L549.784,436.635L549.784,436.749L549.656,436.749L549.656,436.635ZM549.398,436.635L549.527,436.635L549.527,436.749L549.398,436.749L549.398,436.635ZM549.141,436.635L549.27,436.635L549.27,436.749L549.141,436.749L549.141,436.635ZM548.884,436.635L549.013,436.635L549.013,436.749L548.884,436.749L548.884,436.635ZM548.627,436.635L548.755,436.635L548.755,436.749L548.627,436.749L548.627,436.635ZM548.369,436.635L548.498,436.635L548.498,436.749L548.369,436.749L548.369,436.635ZM548.112,436.635L548.241,436.635L548.241,436.749L548.112,436.749L548.112,436.635ZM547.855,436.635L547.983,436.635L547.983,436.749L547.855,436.749L547.855,436.635ZM547.598,436.635L547.726,436.635L547.726,436.749L547.598,436.749L547.598,436.635ZM547.34,436.635L547.469,436.635L547.469,436.749L547.34,436.749L547.34,436.635ZM547.083,436.635L547.212,436.635L547.212,436.749L547.083,436.749L547.083,436.635ZM546.826,436.635L546.954,436.635L546.954,436.749L546.826,436.749L546.826,436.635ZM546.569,436.635L546.697,436.635L546.697,436.749L546.569,436.749L546.569,436.635ZM546.311,436.635L546.44,436.635L546.44,436.749L546.311,436.749L546.311,436.635ZM546.054,436.635L546.183,436.635L546.183,436.749L546.054,436.749L546.054,436.635ZM545.797,436.635L545.925,436.635L545.925,436.749L545.797,436.749L545.797,436.635ZM545.539,436.635L545.668,436.635L545.668,436.749L545.539,436.749L545.539,436.635ZM545.282,436.635L545.411,436.635L545.411,436.749L545.282,436.749L545.282,436.635ZM545.025,436.635L545.154,436.635L545.154,436.749L545.025,436.749L545.025,436.635ZM544.768,436.635L544.896,436.635L544.896,436.749L544.768,436.749L544.768,436.635ZM544.51,436.635L544.639,436.635L544.639,436.749L544.51,436.749L544.51,436.635ZM544.253,436.635L544.382,436.635L544.382,436.749L544.253,436.749L544.253,436.635ZM543.996,436.635L544.125,436.635L544.125,436.749L543.996,436.749L543.996,436.635ZM543.739,436.635L543.867,436.635L543.867,436.749L543.739,436.749L543.739,436.635ZM543.481,436.635L543.61,436.635L543.61,436.749L543.481,436.749L543.481,436.635ZM543.224,436.635L543.353,436.635L543.353,436.749L543.224,436.749L543.224,436.635ZM542.967,436.635L543.095,436.635L543.095,436.749L542.967,436.749L542.967,436.635ZM542.71,436.635L542.838,436.635L542.838,436.749L542.71,436.749L542.71,436.635ZM542.452,436.635L542.581,436.635L542.581,436.749L542.452,436.749L542.452,436.635ZM542.195,436.635L542.324,436.635L542.324,436.749L542.195,436.749L542.195,436.635ZM541.938,436.635L542.066,436.635L542.066,436.749L541.938,436.749L541.938,436.635ZM541.681,436.635L541.809,436.635L541.809,436.749L541.681,436.749L541.681,436.635ZM541.423,436.635L541.552,436.635L541.552,436.749L541.423,436.749L541.423,436.635ZM541.166,436.635L541.295,436.635L541.295,436.749L541.166,436.749L541.166,436.635ZM540.909,436.635L541.037,436.635L541.037,436.749L540.909,436.749L540.909,436.635Z" style="fill:rgb(67,0,71);fill-opacity:0;"/>
                        </g>
                    </g>
                    <path d="M557.117,427.468L557.117,427.457L557.127,427.457L557.128,427.457C557.136,427.459 557.166,427.466 557.166,427.503C557.166,427.507 557.166,427.534 557.166,427.58L557.087,427.58C557.087,427.534 557.087,427.503 557.087,427.503L557.117,427.468ZM556.96,427.457C556.99,427.457 557.016,427.457 557.038,427.457L557.038,427.546C557.016,427.546 556.99,427.546 556.96,427.546L556.96,427.457ZM556.802,427.457C556.83,427.457 556.856,427.457 556.881,427.457L556.881,427.546C556.856,427.546 556.83,427.546 556.802,427.546L556.802,427.457ZM556.644,427.457C556.672,427.457 556.698,427.457 556.723,427.457L556.723,427.546C556.698,427.546 556.672,427.546 556.644,427.546L556.644,427.457ZM556.487,427.457C556.514,427.457 556.54,427.457 556.566,427.457L556.566,427.546C556.54,427.546 556.514,427.546 556.487,427.546L556.487,427.457ZM556.329,427.457C556.356,427.457 556.382,427.457 556.408,427.457L556.408,427.546C556.382,427.546 556.356,427.546 556.329,427.546L556.329,427.457ZM556.172,427.457C556.198,427.457 556.225,427.457 556.25,427.457L556.25,427.546C556.225,427.546 556.198,427.546 556.171,427.546L556.172,427.457ZM556.014,427.457C556.041,427.457 556.067,427.457 556.093,427.457L556.093,427.546C556.067,427.546 556.041,427.546 556.014,427.546L556.014,427.457ZM555.856,427.457C555.883,427.457 555.909,427.457 555.935,427.457L555.935,427.546C555.909,427.546 555.883,427.546 555.856,427.546L555.856,427.457ZM555.699,427.457C555.725,427.457 555.752,427.457 555.777,427.457L555.777,427.546C555.752,427.546 555.725,427.546 555.699,427.546L555.699,427.457ZM555.541,427.457C555.568,427.457 555.594,427.457 555.62,427.457L555.62,427.546C555.594,427.546 555.568,427.546 555.541,427.546L555.541,427.457ZM555.383,427.457C555.41,427.457 555.436,427.457 555.462,427.457L555.462,427.546C555.436,427.546 555.41,427.546 555.383,427.546L555.383,427.457ZM555.226,427.457C555.252,427.457 555.279,427.457 555.305,427.457L555.305,427.546C555.279,427.546 555.252,427.546 555.226,427.546L555.226,427.457ZM555.068,427.457C555.095,427.457 555.121,427.457 555.147,427.457L555.147,427.546C555.121,427.546 555.095,427.546 555.068,427.546L555.068,427.457ZM554.911,427.457C554.937,427.457 554.963,427.457 554.989,427.457L554.989,427.546C554.963,427.546 554.937,427.546 554.911,427.546L554.911,427.457ZM554.753,427.457C554.78,427.457 554.806,427.457 554.832,427.457L554.832,427.546C554.806,427.546 554.779,427.546 554.753,427.546L554.753,427.457ZM554.595,427.457C554.622,427.457 554.648,427.457 554.674,427.457L554.674,427.546C554.648,427.546 554.622,427.546 554.595,427.546L554.595,427.457ZM554.438,427.457C554.464,427.457 554.491,427.457 554.517,427.457L554.517,427.546C554.491,427.546 554.464,427.546 554.438,427.546L554.438,427.457ZM554.28,427.457C554.307,427.457 554.333,427.457 554.359,427.457L554.359,427.546C554.333,427.546 554.307,427.546 554.28,427.546L554.28,427.457ZM554.123,427.457C554.149,427.457 554.175,427.457 554.201,427.457L554.201,427.546C554.175,427.546 554.149,427.546 554.123,427.546L554.123,427.457ZM553.965,427.457C553.991,427.457 554.018,427.457 554.044,427.457L554.044,427.546C554.018,427.546 553.991,427.546 553.965,427.546L553.965,427.457ZM553.807,427.457C553.834,427.457 553.86,427.457 553.886,427.457L553.886,427.546C553.86,427.546 553.834,427.546 553.807,427.546L553.807,427.457ZM553.65,427.457C553.676,427.457 553.702,427.457 553.729,427.457L553.729,427.546C553.702,427.546 553.676,427.546 553.65,427.546L553.65,427.457ZM553.492,427.457C553.519,427.457 553.545,427.457 553.571,427.457L553.571,427.546C553.545,427.546 553.519,427.546 553.492,427.546L553.492,427.457ZM553.335,427.457C553.361,427.457 553.387,427.457 553.413,427.457L553.413,427.546C553.387,427.546 553.361,427.546 553.335,427.546L553.335,427.457ZM553.177,427.457C553.203,427.457 553.23,427.457 553.256,427.457L553.256,427.546C553.23,427.546 553.203,427.546 553.177,427.546L553.177,427.457ZM553.019,427.457C553.046,427.457 553.072,427.457 553.098,427.457L553.098,427.546C553.072,427.546 553.046,427.546 553.019,427.546L553.019,427.457ZM552.862,427.457C552.888,427.457 552.914,427.457 552.941,427.457L552.941,427.546C552.914,427.546 552.888,427.546 552.862,427.546L552.862,427.457ZM552.704,427.457C552.731,427.457 552.757,427.457 552.783,427.457L552.783,427.546C552.757,427.546 552.731,427.546 552.704,427.546L552.704,427.457ZM552.547,427.457C552.573,427.457 552.599,427.457 552.625,427.457L552.625,427.546C552.599,427.546 552.573,427.546 552.547,427.546L552.547,427.457ZM552.389,427.457C552.415,427.457 552.442,427.457 552.468,427.457L552.468,427.546C552.442,427.546 552.415,427.546 552.389,427.546L552.389,427.457ZM552.231,427.457C552.258,427.457 552.284,427.457 552.31,427.457L552.31,427.546C552.284,427.546 552.258,427.546 552.231,427.546L552.231,427.457ZM552.074,427.457C552.1,427.457 552.126,427.457 552.153,427.457L552.153,427.546C552.126,427.546 552.1,427.546 552.074,427.546L552.074,427.457ZM551.916,427.457C551.943,427.457 551.969,427.457 551.995,427.457L551.995,427.546C551.969,427.546 551.943,427.546 551.916,427.546L551.916,427.457ZM551.759,427.457C551.785,427.457 551.811,427.457 551.837,427.457L551.837,427.546C551.811,427.546 551.785,427.546 551.759,427.546L551.759,427.457ZM551.601,427.457C551.627,427.457 551.654,427.457 551.68,427.457L551.68,427.546C551.654,427.546 551.627,427.546 551.601,427.546L551.601,427.457ZM551.443,427.457C551.47,427.457 551.496,427.457 551.522,427.457L551.522,427.546C551.496,427.546 551.47,427.546 551.443,427.546L551.443,427.457ZM551.286,427.457C551.312,427.457 551.338,427.457 551.365,427.457L551.365,427.546C551.338,427.546 551.312,427.546 551.286,427.546L551.286,427.457ZM551.128,427.457C551.154,427.457 551.181,427.457 551.207,427.457L551.207,427.546C551.181,427.546 551.154,427.546 551.128,427.546L551.128,427.457ZM550.971,427.457C550.997,427.457 551.023,427.457 551.049,427.457L551.049,427.546C551.023,427.546 550.997,427.546 550.971,427.546L550.971,427.457ZM550.813,427.457C550.839,427.457 550.866,427.457 550.892,427.457L550.892,427.546C550.865,427.546 550.839,427.546 550.813,427.546L550.813,427.457ZM550.655,427.457C550.682,427.457 550.708,427.457 550.734,427.457L550.734,427.546C550.708,427.546 550.682,427.546 550.655,427.546L550.655,427.457ZM550.498,427.457C550.524,427.457 550.55,427.457 550.577,427.457L550.577,427.546C550.55,427.546 550.524,427.546 550.498,427.546L550.498,427.457ZM550.34,427.457C550.366,427.457 550.393,427.457 550.419,427.457L550.419,427.546C550.393,427.546 550.366,427.546 550.34,427.546L550.34,427.457ZM550.183,427.457C550.209,427.457 550.235,427.457 550.261,427.457L550.261,427.546C550.235,427.546 550.209,427.546 550.183,427.546L550.183,427.457ZM550.025,427.457C550.051,427.457 550.077,427.457 550.104,427.457L550.104,427.546C550.077,427.546 550.051,427.546 550.025,427.546L550.025,427.457ZM549.867,427.457C549.894,427.457 549.92,427.457 549.946,427.457L549.946,427.546C549.92,427.546 549.894,427.546 549.867,427.546L549.867,427.457ZM549.71,427.457C549.736,427.457 549.762,427.457 549.789,427.457L549.789,427.546C549.762,427.546 549.736,427.546 549.71,427.546L549.71,427.457ZM549.552,427.457C549.578,427.457 549.605,427.457 549.631,427.457L549.631,427.546C549.605,427.546 549.578,427.546 549.552,427.546L549.552,427.457ZM549.395,427.457C549.421,427.457 549.447,427.457 549.473,427.457L549.473,427.546C549.447,427.546 549.421,427.546 549.395,427.546L549.395,427.457ZM549.237,427.457C549.263,427.457 549.289,427.457 549.316,427.457L549.316,427.546C549.289,427.546 549.263,427.546 549.237,427.546L549.237,427.457ZM549.079,427.457C549.106,427.457 549.132,427.457 549.158,427.457L549.158,427.546C549.132,427.546 549.106,427.546 549.079,427.546L549.079,427.457ZM548.922,427.457C548.948,427.457 548.974,427.457 549.001,427.457L549.001,427.546C548.974,427.546 548.948,427.546 548.922,427.546L548.922,427.457ZM548.764,427.457C548.79,427.457 548.817,427.457 548.843,427.457L548.843,427.546C548.817,427.546 548.79,427.546 548.764,427.546L548.764,427.457ZM548.607,427.457C548.633,427.457 548.659,427.457 548.685,427.457L548.685,427.546C548.659,427.546 548.633,427.546 548.607,427.546L548.607,427.457ZM548.449,427.457C548.475,427.457 548.501,427.457 548.528,427.457L548.528,427.546C548.501,427.546 548.475,427.546 548.449,427.546L548.449,427.457ZM548.291,427.457C548.318,427.457 548.344,427.457 548.37,427.457L548.37,427.546C548.344,427.546 548.318,427.546 548.291,427.546L548.291,427.457ZM548.134,427.457C548.16,427.457 548.186,427.457 548.213,427.457L548.213,427.546C548.186,427.546 548.16,427.546 548.134,427.546L548.134,427.457ZM547.976,427.457C548.002,427.457 548.029,427.457 548.055,427.457L548.055,427.546C548.029,427.546 548.002,427.546 547.976,427.546L547.976,427.457ZM547.819,427.457C547.845,427.457 547.871,427.457 547.897,427.457L547.897,427.546C547.871,427.546 547.845,427.546 547.819,427.546L547.819,427.457ZM547.661,427.457C547.687,427.457 547.713,427.457 547.74,427.457L547.74,427.546C547.713,427.546 547.687,427.546 547.661,427.546L547.661,427.457ZM547.503,427.457C547.53,427.457 547.556,427.457 547.582,427.457L547.582,427.546C547.556,427.546 547.53,427.546 547.503,427.546L547.503,427.457ZM547.346,427.457C547.372,427.457 547.398,427.457 547.425,427.457L547.425,427.546C547.398,427.546 547.372,427.546 547.346,427.546L547.346,427.457ZM547.188,427.457C547.214,427.457 547.241,427.457 547.267,427.457L547.267,427.546C547.241,427.546 547.214,427.546 547.188,427.546L547.188,427.457ZM547.031,427.457C547.057,427.457 547.083,427.457 547.109,427.457L547.109,427.546C547.083,427.546 547.057,427.546 547.031,427.546L547.031,427.457ZM546.873,427.457C546.899,427.457 546.925,427.457 546.952,427.457L546.952,427.546C546.925,427.546 546.899,427.546 546.873,427.546L546.873,427.457ZM546.715,427.457C546.742,427.457 546.768,427.457 546.794,427.457L546.794,427.546C546.768,427.546 546.742,427.546 546.715,427.546L546.715,427.457ZM546.558,427.457C546.584,427.457 546.61,427.457 546.637,427.457L546.637,427.546C546.61,427.546 546.584,427.546 546.558,427.546L546.558,427.457ZM546.4,427.457C546.426,427.457 546.453,427.457 546.479,427.457L546.479,427.546C546.453,427.546 546.426,427.546 546.4,427.546L546.4,427.457ZM546.243,427.457C546.269,427.457 546.295,427.457 546.321,427.457L546.321,427.546C546.295,427.546 546.269,427.546 546.243,427.546L546.243,427.457ZM546.085,427.457C546.111,427.457 546.137,427.457 546.164,427.457L546.164,427.546C546.137,427.546 546.111,427.546 546.085,427.546L546.085,427.457ZM545.927,427.457C545.953,427.457 545.98,427.457 546.006,427.457L546.006,427.546C545.98,427.546 545.953,427.546 545.927,427.546L545.927,427.457ZM545.77,427.457C545.796,427.457 545.822,427.457 545.849,427.457L545.849,427.546C545.822,427.546 545.796,427.546 545.77,427.546L545.77,427.457ZM545.612,427.457C545.638,427.457 545.664,427.457 545.691,427.457L545.691,427.546C545.664,427.546 545.638,427.546 545.612,427.546L545.612,427.457ZM545.455,427.457C545.481,427.457 545.507,427.457 545.533,427.457L545.533,427.546C545.507,427.546 545.481,427.546 545.455,427.546L545.455,427.457ZM545.297,427.457C545.323,427.457 545.349,427.457 545.376,427.457L545.376,427.546C545.349,427.546 545.323,427.546 545.297,427.546L545.297,427.457ZM545.139,427.457C545.165,427.457 545.192,427.457 545.218,427.457L545.218,427.546C545.192,427.546 545.165,427.546 545.139,427.546L545.139,427.457ZM544.982,427.457C545.008,427.457 545.034,427.457 545.061,427.457L545.061,427.546C545.034,427.546 545.008,427.546 544.982,427.546L544.982,427.457ZM544.824,427.457C544.85,427.457 544.876,427.457 544.903,427.457L544.903,427.546C544.876,427.546 544.85,427.546 544.824,427.546L544.824,427.457ZM544.667,427.457C544.692,427.457 544.719,427.457 544.745,427.457L544.745,427.546C544.719,427.546 544.692,427.546 544.667,427.546L544.667,427.457ZM544.509,427.457C544.535,427.457 544.561,427.457 544.588,427.457L544.588,427.546C544.561,427.546 544.535,427.546 544.509,427.546L544.509,427.457ZM544.351,427.457C544.377,427.457 544.403,427.457 544.43,427.457L544.43,427.546C544.403,427.546 544.377,427.546 544.351,427.546L544.351,427.457ZM544.194,427.457C544.219,427.457 544.245,427.457 544.273,427.457L544.273,427.546C544.245,427.546 544.219,427.546 544.194,427.546L544.194,427.457ZM544.036,427.457C544.06,427.457 544.086,427.457 544.115,427.457L544.115,427.546C544.086,427.546 544.06,427.546 544.036,427.546L544.036,427.457ZM543.879,427.457C543.895,427.457 543.922,427.457 543.957,427.457L543.957,427.546C543.922,427.546 543.895,427.546 543.879,427.546L543.879,427.457ZM543.818,427.655C543.818,427.62 543.818,427.59 543.818,427.566L543.897,427.566C543.897,427.59 543.897,427.62 543.897,427.655L543.818,427.655ZM557.166,427.669C557.166,427.696 557.166,427.726 557.166,427.758L557.087,427.758C557.087,427.726 557.087,427.696 557.087,427.669L557.166,427.669ZM543.818,427.833C543.818,427.802 543.818,427.772 543.818,427.744L543.897,427.744C543.897,427.772 543.897,427.802 543.897,427.833L543.818,427.833ZM557.166,427.847C557.166,427.875 557.166,427.905 557.166,427.936L557.087,427.936C557.087,427.905 557.087,427.875 557.087,427.847L557.166,427.847ZM543.818,428.011C543.818,427.98 543.818,427.951 543.818,427.922L543.897,427.922C543.897,427.951 543.897,427.98 543.897,428.011L543.818,428.011ZM557.166,428.025C557.166,428.054 557.166,428.083 557.166,428.114L557.087,428.114C557.087,428.083 557.087,428.054 557.087,428.025L557.166,428.025ZM543.818,428.189C543.818,428.159 543.818,428.129 543.818,428.1L543.897,428.1C543.897,428.129 543.897,428.159 543.897,428.189L543.818,428.189ZM557.166,428.203C557.166,428.232 557.166,428.262 557.166,428.292L557.087,428.292C557.087,428.262 557.087,428.232 557.087,428.203L557.166,428.203ZM543.818,428.367C543.818,428.337 543.818,428.307 543.818,428.278L543.897,428.278C543.897,428.307 543.897,428.337 543.897,428.367L543.818,428.367ZM557.166,428.381C557.166,428.41 557.166,428.44 557.166,428.47L557.087,428.47C557.087,428.44 557.087,428.41 557.087,428.381L557.166,428.381ZM543.818,428.545C543.818,428.515 543.818,428.485 543.818,428.456L543.897,428.456C543.897,428.485 543.897,428.515 543.897,428.545L543.818,428.545ZM557.166,428.559C557.166,428.588 557.166,428.618 557.166,428.648L557.087,428.648C557.087,428.618 557.087,428.588 557.087,428.559L557.166,428.559ZM543.818,428.723C543.818,428.693 543.818,428.663 543.818,428.634L543.897,428.634C543.897,428.663 543.897,428.693 543.897,428.723L543.818,428.723ZM557.166,428.737C557.166,428.766 557.166,428.796 557.166,428.826L557.087,428.826C557.087,428.796 557.087,428.766 557.087,428.737L557.166,428.737ZM543.818,428.901C543.818,428.871 543.818,428.841 543.818,428.812L543.897,428.812C543.897,428.841 543.897,428.871 543.897,428.901L543.818,428.901ZM557.166,428.915C557.166,428.944 557.166,428.974 557.166,429.004L557.087,429.004C557.087,428.974 557.087,428.944 557.087,428.915L557.166,428.915ZM543.818,429.079C543.818,429.049 543.818,429.019 543.818,428.99L543.897,428.99C543.897,429.019 543.897,429.049 543.897,429.079L543.818,429.079ZM557.166,429.093C557.166,429.122 557.166,429.152 557.166,429.182L557.087,429.182C557.087,429.152 557.087,429.122 557.087,429.093L557.166,429.093ZM543.818,429.257C543.818,429.227 543.818,429.197 543.818,429.168L543.897,429.168C543.897,429.197 543.897,429.227 543.897,429.257L543.818,429.257ZM557.166,429.271C557.166,429.3 557.166,429.33 557.166,429.36L557.087,429.36C557.087,429.33 557.087,429.3 557.087,429.271L557.166,429.271ZM543.818,429.435C543.818,429.405 543.818,429.375 543.818,429.346L543.897,429.346C543.897,429.375 543.897,429.405 543.897,429.435L543.818,429.435ZM557.166,429.449C557.166,429.478 557.166,429.508 557.166,429.538L557.087,429.538C557.087,429.508 557.087,429.478 557.087,429.449L557.166,429.449ZM543.818,429.613C543.818,429.583 543.818,429.553 543.818,429.524L543.897,429.524C543.897,429.553 543.897,429.583 543.897,429.613L543.818,429.613ZM557.166,429.627C557.166,429.656 557.166,429.686 557.166,429.715L557.087,429.715C557.087,429.686 557.087,429.656 557.087,429.627L557.166,429.627ZM543.818,429.791C543.818,429.761 543.818,429.731 543.818,429.702L543.897,429.702C543.897,429.731 543.897,429.761 543.897,429.791L543.818,429.791ZM557.166,429.804C557.166,429.834 557.166,429.864 557.166,429.893L557.087,429.893C557.087,429.864 557.087,429.834 557.087,429.804L557.166,429.804ZM543.818,429.969C543.818,429.939 543.818,429.909 543.818,429.88L543.897,429.88C543.897,429.909 543.897,429.939 543.897,429.969L543.818,429.969ZM557.166,429.982C557.166,430.012 557.166,430.042 557.166,430.071L557.087,430.071C557.087,430.042 557.087,430.012 557.087,429.982L557.166,429.982ZM543.818,430.146C543.818,430.117 543.818,430.087 543.818,430.058L543.897,430.058C543.897,430.087 543.897,430.117 543.897,430.146L543.818,430.146ZM557.166,430.16C557.166,430.19 557.166,430.22 557.166,430.249L557.087,430.249C557.087,430.22 557.087,430.19 557.087,430.16L557.166,430.16ZM543.818,430.324C543.818,430.295 543.818,430.265 543.818,430.235L543.897,430.235C543.897,430.265 543.897,430.295 543.897,430.324L543.818,430.324ZM557.166,430.338C557.166,430.368 557.166,430.398 557.166,430.427L557.087,430.427C557.087,430.398 557.087,430.368 557.087,430.338L557.166,430.338ZM543.818,430.502C543.818,430.473 543.818,430.443 543.818,430.413L543.897,430.413C543.897,430.443 543.897,430.473 543.897,430.502L543.818,430.502ZM557.166,430.516C557.166,430.546 557.166,430.576 557.166,430.605L557.087,430.605C557.087,430.576 557.087,430.546 557.087,430.516L557.166,430.516ZM543.818,430.68C543.818,430.651 543.818,430.621 543.818,430.591L543.897,430.591C543.897,430.621 543.897,430.651 543.897,430.68L543.818,430.68ZM557.166,430.694C557.166,430.724 557.166,430.754 557.166,430.783L557.087,430.783C557.087,430.754 557.087,430.724 557.087,430.694L557.166,430.694ZM543.818,430.858C543.818,430.829 543.818,430.799 543.818,430.769L543.897,430.769C543.897,430.799 543.897,430.829 543.897,430.858L543.818,430.858ZM557.166,430.872C557.166,430.902 557.166,430.932 557.166,430.961L557.087,430.961C557.087,430.932 557.087,430.902 557.087,430.872L557.166,430.872ZM543.818,431.036C543.818,431.007 543.818,430.977 543.818,430.947L543.897,430.947C543.897,430.977 543.897,431.007 543.897,431.036L543.818,431.036ZM557.166,431.05C557.166,431.08 557.166,431.11 557.166,431.139L557.087,431.139C557.087,431.11 557.087,431.08 557.087,431.05L557.166,431.05ZM543.818,431.214C543.818,431.185 543.818,431.155 543.818,431.125L543.897,431.125C543.897,431.155 543.897,431.185 543.897,431.214L543.818,431.214ZM557.166,431.228C557.166,431.258 557.166,431.288 557.166,431.317L557.087,431.317C557.087,431.288 557.087,431.258 557.087,431.228L557.166,431.228ZM543.818,431.392C543.818,431.363 543.818,431.333 543.818,431.303L543.897,431.303C543.897,431.333 543.897,431.363 543.897,431.392L543.818,431.392ZM557.166,431.406C557.166,431.436 557.166,431.466 557.166,431.495L557.087,431.495C557.087,431.466 557.087,431.436 557.087,431.406L557.166,431.406ZM543.818,431.57C543.818,431.541 543.818,431.512 543.818,431.481L543.897,431.481C543.897,431.512 543.897,431.541 543.897,431.57L543.818,431.57ZM557.166,431.584C557.166,431.615 557.166,431.644 557.166,431.673L557.087,431.673C557.087,431.644 557.087,431.615 557.087,431.584L557.166,431.584ZM543.818,431.748C543.818,431.72 543.818,431.69 543.818,431.659L543.897,431.659C543.897,431.69 543.897,431.72 543.897,431.748L543.818,431.748ZM557.166,431.762C557.166,431.793 557.166,431.823 557.166,431.851L557.087,431.851C557.087,431.823 557.087,431.793 557.087,431.762L557.166,431.762ZM543.818,431.926C543.818,431.899 543.818,431.869 543.818,431.837L543.897,431.837C543.897,431.869 543.897,431.899 543.897,431.926L543.818,431.926ZM557.166,431.94C557.166,431.975 557.166,432.004 557.166,432.029L557.087,432.029C557.087,432.004 557.087,431.975 557.087,431.94L557.166,431.94ZM561.709,432.06C561.739,432.06 561.765,432.06 561.787,432.06L561.787,432.149C561.765,432.149 561.739,432.149 561.709,432.149L561.709,432.06ZM561.551,432.06C561.579,432.06 561.605,432.06 561.63,432.06L561.63,432.149C561.605,432.149 561.579,432.149 561.551,432.149L561.551,432.06ZM561.393,432.06C561.421,432.06 561.447,432.06 561.472,432.06L561.472,432.149C561.447,432.149 561.421,432.149 561.393,432.149L561.393,432.06ZM561.236,432.06C561.263,432.06 561.289,432.06 561.315,432.06L561.314,432.149C561.289,432.149 561.263,432.149 561.236,432.149L561.236,432.06ZM561.078,432.06C561.105,432.06 561.131,432.06 561.157,432.06L561.157,432.149C561.131,432.149 561.105,432.149 561.078,432.149L561.078,432.06ZM560.92,432.06C560.947,432.06 560.973,432.06 560.999,432.06L560.999,432.149C560.973,432.149 560.947,432.149 560.92,432.149L560.92,432.06ZM560.763,432.06C560.789,432.06 560.816,432.06 560.842,432.06L560.842,432.149C560.816,432.149 560.789,432.149 560.763,432.149L560.763,432.06ZM560.605,432.06C560.632,432.06 560.658,432.06 560.684,432.06L560.684,432.149C560.658,432.149 560.632,432.149 560.605,432.149L560.605,432.06ZM560.448,432.06C560.474,432.06 560.5,432.06 560.526,432.06L560.526,432.149C560.5,432.149 560.474,432.149 560.448,432.149L560.448,432.06ZM560.29,432.06C560.317,432.06 560.343,432.06 560.369,432.06L560.369,432.149C560.343,432.149 560.316,432.149 560.29,432.149L560.29,432.06ZM560.132,432.06C560.159,432.06 560.185,432.06 560.211,432.06L560.211,432.149C560.185,432.149 560.159,432.149 560.132,432.149L560.132,432.06ZM559.975,432.06C560.001,432.06 560.027,432.06 560.054,432.06L560.054,432.149C560.027,432.149 560.001,432.149 559.975,432.149L559.975,432.06ZM559.817,432.06C559.844,432.06 559.87,432.06 559.896,432.06L559.896,432.149C559.87,432.149 559.844,432.149 559.817,432.149L559.817,432.06ZM559.66,432.06C559.686,432.06 559.712,432.06 559.738,432.06L559.738,432.149C559.712,432.149 559.686,432.149 559.66,432.149L559.66,432.06ZM559.502,432.06C559.528,432.06 559.555,432.06 559.581,432.06L559.581,432.149C559.555,432.149 559.528,432.149 559.502,432.149L559.502,432.06ZM559.344,432.06C559.371,432.06 559.397,432.06 559.423,432.06L559.423,432.149C559.397,432.149 559.371,432.149 559.344,432.149L559.344,432.06ZM559.187,432.06C559.213,432.06 559.239,432.06 559.266,432.06L559.266,432.149C559.239,432.149 559.213,432.149 559.187,432.149L559.187,432.06ZM559.029,432.06C559.055,432.06 559.082,432.06 559.108,432.06L559.108,432.149C559.082,432.149 559.055,432.149 559.029,432.149L559.029,432.06ZM558.872,432.06C558.898,432.06 558.924,432.06 558.95,432.06L558.95,432.149C558.924,432.149 558.898,432.149 558.872,432.149L558.872,432.06ZM558.714,432.06C558.74,432.06 558.766,432.06 558.793,432.06L558.793,432.149C558.766,432.149 558.74,432.149 558.714,432.149L558.714,432.06ZM558.556,432.06C558.583,432.06 558.609,432.06 558.635,432.06L558.635,432.149C558.609,432.149 558.583,432.149 558.556,432.149L558.556,432.06ZM558.399,432.06C558.425,432.06 558.451,432.06 558.478,432.06L558.478,432.149C558.451,432.149 558.425,432.149 558.399,432.149L558.399,432.06ZM558.241,432.06C558.267,432.06 558.294,432.06 558.32,432.06L558.32,432.149C558.294,432.149 558.267,432.149 558.241,432.149L558.241,432.06ZM558.084,432.06C558.11,432.06 558.136,432.06 558.162,432.06L558.162,432.149C558.136,432.149 558.11,432.149 558.084,432.149L558.084,432.06ZM557.926,432.06C557.952,432.06 557.978,432.06 558.005,432.06L558.005,432.149C557.978,432.149 557.952,432.149 557.926,432.149L557.926,432.06ZM557.768,432.06C557.794,432.06 557.82,432.06 557.847,432.06L557.847,432.149C557.82,432.149 557.794,432.149 557.768,432.149L557.768,432.06ZM557.611,432.06C557.636,432.06 557.663,432.06 557.69,432.06L557.69,432.149C557.663,432.149 557.636,432.149 557.611,432.149L557.611,432.06ZM557.453,432.06C557.478,432.06 557.505,432.06 557.532,432.06L557.532,432.149C557.505,432.149 557.478,432.149 557.453,432.149L557.453,432.06ZM557.296,432.06C557.32,432.06 557.346,432.06 557.374,432.06L557.374,432.149C557.346,432.149 557.32,432.149 557.296,432.149L557.296,432.06ZM557.138,432.06C557.152,432.06 557.179,432.06 557.217,432.06L557.217,432.149C557.179,432.149 557.152,432.149 557.138,432.149L557.138,432.06ZM561.905,432.105C561.905,432.108 561.905,432.14 561.905,432.194L561.827,432.194C561.827,432.14 561.827,432.108 561.827,432.105L561.905,432.105ZM543.824,432.096L543.818,432.103C543.818,432.103 543.818,432.067 543.818,432.015L543.897,432.015C543.897,432.067 543.897,432.103 543.897,432.103C543.897,432.103 543.857,432.059 543.857,432.059L543.86,432.063C543.869,432.08 543.903,432.148 543.857,432.148C543.855,432.148 543.844,432.148 543.824,432.148L543.824,432.096ZM543.666,432.059C543.696,432.059 543.722,432.059 543.745,432.059L543.745,432.148C543.722,432.148 543.696,432.148 543.666,432.148L543.666,432.059ZM543.509,432.059C543.537,432.059 543.563,432.059 543.588,432.059L543.588,432.148C543.563,432.148 543.537,432.148 543.509,432.148L543.509,432.059ZM543.351,432.059C543.378,432.059 543.405,432.059 543.43,432.059L543.43,432.148C543.405,432.148 543.378,432.148 543.351,432.148L543.351,432.059ZM543.194,432.059C543.221,432.059 543.247,432.059 543.272,432.059L543.272,432.148C543.247,432.148 543.221,432.148 543.194,432.148L543.194,432.059ZM543.036,432.059C543.063,432.059 543.089,432.059 543.115,432.059L543.115,432.148C543.089,432.148 543.063,432.148 543.036,432.148L543.036,432.059ZM542.878,432.059C542.905,432.059 542.931,432.059 542.957,432.059L542.957,432.148C542.931,432.148 542.905,432.148 542.878,432.148L542.878,432.059ZM542.721,432.059C542.747,432.059 542.774,432.059 542.8,432.059L542.8,432.148C542.774,432.148 542.747,432.148 542.721,432.148L542.721,432.059ZM542.563,432.059C542.59,432.059 542.616,432.059 542.642,432.059L542.642,432.148C542.616,432.148 542.59,432.148 542.563,432.148L542.563,432.059ZM542.406,432.059C542.432,432.059 542.458,432.059 542.484,432.059L542.484,432.148C542.458,432.148 542.432,432.148 542.406,432.148L542.406,432.059ZM542.248,432.059C542.274,432.059 542.301,432.059 542.327,432.059L542.327,432.148C542.301,432.148 542.274,432.148 542.248,432.148L542.248,432.059ZM542.09,432.059C542.117,432.059 542.143,432.059 542.169,432.059L542.169,432.148C542.143,432.148 542.117,432.148 542.09,432.148L542.09,432.059ZM541.933,432.059C541.959,432.059 541.985,432.059 542.012,432.059L542.012,432.148C541.985,432.148 541.959,432.148 541.933,432.148L541.933,432.059ZM541.775,432.059C541.802,432.059 541.828,432.059 541.854,432.059L541.854,432.148C541.828,432.148 541.802,432.148 541.775,432.148L541.775,432.059ZM541.618,432.059C541.644,432.059 541.67,432.059 541.696,432.059L541.696,432.148C541.67,432.148 541.644,432.148 541.618,432.148L541.618,432.059ZM541.46,432.059C541.486,432.059 541.513,432.059 541.539,432.059L541.539,432.148C541.513,432.148 541.486,432.148 541.46,432.148L541.46,432.059ZM541.302,432.059C541.329,432.059 541.355,432.059 541.381,432.059L541.381,432.148C541.355,432.148 541.329,432.148 541.302,432.148L541.302,432.059ZM541.145,432.059C541.171,432.059 541.197,432.059 541.224,432.059L541.224,432.148C541.197,432.148 541.171,432.148 541.145,432.148L541.145,432.059ZM540.987,432.059C541.013,432.059 541.04,432.059 541.066,432.059L541.066,432.148C541.04,432.148 541.013,432.148 540.987,432.148L540.987,432.059ZM540.83,432.059C540.856,432.059 540.882,432.059 540.908,432.059L540.908,432.148C540.882,432.148 540.856,432.148 540.83,432.148L540.83,432.059ZM540.672,432.059C540.698,432.059 540.724,432.059 540.751,432.059L540.751,432.148C540.724,432.148 540.698,432.148 540.672,432.148L540.672,432.059ZM540.514,432.059C540.54,432.059 540.567,432.059 540.593,432.059L540.593,432.148C540.567,432.148 540.54,432.148 540.514,432.148L540.514,432.059ZM540.357,432.059C540.383,432.059 540.409,432.059 540.436,432.059L540.436,432.148C540.409,432.148 540.383,432.148 540.357,432.148L540.357,432.059ZM540.199,432.059C540.225,432.059 540.251,432.059 540.278,432.059L540.278,432.148C540.251,432.148 540.225,432.148 540.199,432.148L540.199,432.059ZM540.042,432.059C540.067,432.059 540.094,432.059 540.12,432.059L540.12,432.148C540.094,432.148 540.067,432.148 540.042,432.148L540.042,432.059ZM539.884,432.059C539.91,432.059 539.936,432.059 539.963,432.059L539.963,432.148C539.936,432.148 539.91,432.148 539.884,432.148L539.884,432.059ZM539.726,432.059C539.752,432.059 539.778,432.059 539.805,432.059L539.805,432.148C539.778,432.148 539.752,432.148 539.726,432.148L539.726,432.059ZM539.569,432.059C539.594,432.059 539.62,432.059 539.648,432.059L539.648,432.148C539.62,432.148 539.594,432.148 539.569,432.148L539.569,432.059ZM539.411,432.059C539.436,432.059 539.462,432.059 539.49,432.059L539.49,432.148C539.462,432.148 539.436,432.148 539.411,432.148L539.411,432.059ZM539.254,432.059C539.277,432.059 539.303,432.059 539.332,432.059L539.332,432.148C539.303,432.148 539.277,432.148 539.254,432.148L539.254,432.059ZM539.095,432.128L539.078,432.128C539.078,432.114 539.078,432.104 539.078,432.104C539.078,432.104 539.118,432.059 539.118,432.059C539.118,432.059 539.138,432.059 539.175,432.059L539.175,432.148C539.141,432.148 539.122,432.148 539.118,432.148C539.102,432.148 539.096,432.14 539.095,432.128ZM561.905,432.283C561.905,432.31 561.905,432.34 561.905,432.372L561.827,432.372C561.827,432.34 561.827,432.31 561.827,432.283L561.905,432.283ZM539.078,432.306C539.078,432.273 539.078,432.243 539.078,432.217L539.157,432.217C539.157,432.243 539.157,432.273 539.157,432.306L539.078,432.306ZM561.905,432.461C561.905,432.489 561.905,432.519 561.905,432.55L561.827,432.55C561.827,432.519 561.827,432.489 561.827,432.461L561.905,432.461ZM539.078,432.484C539.078,432.453 539.078,432.423 539.078,432.395L539.157,432.395C539.157,432.423 539.157,432.453 539.157,432.484L539.078,432.484ZM561.905,432.639C561.905,432.668 561.905,432.697 561.905,432.728L561.827,432.728C561.827,432.697 561.827,432.668 561.827,432.639L561.905,432.639ZM539.078,432.662C539.078,432.632 539.078,432.602 539.078,432.573L539.157,432.573C539.157,432.602 539.157,432.632 539.157,432.662L539.078,432.662ZM561.905,432.817C561.905,432.846 561.905,432.876 561.905,432.906L561.827,432.906C561.827,432.876 561.827,432.846 561.827,432.817L561.905,432.817ZM539.078,432.84C539.078,432.81 539.078,432.78 539.078,432.751L539.157,432.751C539.157,432.78 539.157,432.81 539.157,432.84L539.078,432.84ZM561.905,432.995C561.905,433.024 561.905,433.054 561.905,433.083L561.826,433.083C561.826,433.054 561.826,433.024 561.826,432.995L561.905,432.995ZM539.078,433.018C539.078,432.988 539.078,432.959 539.078,432.929L539.157,432.929C539.157,432.959 539.157,432.988 539.157,433.018L539.078,433.018ZM561.905,433.172C561.905,433.202 561.905,433.232 561.905,433.261L561.826,433.261C561.826,433.232 561.826,433.202 561.826,433.172L561.905,433.172ZM539.078,433.196C539.078,433.166 539.078,433.137 539.078,433.107L539.157,433.107C539.157,433.137 539.157,433.166 539.157,433.196L539.078,433.196ZM561.905,433.35C561.905,433.38 561.905,433.41 561.905,433.439L561.826,433.439C561.826,433.41 561.826,433.38 561.826,433.35L561.905,433.35ZM539.078,433.374C539.078,433.344 539.078,433.315 539.078,433.285L539.157,433.285C539.157,433.315 539.157,433.344 539.157,433.374L539.078,433.374ZM561.905,433.528C561.905,433.558 561.905,433.588 561.905,433.617L561.826,433.617C561.826,433.588 561.826,433.558 561.826,433.528L561.905,433.528ZM539.078,433.552C539.078,433.523 539.078,433.493 539.078,433.463L539.157,433.463C539.157,433.493 539.157,433.523 539.157,433.552L539.078,433.552ZM561.905,433.706C561.905,433.737 561.905,433.767 561.905,433.795L561.826,433.795C561.826,433.767 561.826,433.737 561.826,433.706L561.905,433.706ZM539.078,433.73C539.078,433.701 539.078,433.671 539.078,433.641L539.157,433.641C539.157,433.671 539.157,433.701 539.157,433.73L539.078,433.73ZM561.905,433.884C561.905,433.916 561.905,433.945 561.905,433.973L561.826,433.973C561.826,433.945 561.826,433.916 561.826,433.884L561.905,433.884ZM539.078,433.908C539.078,433.879 539.078,433.85 539.078,433.819L539.157,433.819C539.157,433.85 539.157,433.879 539.157,433.908L539.078,433.908ZM561.905,434.062C561.905,434.097 561.905,434.127 561.905,434.151L561.826,434.151C561.826,434.127 561.826,434.097 561.826,434.062L561.905,434.062ZM539.078,434.086C539.078,434.059 539.078,434.029 539.078,433.997L539.157,433.997C539.157,434.029 539.157,434.059 539.157,434.086L539.078,434.086ZM561.85,434.267C561.835,434.267 561.808,434.267 561.771,434.267L561.771,434.178C561.808,434.178 561.835,434.178 561.85,434.178L561.85,434.267ZM561.692,434.267C561.669,434.267 561.642,434.267 561.614,434.267L561.614,434.178C561.642,434.178 561.669,434.178 561.692,434.178L561.692,434.267ZM561.535,434.267C561.51,434.267 561.484,434.267 561.456,434.267L561.456,434.178C561.484,434.178 561.51,434.178 561.535,434.178L561.535,434.267ZM561.377,434.267C561.352,434.267 561.326,434.267 561.298,434.267L561.298,434.178C561.326,434.178 561.352,434.178 561.377,434.178L561.377,434.267ZM561.22,434.267C561.194,434.267 561.168,434.267 561.141,434.267L561.141,434.178C561.168,434.178 561.194,434.178 561.22,434.178L561.22,434.267ZM561.062,434.267C561.036,434.267 561.01,434.267 560.983,434.267L560.983,434.178C561.01,434.178 561.036,434.178 561.062,434.178L561.062,434.267ZM560.904,434.267C560.879,434.267 560.852,434.267 560.826,434.267L560.826,434.178C560.852,434.178 560.879,434.178 560.904,434.178L560.904,434.267ZM560.747,434.267C560.721,434.267 560.695,434.267 560.668,434.267L560.668,434.178C560.695,434.178 560.721,434.178 560.747,434.178L560.747,434.267ZM560.589,434.267C560.563,434.267 560.537,434.267 560.51,434.267L560.51,434.178C560.537,434.178 560.563,434.178 560.589,434.178L560.589,434.267ZM560.432,434.267C560.406,434.267 560.379,434.267 560.353,434.267L560.353,434.178C560.379,434.178 560.406,434.178 560.432,434.178L560.432,434.267ZM560.274,434.267C560.248,434.267 560.222,434.267 560.195,434.267L560.195,434.178C560.222,434.178 560.248,434.178 560.274,434.178L560.274,434.267ZM560.116,434.267C560.09,434.267 560.064,434.267 560.038,434.267L560.038,434.178C560.064,434.178 560.09,434.178 560.116,434.178L560.116,434.267ZM559.959,434.267C559.933,434.267 559.906,434.267 559.88,434.267L559.88,434.178C559.906,434.178 559.933,434.178 559.959,434.178L559.959,434.267ZM559.801,434.267C559.775,434.267 559.749,434.267 559.722,434.267L559.722,434.178C559.749,434.178 559.775,434.178 559.801,434.178L559.801,434.267ZM559.644,434.267C559.618,434.267 559.591,434.267 559.565,434.267L559.565,434.178C559.591,434.178 559.618,434.178 559.644,434.178L559.644,434.267ZM559.486,434.267C559.46,434.267 559.434,434.267 559.407,434.267L559.407,434.178C559.434,434.178 559.46,434.178 559.486,434.178L559.486,434.267ZM559.328,434.267C559.302,434.267 559.276,434.267 559.25,434.267L559.25,434.178C559.276,434.178 559.302,434.178 559.328,434.178L559.328,434.267ZM559.171,434.267C559.145,434.267 559.118,434.267 559.092,434.267L559.092,434.178C559.118,434.178 559.145,434.178 559.171,434.178L559.171,434.267ZM559.013,434.267C558.987,434.267 558.961,434.267 558.934,434.267L558.934,434.178C558.961,434.178 558.987,434.178 559.013,434.178L559.013,434.267ZM558.856,434.267C558.829,434.267 558.803,434.267 558.777,434.267L558.777,434.178C558.803,434.178 558.829,434.178 558.856,434.178L558.856,434.267ZM558.698,434.267C558.672,434.267 558.646,434.267 558.619,434.267L558.619,434.178C558.646,434.178 558.672,434.178 558.698,434.178L558.698,434.267ZM558.54,434.267C558.514,434.267 558.488,434.267 558.462,434.267L558.462,434.178C558.488,434.178 558.514,434.178 558.54,434.178L558.54,434.267ZM558.383,434.267C558.357,434.267 558.33,434.267 558.304,434.267L558.304,434.178C558.33,434.178 558.357,434.178 558.383,434.178L558.383,434.267ZM558.225,434.267C558.199,434.267 558.173,434.267 558.146,434.267L558.146,434.178C558.173,434.178 558.199,434.178 558.225,434.178L558.225,434.267ZM558.068,434.267C558.041,434.267 558.015,434.267 557.989,434.267L557.989,434.178C558.015,434.178 558.041,434.178 558.068,434.178L558.068,434.267ZM557.91,434.267C557.884,434.267 557.858,434.267 557.831,434.267L557.831,434.178C557.858,434.178 557.884,434.178 557.91,434.178L557.91,434.267ZM557.752,434.267C557.726,434.267 557.7,434.267 557.674,434.267L557.674,434.178C557.7,434.178 557.726,434.178 557.752,434.178L557.752,434.267ZM557.595,434.267C557.569,434.267 557.542,434.267 557.516,434.267L557.516,434.178C557.542,434.178 557.569,434.178 557.595,434.178L557.595,434.267ZM557.437,434.267C557.411,434.267 557.385,434.267 557.358,434.267L557.358,434.178C557.385,434.178 557.411,434.178 557.437,434.178L557.437,434.267ZM557.28,434.267C557.253,434.267 557.227,434.267 557.201,434.267L557.201,434.178C557.227,434.178 557.253,434.178 557.28,434.178L557.28,434.267ZM557.122,434.267C557.096,434.267 557.07,434.267 557.043,434.267L557.043,434.178C557.07,434.178 557.096,434.178 557.122,434.178L557.122,434.267ZM556.964,434.267C556.938,434.267 556.912,434.267 556.886,434.267L556.886,434.178C556.912,434.178 556.938,434.178 556.964,434.178L556.964,434.267ZM556.807,434.267C556.781,434.267 556.754,434.267 556.728,434.267L556.728,434.178C556.754,434.178 556.781,434.178 556.807,434.178L556.807,434.267ZM556.649,434.267C556.623,434.267 556.597,434.267 556.57,434.267L556.57,434.178C556.597,434.178 556.623,434.178 556.649,434.178L556.649,434.267ZM556.492,434.267C556.465,434.267 556.439,434.267 556.413,434.267L556.413,434.178C556.439,434.178 556.465,434.178 556.492,434.178L556.492,434.267ZM556.334,434.267C556.308,434.266 556.282,434.266 556.255,434.266L556.255,434.178C556.282,434.178 556.308,434.178 556.334,434.178L556.334,434.267ZM556.176,434.266C556.15,434.266 556.124,434.266 556.098,434.266L556.098,434.178C556.124,434.178 556.15,434.178 556.176,434.178L556.176,434.266ZM556.019,434.266C555.993,434.266 555.966,434.266 555.94,434.266L555.94,434.178C555.966,434.178 555.993,434.178 556.019,434.178L556.019,434.266ZM555.861,434.266C555.835,434.266 555.809,434.266 555.782,434.266L555.782,434.178C555.809,434.178 555.835,434.178 555.861,434.178L555.861,434.266ZM555.704,434.266C555.677,434.266 555.651,434.266 555.625,434.266L555.625,434.177C555.651,434.178 555.677,434.178 555.704,434.178L555.704,434.266ZM555.546,434.266C555.52,434.266 555.494,434.266 555.467,434.266L555.467,434.177C555.494,434.177 555.52,434.177 555.546,434.177L555.546,434.266ZM555.388,434.266C555.362,434.266 555.336,434.266 555.31,434.266L555.31,434.177C555.336,434.177 555.362,434.177 555.388,434.177L555.388,434.266ZM555.231,434.266C555.205,434.266 555.178,434.266 555.152,434.266L555.152,434.177C555.178,434.177 555.205,434.177 555.231,434.177L555.231,434.266ZM555.073,434.266C555.047,434.266 555.021,434.266 554.994,434.266L554.994,434.177C555.021,434.177 555.047,434.177 555.073,434.177L555.073,434.266ZM554.916,434.266C554.889,434.266 554.863,434.266 554.837,434.266L554.837,434.177C554.863,434.177 554.889,434.177 554.916,434.177L554.916,434.266ZM554.758,434.266C554.732,434.266 554.705,434.266 554.679,434.266L554.679,434.177C554.705,434.177 554.732,434.177 554.758,434.177L554.758,434.266ZM554.6,434.266C554.574,434.266 554.548,434.266 554.522,434.266L554.522,434.177C554.548,434.177 554.574,434.177 554.6,434.177L554.6,434.266ZM554.443,434.266C554.417,434.266 554.39,434.266 554.364,434.266L554.364,434.177C554.39,434.177 554.417,434.177 554.443,434.177L554.443,434.266ZM554.285,434.266C554.259,434.266 554.233,434.266 554.206,434.266L554.206,434.177C554.233,434.177 554.259,434.177 554.285,434.177L554.285,434.266ZM554.128,434.266C554.101,434.266 554.075,434.266 554.049,434.266L554.049,434.177C554.075,434.177 554.101,434.177 554.128,434.177L554.128,434.266ZM553.97,434.266C553.944,434.266 553.917,434.266 553.891,434.266L553.891,434.177C553.917,434.177 553.944,434.177 553.97,434.177L553.97,434.266ZM553.812,434.266C553.786,434.266 553.76,434.266 553.733,434.266L553.733,434.177C553.76,434.177 553.786,434.177 553.812,434.177L553.812,434.266ZM553.655,434.266C553.628,434.266 553.602,434.266 553.576,434.266L553.576,434.177C553.602,434.177 553.628,434.177 553.655,434.177L553.655,434.266ZM553.497,434.266C553.471,434.266 553.445,434.266 553.418,434.266L553.418,434.177C553.445,434.177 553.471,434.177 553.497,434.177L553.497,434.266ZM553.339,434.266C553.313,434.266 553.287,434.266 553.261,434.266L553.261,434.177C553.287,434.177 553.313,434.177 553.339,434.177L553.339,434.266ZM553.182,434.266C553.156,434.266 553.129,434.266 553.103,434.266L553.103,434.177C553.129,434.177 553.156,434.177 553.182,434.177L553.182,434.266ZM553.024,434.266C552.998,434.266 552.972,434.266 552.945,434.266L552.945,434.177C552.972,434.177 552.998,434.177 553.024,434.177L553.024,434.266ZM552.867,434.266C552.84,434.266 552.814,434.266 552.788,434.266L552.788,434.177C552.814,434.177 552.84,434.177 552.867,434.177L552.867,434.266ZM552.709,434.266C552.683,434.266 552.656,434.266 552.63,434.266L552.63,434.177C552.656,434.177 552.683,434.177 552.709,434.177L552.709,434.266ZM552.551,434.266C552.525,434.266 552.499,434.266 552.473,434.266L552.473,434.177C552.499,434.177 552.525,434.177 552.551,434.177L552.551,434.266ZM552.394,434.266C552.368,434.266 552.341,434.266 552.315,434.266L552.315,434.177C552.341,434.177 552.368,434.177 552.394,434.177L552.394,434.266ZM552.236,434.266C552.21,434.266 552.184,434.266 552.157,434.266L552.157,434.177C552.184,434.177 552.21,434.177 552.236,434.177L552.236,434.266ZM552.079,434.266C552.052,434.266 552.026,434.266 552,434.266L552,434.177C552.026,434.177 552.052,434.177 552.079,434.177L552.079,434.266ZM551.921,434.266C551.895,434.266 551.868,434.266 551.842,434.266L551.842,434.177C551.868,434.177 551.895,434.177 551.921,434.177L551.921,434.266ZM551.763,434.266C551.737,434.266 551.711,434.266 551.685,434.266L551.685,434.177C551.711,434.177 551.737,434.177 551.763,434.177L551.763,434.266ZM551.606,434.266C551.58,434.266 551.553,434.266 551.527,434.266L551.527,434.177C551.553,434.177 551.58,434.177 551.606,434.177L551.606,434.266ZM551.448,434.266C551.422,434.266 551.396,434.266 551.369,434.266L551.369,434.177C551.396,434.177 551.422,434.177 551.448,434.177L551.448,434.266ZM551.291,434.266C551.264,434.266 551.238,434.266 551.212,434.266L551.212,434.177C551.238,434.177 551.264,434.177 551.291,434.177L551.291,434.266ZM551.133,434.266C551.107,434.266 551.08,434.266 551.054,434.266L551.054,434.177C551.08,434.177 551.107,434.177 551.133,434.177L551.133,434.266ZM550.975,434.266C550.949,434.266 550.923,434.266 550.897,434.266L550.897,434.177C550.923,434.177 550.949,434.177 550.975,434.177L550.975,434.266ZM550.818,434.266C550.792,434.266 550.765,434.266 550.739,434.266L550.739,434.177C550.765,434.177 550.792,434.177 550.818,434.177L550.818,434.266ZM550.66,434.266C550.634,434.266 550.608,434.266 550.581,434.266L550.581,434.177C550.608,434.177 550.634,434.177 550.66,434.177L550.66,434.266ZM550.503,434.266C550.476,434.266 550.45,434.266 550.424,434.266L550.424,434.177C550.45,434.177 550.476,434.177 550.503,434.177L550.503,434.266ZM550.345,434.266C550.319,434.266 550.292,434.266 550.266,434.266L550.266,434.177C550.292,434.177 550.319,434.177 550.345,434.177L550.345,434.266ZM550.187,434.266C550.161,434.266 550.135,434.266 550.109,434.266L550.109,434.177C550.135,434.177 550.161,434.177 550.187,434.177L550.187,434.266ZM550.03,434.266C550.004,434.266 549.977,434.266 549.951,434.266L549.951,434.177C549.977,434.177 550.004,434.177 550.03,434.177L550.03,434.266ZM549.872,434.266C549.846,434.266 549.82,434.266 549.793,434.266L549.793,434.177C549.82,434.177 549.846,434.177 549.872,434.177L549.872,434.266ZM549.715,434.266C549.688,434.266 549.662,434.266 549.636,434.266L549.636,434.177C549.662,434.177 549.688,434.177 549.715,434.177L549.715,434.266ZM549.557,434.266C549.531,434.266 549.504,434.266 549.478,434.266L549.478,434.177C549.504,434.177 549.531,434.177 549.557,434.177L549.557,434.266ZM549.399,434.266C549.373,434.266 549.347,434.266 549.321,434.266L549.321,434.177C549.347,434.177 549.373,434.177 549.399,434.177L549.399,434.266ZM549.242,434.266C549.216,434.266 549.189,434.266 549.163,434.266L549.163,434.177C549.189,434.177 549.216,434.177 549.242,434.177L549.242,434.266ZM549.084,434.266C549.058,434.266 549.032,434.266 549.005,434.266L549.005,434.177C549.032,434.177 549.058,434.177 549.084,434.177L549.084,434.266ZM548.927,434.266C548.9,434.266 548.874,434.266 548.848,434.266L548.848,434.177C548.874,434.177 548.9,434.177 548.927,434.177L548.927,434.266ZM548.769,434.266C548.743,434.266 548.716,434.266 548.69,434.266L548.69,434.177C548.716,434.177 548.743,434.177 548.769,434.177L548.769,434.266ZM548.611,434.266C548.585,434.266 548.559,434.266 548.533,434.266L548.533,434.177C548.559,434.177 548.585,434.177 548.611,434.177L548.611,434.266ZM548.454,434.266C548.428,434.266 548.401,434.266 548.375,434.266L548.375,434.177C548.401,434.177 548.428,434.177 548.454,434.177L548.454,434.266ZM548.296,434.266C548.27,434.266 548.244,434.266 548.217,434.266L548.217,434.177C548.244,434.177 548.27,434.177 548.296,434.177L548.296,434.266ZM548.139,434.266C548.112,434.266 548.086,434.266 548.06,434.266L548.06,434.177C548.086,434.177 548.112,434.177 548.139,434.177L548.139,434.266ZM547.981,434.266C547.955,434.266 547.928,434.266 547.902,434.266L547.902,434.177C547.928,434.177 547.955,434.177 547.981,434.177L547.981,434.266ZM547.823,434.266C547.797,434.266 547.771,434.266 547.745,434.266L547.745,434.177C547.771,434.177 547.797,434.177 547.823,434.177L547.823,434.266ZM547.666,434.266C547.639,434.266 547.613,434.266 547.587,434.266L547.587,434.177C547.613,434.177 547.639,434.177 547.666,434.177L547.666,434.266ZM547.508,434.266C547.482,434.266 547.456,434.266 547.429,434.266L547.429,434.177C547.456,434.177 547.482,434.177 547.508,434.177L547.508,434.266ZM547.351,434.266C547.324,434.266 547.298,434.266 547.272,434.266L547.272,434.177C547.298,434.177 547.324,434.177 547.351,434.177L547.351,434.266ZM547.193,434.266C547.167,434.266 547.14,434.266 547.114,434.266L547.114,434.177C547.14,434.177 547.167,434.177 547.193,434.177L547.193,434.266ZM547.035,434.266C547.009,434.266 546.983,434.266 546.957,434.266L546.957,434.177C546.983,434.177 547.009,434.177 547.035,434.177L547.035,434.266ZM546.878,434.266C546.851,434.266 546.825,434.266 546.799,434.266L546.799,434.177C546.825,434.177 546.851,434.177 546.878,434.177L546.878,434.266ZM546.72,434.266C546.694,434.266 546.668,434.266 546.641,434.266L546.641,434.177C546.668,434.177 546.694,434.177 546.72,434.177L546.72,434.266ZM546.563,434.266C546.536,434.266 546.51,434.266 546.484,434.266L546.484,434.177C546.51,434.177 546.536,434.177 546.563,434.177L546.563,434.266ZM546.405,434.266C546.379,434.266 546.352,434.266 546.326,434.266L546.326,434.177C546.352,434.177 546.379,434.177 546.405,434.177L546.405,434.266ZM546.247,434.266C546.221,434.266 546.195,434.266 546.169,434.266L546.169,434.177C546.195,434.177 546.221,434.177 546.247,434.177L546.247,434.266ZM546.09,434.266C546.063,434.266 546.037,434.266 546.011,434.266L546.011,434.177C546.037,434.177 546.063,434.177 546.09,434.177L546.09,434.266ZM545.932,434.266C545.906,434.266 545.88,434.266 545.853,434.266L545.853,434.177C545.88,434.177 545.906,434.177 545.932,434.177L545.932,434.266ZM545.775,434.266C545.748,434.266 545.722,434.266 545.696,434.266L545.696,434.177C545.722,434.177 545.748,434.177 545.775,434.177L545.775,434.266ZM545.617,434.266C545.591,434.266 545.564,434.266 545.538,434.266L545.538,434.177C545.564,434.177 545.591,434.177 545.617,434.177L545.617,434.266ZM545.459,434.266C545.433,434.266 545.407,434.266 545.381,434.266L545.381,434.177C545.407,434.177 545.433,434.177 545.459,434.177L545.459,434.266ZM545.302,434.266C545.275,434.266 545.249,434.266 545.223,434.266L545.223,434.177C545.249,434.177 545.275,434.177 545.302,434.177L545.302,434.266ZM545.144,434.266C545.118,434.266 545.092,434.266 545.065,434.266L545.065,434.177C545.092,434.177 545.118,434.177 545.144,434.177L545.144,434.266ZM544.986,434.266C544.96,434.266 544.934,434.266 544.908,434.266L544.908,434.177C544.934,434.177 544.96,434.177 544.986,434.177L544.986,434.266ZM544.829,434.266C544.803,434.266 544.776,434.266 544.75,434.266L544.75,434.177C544.776,434.177 544.803,434.177 544.829,434.177L544.829,434.266ZM544.671,434.266C544.645,434.266 544.619,434.266 544.592,434.266L544.592,434.177C544.619,434.177 544.645,434.177 544.671,434.177L544.671,434.266ZM544.514,434.266C544.487,434.266 544.461,434.266 544.435,434.266L544.435,434.177C544.461,434.177 544.487,434.177 544.514,434.177L544.514,434.266ZM544.356,434.266C544.33,434.266 544.303,434.266 544.277,434.266L544.277,434.177C544.303,434.177 544.33,434.177 544.356,434.177L544.356,434.266ZM544.198,434.266C544.172,434.266 544.146,434.266 544.12,434.266L544.12,434.177C544.146,434.177 544.172,434.177 544.198,434.177L544.198,434.266ZM544.041,434.266C544.015,434.266 543.988,434.266 543.962,434.266L543.962,434.177C543.988,434.177 544.015,434.177 544.041,434.177L544.041,434.266ZM543.883,434.266C543.857,434.266 543.831,434.266 543.804,434.266L543.804,434.177C543.831,434.177 543.857,434.177 543.883,434.177L543.883,434.266ZM543.726,434.266C543.699,434.266 543.673,434.266 543.647,434.266L543.647,434.177C543.673,434.177 543.699,434.177 543.726,434.177L543.726,434.266ZM543.568,434.266C543.542,434.266 543.515,434.266 543.489,434.266L543.489,434.177C543.515,434.177 543.542,434.177 543.568,434.177L543.568,434.266ZM543.41,434.266C543.384,434.266 543.358,434.266 543.332,434.266L543.332,434.177C543.358,434.177 543.384,434.177 543.41,434.177L543.41,434.266ZM543.253,434.266C543.227,434.266 543.2,434.266 543.174,434.266L543.174,434.177C543.2,434.177 543.227,434.177 543.253,434.177L543.253,434.266ZM543.095,434.266C543.069,434.266 543.043,434.266 543.016,434.266L543.016,434.177C543.043,434.177 543.069,434.177 543.095,434.177L543.095,434.266ZM542.938,434.266C542.911,434.266 542.885,434.266 542.859,434.266L542.859,434.177C542.885,434.177 542.911,434.177 542.938,434.177L542.938,434.266ZM542.78,434.266C542.754,434.266 542.727,434.266 542.701,434.266L542.701,434.177C542.727,434.177 542.754,434.177 542.78,434.177L542.78,434.266ZM542.622,434.266C542.596,434.266 542.57,434.266 542.544,434.266L542.544,434.177C542.57,434.177 542.596,434.177 542.622,434.177L542.622,434.266ZM542.465,434.266C542.438,434.266 542.412,434.266 542.386,434.266L542.386,434.177C542.412,434.177 542.438,434.177 542.465,434.177L542.465,434.266ZM542.307,434.266C542.281,434.266 542.255,434.266 542.228,434.266L542.228,434.177C542.255,434.177 542.281,434.177 542.307,434.177L542.307,434.266ZM542.15,434.266C542.123,434.266 542.097,434.266 542.071,434.266L542.071,434.177C542.097,434.177 542.123,434.177 542.15,434.177L542.15,434.266ZM541.992,434.266C541.966,434.266 541.939,434.266 541.913,434.266L541.913,434.177C541.939,434.177 541.966,434.177 541.992,434.177L541.992,434.266ZM541.834,434.266C541.808,434.266 541.782,434.266 541.756,434.266L541.756,434.177C541.782,434.177 541.808,434.177 541.834,434.177L541.834,434.266ZM541.677,434.266C541.65,434.266 541.624,434.266 541.598,434.266L541.598,434.177C541.624,434.177 541.65,434.177 541.677,434.177L541.677,434.266ZM541.519,434.266C541.493,434.266 541.467,434.266 541.44,434.266L541.44,434.177C541.467,434.177 541.493,434.177 541.519,434.177L541.519,434.266ZM541.362,434.266C541.335,434.266 541.309,434.266 541.283,434.266L541.283,434.177C541.309,434.177 541.335,434.177 541.362,434.177L541.362,434.266ZM541.204,434.266C541.178,434.266 541.151,434.266 541.125,434.266L541.125,434.177C541.151,434.177 541.178,434.177 541.204,434.177L541.204,434.266ZM541.046,434.266C541.02,434.266 540.994,434.266 540.968,434.266L540.968,434.177C540.994,434.177 541.02,434.177 541.046,434.177L541.046,434.266ZM540.889,434.266C540.862,434.266 540.836,434.266 540.81,434.266L540.81,434.177C540.836,434.177 540.862,434.177 540.889,434.177L540.889,434.266ZM540.731,434.266C540.705,434.266 540.678,434.266 540.652,434.266L540.652,434.177C540.678,434.177 540.705,434.177 540.731,434.177L540.731,434.266ZM540.574,434.266C540.547,434.266 540.521,434.266 540.495,434.266L540.495,434.177C540.521,434.177 540.547,434.177 540.574,434.177L540.574,434.266ZM540.416,434.266C540.389,434.266 540.363,434.266 540.337,434.266L540.337,434.177C540.363,434.177 540.389,434.177 540.416,434.177L540.416,434.266ZM540.258,434.266C540.232,434.266 540.205,434.266 540.18,434.266L540.18,434.177C540.205,434.177 540.232,434.177 540.258,434.177L540.258,434.266ZM540.101,434.266C540.074,434.266 540.048,434.266 540.022,434.266L540.022,434.177C540.048,434.177 540.074,434.177 540.101,434.177L540.101,434.266ZM539.943,434.266C539.916,434.266 539.89,434.266 539.864,434.266L539.864,434.177C539.89,434.177 539.916,434.177 539.943,434.177L539.943,434.266ZM539.786,434.266C539.759,434.266 539.732,434.266 539.707,434.266L539.707,434.177C539.732,434.177 539.759,434.177 539.786,434.177L539.786,434.266ZM539.628,434.266C539.601,434.266 539.574,434.266 539.549,434.266L539.549,434.177C539.574,434.177 539.601,434.177 539.628,434.177L539.628,434.266ZM539.155,434.219L539.155,434.266C539.133,434.266 539.12,434.266 539.118,434.266C539.066,434.266 539.118,434.177 539.118,434.177C539.118,434.177 539.078,434.221 539.078,434.221C539.078,434.221 539.078,434.202 539.078,434.175L539.157,434.175C539.157,434.202 539.157,434.221 539.157,434.221L539.155,434.219ZM539.47,434.266C539.443,434.266 539.416,434.266 539.392,434.266L539.392,434.177C539.416,434.177 539.443,434.177 539.47,434.177L539.47,434.266ZM539.313,434.266C539.283,434.266 539.257,434.266 539.234,434.266L539.234,434.177C539.257,434.177 539.283,434.177 539.313,434.177L539.313,434.266Z" style="fill:rgb(67,0,71);fill-opacity:0;"/>
                </g>
            </g>
            <g transform="matrix(1.39943,0,0,4.19988,-3220.76,-12798.8)">
                <g id="Layer4">
                    <path d="M5073.89,3575.33C5078.3,3568.06 5086.81,3566.88 5091.22,3570.51C5095.63,3574.15 5097.16,3582.07 5091.73,3587.67C5085.75,3593.84 5080.47,3596.05 5074.09,3602.22C5068.46,3596.49 5062.31,3592.95 5056.45,3587.67C5051.21,3582.95 5051.88,3574.46 5056.29,3570.83C5060.7,3567.19 5069.48,3568.06 5073.89,3575.33Z" style="fill:rgb(235,117,125);"/>
                </g>
            </g>
        </g>
    </g>
</svg>
