<?xml version="1.0" encoding="UTF-8" standalone="no"?>
<!DOCTYPE svg PUBLIC "-//W3C//DTD SVG 1.1//EN" "http://www.w3.org/Graphics/SVG/1.1/DTD/svg11.dtd">


<svg width="100%" height="100%" viewBox="-30 -25 156 156" version="1.1" xmlns="http://www.w3.org/2000/svg" xmlns:xlink="http://www.w3.org/1999/xlink" xml:space="preserve" xmlns:serif="http://www.serif.com/" style="fill-rule:evenodd;clip-rule:evenodd;stroke-linecap:round;stroke-linejoin:round;stroke-miterlimit:1.5;">

    <g transform="matrix(1,0,0,1,-1447,-3157)">
        <g id="Artboard8" transform="matrix(1,0,0,1,-0.464707,-0.99272)">
            <rect x="1447.46" y="3157.99" width="95.856" height="99.641" style="fill:none;"/>
            <g id="noimage">
                <g>
                    <g transform="matrix(0.94136,0,0,0.826371,84.0727,558.259)">
                        <rect x="1473.5" y="3164.94" width="53.285" height="66.583" style="fill:rgb(196,196,196);"/>
                    </g>
                    <g id="cat" transform="matrix(-0.00275526,-1.3677e-05,-1.48735e-05,0.0029963,1485.87,3219.94)">
                        <path d="M-7012.36,-4471.27C-7010.1,-4807.44 -7303.57,-5082.06 -7667.3,-5084.13C-8254.3,-5087.48 -8734.45,-4654.22 -8743.63,-4115.29C-8746.98,-1931.58 -6824.37,-150.956 -4443.18,-137.383C-4265.94,-136.373 -3197.86,-130.849 -3179.99,-130.521C-1805.49,-105.346 -552.846,-678.958 263.571,-1594.48C818.821,-2216.92 1203.46,-2997.68 1230.83,-3861.88C1290.45,-5744.83 60.463,-7324.07 -1898,-7921.61C-2328.43,-8052.94 -2675.63,-8459.96 -2646.59,-8897.72C-2584.32,-9462.8 -2754.59,-10082 -3155.49,-10521.5C-3337.85,-10721.4 -3386.99,-10730 -3617.04,-10876.8C-3651.88,-10899.1 -3696.47,-11098.7 -3812.36,-11296.3C-3943.22,-11519.4 -4145.8,-11741.3 -4168.33,-11725.5C-4172.09,-11722.9 -4230.37,-11617.2 -4298.2,-11387.8C-4359.82,-11179.3 -4329.61,-11074.9 -4390.23,-11076.4C-4745.42,-11085.3 -5062.57,-11048.9 -5360.66,-10855.2C-5459.14,-10791.2 -5547.55,-10715 -5626.66,-10631.6C-5767.75,-10482.7 -5873.27,-10313.7 -6123.91,-10338C-6237.19,-10344.3 -6337.89,-10266.2 -6344.71,-10163.5C-6347.58,-10120.2 -6333.9,-10079.4 -6308.62,-10046.2C-6384.36,-9981.83 -6435.61,-9892.76 -6442.36,-9791.02C-6446.94,-9722.03 -6431.14,-9656.18 -6399.71,-9598.36L-6399.84,-9598.34C-6428.65,-9353.61 -6280.26,-9112.4 -6033.39,-9013.94L-6033.54,-9014.03C-5875.65,-8951.16 -5747.02,-8826.22 -5690.76,-8675.7C-5670.74,-8611.09 -5650.62,-8546.13 -5639.62,-8479.71C-5608.04,-8289.03 -5664.23,-8080.69 -5763.85,-7913.67C-5788.95,-7868.83 -5813.04,-7823.49 -5835.98,-7777.67C-5981.68,-7493.23 -6070.63,-7178.64 -6088.82,-6845.55C-6119.48,-6283.95 -5944.28,-5756.18 -5623.98,-5323.85C-5109.47,-4623.52 -4833,-3767.99 -4894.01,-2860.6C-4908.04,-2651.95 -4938.21,-2373.26 -4984.3,-2097.05C-4985.87,-2087.67 -4985.55,-2081.27 -4995.6,-2043.63C-5005.81,-2005.44 -4999.3,-2024.13 -5008.44,-2000.54C-5080.8,-1813.78 -5317.84,-1588.29 -5641.54,-1596.77C-5731.73,-1599.13 -5892.23,-1658.29 -5964.17,-1709.11C-6046.2,-1767.04 -6137.88,-1868.78 -6189.04,-1933.3C-6721.89,-2605.34 -7017.86,-3422.07 -7017.86,-4271.44C-7017.86,-4338.22 -7016.03,-4404.91 -7012.37,-4471.43" style="fill:rgb(136,136,136);stroke:rgb(67,0,71);stroke-opacity:0;stroke-width:144.76px;"/>
                    </g>
                    <g id="hat" transform="matrix(0.527053,-0.400033,0.354305,0.466806,1052.96,3207.42)">
                        <path d="M543.857,432.104L543.857,427.501L557.126,427.502L557.126,432.104L561.866,432.105L561.866,434.222L539.118,434.221L539.118,432.104L543.857,432.104Z" style="fill:rgb(136,136,136);"/>
                        <path d="M539.09,433.971L538.803,433.971C538.803,434.109 538.803,434.201 538.803,434.218C538.803,434.429 538.927,434.504 538.927,434.504C538.927,434.504 538.986,434.577 539.122,434.577C539.148,434.577 539.288,434.577 539.526,434.577L539.526,433.866C539.288,433.866 539.122,433.866 539.122,433.866L539.09,433.971ZM540.785,433.866C540.554,433.866 540.343,433.866 540.155,433.866L540.155,434.577C540.343,434.577 540.554,434.577 540.785,434.577L540.785,433.866ZM539.433,433.26C539.433,433.012 539.433,432.756 539.433,432.549L538.803,432.549C538.803,432.756 538.803,433.012 538.803,433.26L539.433,433.26ZM542.045,433.866C541.825,433.866 541.614,433.866 541.415,433.866L541.415,434.577C541.614,434.577 541.825,434.577 542.045,434.577L542.045,433.866ZM539.353,432.459C539.506,432.459 539.724,432.459 539.983,432.459L539.983,431.748C539.724,431.748 539.506,431.748 539.353,431.748L539.353,432.459ZM543.304,433.866C543.088,433.866 542.878,433.866 542.674,433.866L542.674,434.577C542.878,434.577 543.088,434.577 543.304,434.577L543.304,433.866ZM540.613,432.459C540.815,432.459 541.027,432.459 541.242,432.459L541.242,431.748C541.027,431.748 540.815,431.748 540.613,431.748L540.613,432.459ZM544.563,433.866C544.35,433.866 544.139,433.866 543.934,433.866L543.934,434.577C544.139,434.577 544.35,434.577 544.563,434.577L544.563,433.866ZM541.872,432.459C542.089,432.459 542.301,432.459 542.502,432.459L542.502,431.748C542.301,431.748 542.089,431.748 541.872,431.748L541.872,432.459ZM545.823,433.866C545.61,433.866 545.4,433.866 545.193,433.866L545.193,434.577C545.4,434.577 545.61,434.577 545.823,434.577L545.823,433.866ZM543.542,431.748L543.131,431.748L543.131,432.459C543.418,432.459 543.642,432.459 543.761,432.459L543.761,432.403C543.907,432.418 544.172,432.402 544.172,432.096C544.172,432.046 544.172,431.777 544.172,431.393L543.542,431.393L543.542,431.748ZM547.082,433.866C546.871,433.866 546.661,433.866 546.453,433.866L546.453,434.577C546.661,434.577 546.871,434.577 547.082,434.577L547.082,433.866ZM548.342,433.866C548.131,433.866 547.921,433.866 547.712,433.866L547.712,434.577C547.921,434.577 548.131,434.577 548.342,434.577L548.342,433.866ZM544.172,430.682C544.172,430.455 544.172,430.214 544.172,429.971L543.542,429.971C543.542,430.214 543.542,430.455 543.542,430.682L544.172,430.682ZM549.601,433.866C549.391,433.866 549.181,433.866 548.971,433.866L548.971,434.577C549.181,434.577 549.391,434.577 549.601,434.577L549.601,433.866ZM544.172,429.26C544.172,429.01 544.172,428.768 544.172,428.549L543.543,428.549C543.543,428.768 543.543,429.01 543.543,429.26L544.172,429.26ZM550.861,433.866C550.651,433.866 550.441,433.866 550.231,433.866L550.231,434.577C550.441,434.577 550.651,434.577 550.861,434.577L550.861,433.866ZM543.751,427.838C543.779,427.849 543.816,427.857 543.861,427.857C543.882,427.857 543.997,427.857 544.189,427.857L544.189,427.146C543.997,427.146 543.861,427.146 543.861,427.146C543.861,427.146 543.667,427.784 543.667,427.784C543.667,427.784 543.543,427.505 543.543,427.505C543.543,427.505 543.543,427.648 543.543,427.838L543.751,427.838ZM552.12,433.866C551.911,433.866 551.701,433.866 551.49,433.866L551.49,434.577C551.701,434.577 551.911,434.577 552.12,434.577L552.12,433.866ZM544.819,427.857C545.006,427.857 545.217,427.857 545.448,427.857L545.448,427.146C545.217,427.146 545.006,427.146 544.819,427.146L544.819,427.857ZM553.38,433.866C553.171,433.866 552.961,433.866 552.75,433.866L552.75,434.577C552.961,434.577 553.171,434.577 553.38,434.577L553.38,433.866ZM546.078,427.857C546.279,427.857 546.489,427.857 546.708,427.857L546.708,427.146C546.489,427.146 546.279,427.146 546.078,427.146L546.078,427.857ZM554.639,433.866C554.431,433.866 554.221,433.866 554.009,433.866L554.009,434.577C554.221,434.577 554.431,434.577 554.639,434.577L554.639,433.866ZM547.337,427.857C547.543,427.857 547.753,427.857 547.967,427.857L547.967,427.146C547.753,427.146 547.543,427.146 547.338,427.146L547.337,427.857ZM555.898,433.867C555.691,433.866 555.481,433.866 555.269,433.866L555.269,434.577C555.481,434.577 555.691,434.577 555.898,434.577L555.898,433.867ZM548.597,427.857C548.804,427.857 549.015,427.857 549.227,427.857L549.227,427.146C549.015,427.146 548.804,427.146 548.597,427.146L548.597,427.857ZM557.158,433.867C556.952,433.867 556.742,433.867 556.528,433.867L556.528,434.578C556.742,434.578 556.952,434.578 557.158,434.578L557.158,433.867ZM549.856,427.857C550.066,427.857 550.276,427.857 550.486,427.857L550.486,427.146C550.276,427.146 550.066,427.146 549.856,427.146L549.856,427.857ZM558.417,433.867C558.214,433.867 558.004,433.867 557.788,433.867L557.788,434.578C558.004,434.578 558.214,434.578 558.417,434.578L558.417,433.867ZM551.116,427.857C551.327,427.857 551.537,427.857 551.746,427.857L551.746,427.146C551.537,427.146 551.327,427.146 551.116,427.146L551.116,427.857ZM559.677,433.867C559.478,433.867 559.267,433.867 559.047,433.867L559.047,434.578C559.267,434.578 559.478,434.578 559.677,434.578L559.677,433.867ZM557.028,432.091L556.811,432.091C556.811,432.308 556.936,432.388 556.936,432.388C556.936,432.388 556.996,432.46 557.133,432.46C557.176,432.46 557.406,432.46 557.744,432.46L557.744,431.749C557.406,431.749 557.133,431.749 557.133,431.749L557.028,432.091ZM552.375,427.857C552.588,427.857 552.799,427.857 553.005,427.857L553.005,427.146C552.799,427.146 552.588,427.146 552.375,427.146L552.375,427.857ZM560.936,433.867C560.751,433.867 560.54,433.867 560.306,433.867L560.306,434.578C560.54,434.578 560.751,434.578 560.936,434.578L560.936,433.867ZM556.811,430.669C556.811,430.929 556.811,431.171 556.811,431.38L557.441,431.38C557.441,431.171 557.441,430.929 557.441,430.669L556.811,430.669ZM558.374,432.46C558.573,432.46 558.785,432.46 559.004,432.46L559.004,431.749C558.785,431.749 558.573,431.749 558.374,431.749L558.374,432.46ZM553.635,427.857C553.851,427.857 554.061,427.857 554.264,427.857L554.264,427.146C554.061,427.146 553.851,427.146 553.635,427.146L553.635,427.857ZM561.566,434.336L561.566,434.578C561.742,434.578 561.863,434.578 561.863,434.578C561.863,434.578 561.675,434.505 561.675,434.505C561.675,434.505 562.181,434.64 562.181,434.218C562.181,434.191 562.181,434.049 562.181,433.85L561.551,433.85C561.551,434.049 561.551,434.191 561.551,434.218C561.551,434.263 561.557,434.303 561.566,434.336ZM559.633,432.46C559.847,432.46 560.059,432.46 560.263,432.46L560.263,431.749C560.059,431.749 559.847,431.749 559.633,431.749L559.633,432.46ZM556.811,429.247C556.811,429.48 556.811,429.72 556.811,429.958L557.441,429.958C557.441,429.72 557.441,429.48 557.441,429.247L556.811,429.247ZM554.894,427.857C555.117,427.857 555.327,427.857 555.524,427.857L555.524,427.146C555.327,427.146 555.117,427.146 554.894,427.146L554.894,427.857ZM561.551,432.428C561.551,432.621 561.551,432.879 561.551,433.139L562.181,433.139C562.181,432.879 562.181,432.621 562.181,432.428L561.551,432.428ZM560.893,432.46C561.141,432.46 561.357,432.46 561.523,432.46L561.523,431.749C561.357,431.749 561.141,431.749 560.893,431.749L560.893,432.46ZM556.812,427.825C556.812,428.006 556.812,428.253 556.812,428.536L557.441,428.536C557.441,428.253 557.441,428.006 557.441,427.825L556.812,427.825ZM556.154,427.857C556.41,427.857 556.623,427.857 556.783,427.857L556.783,427.146C556.623,427.146 556.41,427.146 556.154,427.146L556.154,427.857Z" style="fill:rgb(67,0,71);fill-opacity:0;"/>
                    </g>
                    <g transform="matrix(1,0,0,1,2.82502,4.13582)">
                        <path d="M1522.54,3164.32L1463.84,3164.32L1463.84,3242.74L1522.54,3242.74L1522.54,3164.32ZM1518.5,3169.54L1468.34,3169.54L1468.34,3224.56L1518.5,3224.56L1518.5,3169.54Z" style="fill:rgb(136,136,136);"/>
                    </g>
                </g>
                <g transform="matrix(1,0,0,1,0.464707,0.99272)">
                    <path d="M1466.2,3167.47L1524.9,3245.88" style="fill:none;stroke:rgb(85,85,85);stroke-opacity:0.81;stroke-width:0.83px;stroke-linecap:butt;stroke-miterlimit:2.95732;"/>
                </g>
                <g transform="matrix(1,0,0,1,0.464707,0.99272)">
                    <path d="M1466.2,3245.88L1524.9,3167.47" style="fill:none;stroke:rgb(85,85,85);stroke-opacity:0.81;stroke-width:0.83px;stroke-linecap:butt;stroke-miterlimit:2.95732;"/>
                </g>
            </g>
        </g>
    </g>
</svg>
