<?xml version="1.0" standalone="no"?>
<!DOCTYPE svg PUBLIC "-//W3C//DTD SVG 20010904//EN"
 "http://www.w3.org/TR/2001/REC-SVG-20010904/DTD/svg10.dtd">
<svg version="1.0" xmlns="http://www.w3.org/2000/svg"
 width="700.000000pt" height="700.000000pt" viewBox="0 0 700.000000 700.000000"
 preserveAspectRatio="xMidYMid meet">
<metadata>
Created by potrace 1.14, written by Peter Selinger 2001-2017
</metadata>
<g transform="translate(0.000000,700.000000) scale(0.100000,-0.100000)"
fill="#000000" stroke="none">
<path d="M3305 6993 c-777 -47 -1485 -333 -2070 -834 -127 -108 -345 -334
-449 -464 -736 -921 -957 -2157 -586 -3276 137 -414 322 -751 604 -1104 105
-132 383 -409 521 -519 756 -602 1717 -864 2670 -725 759 110 1466 474 1996
1027 871 909 1185 2193 832 3407 -116 401 -333 819 -609 1175 -111 143 -403
438 -549 554 -562 448 -1222 705 -1935 756 -135 9 -306 11 -425 3z m565 -228
c290 -35 541 -98 805 -202 896 -352 1599 -1087 1905 -1993 123 -362 172 -664
173 -1050 0 -309 -28 -533 -100 -815 -292 -1142 -1178 -2040 -2317 -2349 -467
-127 -999 -145 -1486 -51 -505 99 -1006 333 -1420 664 -116 93 -325 295 -423
408 -426 496 -687 1085 -773 1748 -22 164 -25 580 -5 740 95 790 417 1448 977
1996 550 537 1261 857 2039 919 147 12 470 4 625 -15z"/>
<path d="M3260 5699 c-278 -209 -504 -385 -502 -390 1 -6 52 -77 113 -160 61
-82 110 -151 108 -153 -2 -2 -78 -58 -169 -126 -91 -67 -171 -128 -178 -134
-10 -10 -1 -27 41 -84 l54 -71 163 124 c90 68 168 121 172 119 13 -8 9 -135
-6 -190 -21 -81 -64 -150 -131 -213 -64 -59 -84 -70 -295 -150 -199 -77 -417
-215 -580 -368 -266 -250 -447 -581 -520 -949 -28 -136 -38 -426 -21 -557 48
-357 222 -698 496 -972 148 -148 268 -234 450 -325 327 -162 541 -197 1155
-187 346 6 404 11 580 57 400 103 771 373 1003 730 168 260 262 551 274 850 5
132 3 151 -17 209 -53 158 -184 268 -342 290 -140 19 -252 -41 -303 -162 -10
-23 -15 -68 -15 -126 0 -190 -34 -408 -91 -581 -67 -206 -214 -466 -318 -564
-79 -73 -178 -92 -266 -49 -43 22 -104 82 -127 127 -49 95 -70 581 -34 781 43
237 135 466 276 685 108 169 156 285 185 454 38 223 7 428 -103 671 -55 122
-66 215 -38 319 22 81 59 125 147 177 84 49 124 99 139 177 6 31 15 78 20 103
10 51 1 105 -24 140 -11 16 -14 34 -10 59 9 57 -24 90 -102 99 -73 8 -85 16
-171 116 -37 43 -89 92 -115 109 -26 17 -47 33 -47 36 0 3 81 66 179 140 99
74 180 135 180 136 0 0 -24 33 -54 72 l-53 72 -178 -135 c-98 -74 -181 -135
-184 -135 -3 1 -58 70 -121 155 -63 85 -115 155 -115 155 0 0 -227 -172 -505
-381z"/>
</g>
</svg>
