<?xml version="1.0" encoding="UTF-8" standalone="no"?>
<!DOCTYPE svg PUBLIC "-//W3C//DTD SVG 1.1//EN" "http://www.w3.org/Graphics/SVG/1.1/DTD/svg11.dtd">
<svg width="100%" height="100%" viewBox="0 0 1331 242" version="1.1" xmlns="http://www.w3.org/2000/svg" xmlns:xlink="http://www.w3.org/1999/xlink" xml:space="preserve" xmlns:serif="http://www.serif.com/" style="fill-rule:evenodd;clip-rule:evenodd;stroke-linecap:square;stroke-linejoin:round;stroke-miterlimit:1.5;">
    <g id="stroke-tyk" serif:id="stroke tyk">
        <path d="M1235.42,171.771C1235.39,162.702 1235.44,132.272 1235.43,119.101C1235.43,91.104 1256.94,67.771 1282.99,67.769C1298,67.768 1311.26,75.513 1319.81,87.433" style="fill-opacity:0;stroke:rgb(70,26,62);stroke-width:14.58px;"/>
        <path d="M1204.41,127.353C1204.41,142.462 1183.26,171.769 1157.21,171.771C1131.15,171.772 1110.01,148.648 1110,120.1C1110,91.552 1131.26,67.771 1157.31,67.769C1183.36,67.767 1204.41,90.169 1204.41,118.717L1204.41,171.771" style="fill-opacity:0;stroke:rgb(70,26,62);stroke-width:14.58px;"/>
        <path d="M984.596,127.353C984.595,142.462 1005.75,171.769 1031.8,171.771C1057.85,171.772 1079,148.648 1079,120.1C1079,91.552 1057.75,67.771 1031.7,67.769C1005.65,67.767 984.598,90.169 984.596,118.717L984.596,231.193" style="fill-opacity:0;stroke:rgb(70,26,62);stroke-width:14.58px;"/>
        <path d="M882.67,141.925C874.725,157.801 859.056,171.319 841.02,171.321C814.968,171.322 793.799,146.06 793.797,118.272C793.795,90.485 815.015,67.422 841.066,67.42C867.118,67.418 888.199,90.478 888.201,118.266L888.201,118.269L797.629,118.267" style="fill-opacity:0;stroke:rgb(70,26,62);stroke-width:14.58px;stroke-linejoin:miter;"/>
        <path d="M762.754,10.312L762.793,171.527" style="fill:none;stroke:rgb(70,26,62);stroke-width:14.58px;"/>
        <path d="M731.75,126.959C731.751,142.068 710.6,171.374 684.548,171.376C658.497,171.378 637.348,148.254 637.346,119.706C637.344,91.157 658.597,67.376 684.649,67.374C710.701,67.372 731.748,89.775 731.75,118.323L731.75,171.376" style="fill-opacity:0;stroke:rgb(70,26,62);stroke-width:14.58px;"/>
        <g>
            <path d="M417.701,171.063C417.673,161.995 417.537,131.565 417.536,118.394C417.534,90.397 438.769,67.063 464.817,67.061C490.865,67.06 511.925,90.39 511.927,118.387C511.929,146.384 511.918,171.063 511.918,171.063" style="fill-opacity:0;stroke:rgb(70,26,62);stroke-width:14.58px;stroke-miterlimit:2;"/>
            <path d="M511.927,171.063C511.899,161.995 511.941,131.565 511.94,118.394C511.938,90.397 533.445,67.063 559.493,67.061C585.541,67.06 606.329,90.39 606.331,118.387C606.333,146.384 606.342,171.063 606.342,171.063" style="fill-opacity:0;stroke:rgb(70,26,62);stroke-width:14.58px;"/>
        </g>
        <g>
            <path d="M386.532,67.42L386.522,171.376" style="fill:none;stroke:rgb(70,26,62);stroke-width:14.58px;"/>
        </g>
        <path d="M261.126,171.519C261.098,162.468 261.139,131.543 261.139,118.398C261.137,90.457 282.273,67.771 308.317,67.769C334.361,67.767 355.515,90.45 355.517,118.391C355.519,146.333 355.517,171.519 355.517,171.519" style="fill-opacity:0;stroke:rgb(70,26,62);stroke-width:14.58px;"/>
        <g>
            <path d="M230.112,67.374L230.112,171.527" style="fill:none;stroke:rgb(70,26,62);stroke-width:14.58px;"/>
        </g>
        <g>
            <path d="M10.634,171.376C10.606,162.308 10.313,131.275 10.312,118.104C10.31,90.107 31.645,67.376 57.693,67.374C83.741,67.372 104.701,90.101 104.703,118.097C104.705,146.094 104.704,171.376 104.704,171.376" style="fill-opacity:0;stroke:rgb(70,26,62);stroke-width:14.58px;"/>
            <path d="M104.704,171.376C104.676,162.308 104.717,131.275 104.716,118.104C104.714,90.107 125.447,67.376 151.495,67.374C177.543,67.372 199.105,90.101 199.107,118.097C199.109,146.094 199.108,171.376 199.108,171.376" style="fill-opacity:0;stroke:rgb(70,26,62);stroke-width:14.58px;"/>
        </g>
    </g>
</svg>
