<?xml version="1.0" encoding="UTF-8" standalone="no"?>
<!DOCTYPE svg PUBLIC "-//W3C//DTD SVG 1.1//EN" "http://www.w3.org/Graphics/SVG/1.1/DTD/svg11.dtd">
<svg width="100%" height="100%" viewBox="0 0 802 204" version="1.1" xmlns="http://www.w3.org/2000/svg" xmlns:xlink="http://www.w3.org/1999/xlink" xml:space="preserve" xmlns:serif="http://www.serif.com/" style="fill-rule:evenodd;clip-rule:evenodd;stroke-linecap:square;stroke-miterlimit:1.5;">
    <g id="nightclub-hybrid" serif:id="nightclub hybrid">
        <g id="minimale">
            <path d="M528.041,90.568C522.861,100.921 512.643,109.736 500.881,109.737C483.893,109.738 470.088,93.265 470.087,75.144C470.086,57.024 483.923,41.984 500.912,41.983C517.9,41.982 531.647,57.019 531.648,75.14L531.648,75.142L472.586,75.141" style="fill:none;stroke:rgb(70,26,62);stroke-width:6.71px;"/>
            <path d="M456.354,4.743L456.379,109.871" style="fill:none;stroke:rgb(70,26,62);stroke-width:6.71px;stroke-linejoin:round;"/>
            <path d="M442.646,80.808C442.647,90.661 428.854,109.772 411.865,109.773C394.877,109.774 381.086,94.695 381.085,76.079C381.083,57.462 394.943,41.955 411.931,41.953C428.919,41.952 442.645,56.561 442.646,75.177L442.646,109.773" style="fill:none;stroke:rgb(70,26,62);stroke-width:6.71px;stroke-linejoin:round;"/>
            <g>
                <path d="M244.371,111.889C244.352,105.976 244.256,83.812 244.255,75.223C244.254,56.966 258.102,41.75 275.088,41.749C292.074,41.748 305.807,56.962 305.808,75.219C305.809,93.476 305.802,109.569 305.802,109.569" style="fill:none;stroke:rgb(70,26,62);stroke-width:6.71px;stroke-linecap:butt;stroke-linejoin:round;stroke-miterlimit:2;"/>
                <path d="M305.808,109.569C305.79,103.656 305.817,83.812 305.817,75.223C305.816,56.966 319.84,41.75 336.826,41.749C353.812,41.748 367.368,56.962 367.369,75.219C367.371,93.476 367.377,109.569 367.377,109.569" style="fill:none;stroke:rgb(70,26,62);stroke-width:6.71px;stroke-linejoin:round;"/>
            </g>
            <path d="M230.548,41.983L230.541,109.773" style="fill:none;stroke:rgb(70,26,62);stroke-width:6.71px;stroke-linejoin:round;"/>
            <path d="M155.28,109.866C155.261,103.965 155.289,83.798 155.288,75.226C155.287,57.006 169.07,42.212 186.053,42.211C203.037,42.209 216.831,57.001 216.832,75.222C216.833,93.442 216.833,109.866 216.833,109.866" style="fill:none;stroke:rgb(70,26,62);stroke-width:6.71px;stroke-linejoin:round;"/>
            <path d="M141.565,41.953L141.565,109.871" style="fill:none;stroke:rgb(70,26,62);stroke-width:6.71px;stroke-linejoin:round;"/>
            <path d="M230.759,22.868L230.759,22.22" style="fill:none;stroke:rgb(70,26,62);stroke-width:12.5px;stroke-linecap:round;stroke-linejoin:bevel;stroke-miterlimit:3.57146;"/>
            <g>
                <path d="M4.953,109.773C4.934,103.86 4.743,83.623 4.743,75.034C4.741,56.778 18.654,41.955 35.64,41.953C52.626,41.952 66.294,56.773 66.295,75.03C66.297,93.287 66.296,109.773 66.296,109.773" style="fill:none;stroke:rgb(70,26,62);stroke-width:6.71px;stroke-linejoin:round;"/>
                <path d="M66.296,109.773C66.278,103.86 66.305,83.623 66.304,75.034C66.303,56.778 79.823,41.955 96.809,41.953C113.794,41.952 127.855,56.773 127.857,75.03C127.858,93.287 127.857,109.773 127.857,109.773" style="fill:none;stroke:rgb(70,26,62);stroke-width:6.71px;stroke-linejoin:round;"/>
            </g>
            <path d="M141.759,22.868L141.759,22.22" style="fill:none;stroke:rgb(70,26,62);stroke-width:12.5px;stroke-linecap:round;stroke-linejoin:bevel;stroke-miterlimit:3.57146;"/>
        </g>
        <g id="par">
            <path d="M550.532,111.445C545.494,81.329 584.205,52.212 596.945,60.453C602.589,64.103 597.28,85.222 594.267,93.84C585.499,118.91 571.445,140.186 563.166,165.643C560.631,173.441 556.461,187.961 556.779,196.855C556.909,200.505 558.774,204.042 562.713,203.934C566.728,203.825 567.748,200.124 568.617,196.883C570.279,190.69 571.151,184.308 572.658,178.076C580.434,145.925 593.104,116.47 611.202,88.732C621.512,72.93 634.721,58.588 648.528,45.79C650.393,44.061 652.448,42.51 654.648,41.234C656.74,40.021 661.363,37.598 661.792,39.977C662.728,45.169 658.179,53.446 655.671,57.485C642.463,78.751 635.393,85.963 626.084,96.055C624.207,98.09 615.28,106.15 611.67,107.172C609.422,107.808 604.038,107.097 602.719,110.823C599.275,120.551 613.566,116.739 616.765,114.728C618.191,114.118 619.64,113.499 620.9,112.595C627.692,107.72 632.782,102.811 638.329,96.521C649.348,84.024 658.904,68.775 666.684,54.087C670.212,47.426 672.654,39.597 666.523,33.782C663.246,30.674 657.456,32.091 653.978,33.627C638.901,40.286 626.691,56.065 617.004,67.562C611.33,74.296 606.254,81.224 601.292,88.89C602.354,83.569 614.71,57.594 600.322,52.312C573.919,42.62 537.622,78.118 545.117,111.612C546.713,118.742 555.149,121.45 555.149,121.45C555.149,121.45 551.223,115.571 550.532,111.445Z" style="fill:rgb(70,26,62);"/>
            <g id="Layer2">
                <g id="Layer3">
                    <path d="M710.806,44.497C709.676,43.704 710.953,38.398 703.123,37.483C702.037,37.356 698.513,37.831 695.379,39.711C689.016,43.528 678.698,55.452 673.179,63.613C668.108,71.113 658.548,86.528 658.746,100.826C658.863,109.337 665.325,115.184 671.059,115.222C677.6,115.265 685.254,106.99 685.254,106.99C685.254,106.99 686.808,116.789 694.814,116.257C702.085,115.774 723.64,86.66 723.64,86.66C723.64,86.66 713.302,108.462 714.496,113.178C715.195,115.938 717.439,117.902 719.979,117.794C722.518,117.686 724.023,114.109 724.976,110.698C725.929,107.287 729.478,95.126 733.549,87.414C738.321,78.379 740.988,75.182 745.974,69.593C751.141,63.802 769.722,45.99 782.259,44.056C788.651,43.071 793.103,44.656 796.443,46.283C800.498,48.258 801.76,45.319 801.365,43.731C800.718,41.132 791.799,34.681 785.743,34.829C779.687,34.977 776.927,35.982 771.748,38.335C760.641,43.38 741.503,62.438 741.503,62.438C741.503,62.438 747.625,49.715 747.875,47.087C748.382,41.772 742.695,42.058 740.56,46.009C738.424,49.96 732.978,60.652 728.278,67.379C720.558,78.426 699.084,109.648 695.747,108.468C692.417,107.29 695.226,97.653 695.632,95.82C698.043,84.925 719.816,49.184 717.57,45.909C714.654,41.656 712.326,45.566 710.806,44.497ZM703.471,42.037C697.762,42.137 691.319,50.716 688.39,54.396C681.454,63.11 676.032,72.408 672.048,82.803C669.971,88.222 668.693,93.097 668.663,98.874C668.662,99.07 668.314,106.462 671.187,106.927C676.744,107.827 684.612,93.526 685.626,91.761C693.662,77.777 701.57,62.741 708.996,48.424C710.319,45.873 707.993,45.489 707.508,44.789C707.022,44.086 707.72,42.68 707.25,42.242C706.815,41.835 704.387,42.021 703.471,42.037Z" style="fill:rgb(70,26,62);"/>
                </g>
            </g>
        </g>
    </g>
</svg>
