<?xml version="1.0" encoding="UTF-8" standalone="no"?>
<!DOCTYPE svg PUBLIC "-//W3C//DTD SVG 1.1//EN" "http://www.w3.org/Graphics/SVG/1.1/DTD/svg11.dtd">
<svg width="100%" height="100%" viewBox="0 0 757 322" version="1.1" xmlns="http://www.w3.org/2000/svg" xmlns:xlink="http://www.w3.org/1999/xlink" xml:space="preserve" xmlns:serif="http://www.serif.com/" style="fill-rule:evenodd;clip-rule:evenodd;stroke-linecap:square;stroke-miterlimit:1.5;">
    <g id="minimale">
        <path d="M528.041,90.568C522.861,100.921 512.643,109.736 500.881,109.737C483.893,109.738 470.088,93.265 470.087,75.144C470.086,57.024 483.923,41.984 500.912,41.983C517.9,41.982 531.647,57.019 531.648,75.14L531.648,75.142L472.586,75.141" style="fill:none;stroke:rgb(70,26,62);stroke-width:6.71px;"/>
        <path d="M456.354,4.743L456.379,109.871" style="fill:none;stroke:rgb(70,26,62);stroke-width:6.71px;stroke-linejoin:round;"/>
        <path d="M442.646,80.808C442.647,90.661 428.854,109.772 411.865,109.773C394.877,109.774 381.086,94.695 381.085,76.079C381.083,57.462 394.943,41.955 411.931,41.953C428.919,41.952 442.645,56.561 442.646,75.177L442.646,109.773" style="fill:none;stroke:rgb(70,26,62);stroke-width:6.71px;stroke-linejoin:round;"/>
        <g>
            <path d="M244.371,111.889C244.352,105.976 244.256,83.812 244.255,75.223C244.254,56.966 258.102,41.75 275.088,41.749C292.074,41.748 305.807,56.962 305.808,75.219C305.809,93.476 305.802,109.569 305.802,109.569" style="fill:none;stroke:rgb(70,26,62);stroke-width:6.71px;stroke-linecap:butt;stroke-linejoin:round;stroke-miterlimit:2;"/>
            <path d="M305.808,109.569C305.79,103.656 305.817,83.812 305.817,75.223C305.816,56.966 319.84,41.75 336.826,41.749C353.812,41.748 367.368,56.962 367.369,75.219C367.371,93.476 367.377,109.569 367.377,109.569" style="fill:none;stroke:rgb(70,26,62);stroke-width:6.71px;stroke-linejoin:round;"/>
        </g>
        <path d="M230.548,41.983L230.541,109.773" style="fill:none;stroke:rgb(70,26,62);stroke-width:6.71px;stroke-linejoin:round;"/>
        <path d="M155.28,109.866C155.261,103.965 155.289,83.798 155.288,75.226C155.287,57.006 169.07,42.212 186.053,42.211C203.037,42.209 216.831,57.001 216.832,75.222C216.833,93.442 216.833,109.866 216.833,109.866" style="fill:none;stroke:rgb(70,26,62);stroke-width:6.71px;stroke-linejoin:round;"/>
        <path d="M141.565,41.953L141.565,109.871" style="fill:none;stroke:rgb(70,26,62);stroke-width:6.71px;stroke-linejoin:round;"/>
        <g>
            <path d="M4.953,109.773C4.934,103.86 4.743,83.623 4.743,75.034C4.741,56.778 18.654,41.955 35.64,41.953C52.626,41.952 66.294,56.773 66.295,75.03C66.297,93.287 66.296,109.773 66.296,109.773" style="fill:none;stroke:rgb(70,26,62);stroke-width:6.71px;stroke-linejoin:round;"/>
            <path d="M66.296,109.773C66.278,103.86 66.305,83.623 66.304,75.034C66.303,56.778 79.823,41.955 96.809,41.953C113.794,41.952 127.855,56.773 127.857,75.03C127.858,93.287 127.857,109.773 127.857,109.773" style="fill:none;stroke:rgb(70,26,62);stroke-width:6.71px;stroke-linejoin:round;"/>
        </g>
    </g>
    <g id="par">
        <path d="M423.208,198.192C416.517,158.201 467.921,119.537 484.838,130.48C492.332,135.328 485.284,163.371 481.282,174.814C469.639,208.105 450.977,236.357 439.984,270.161C436.617,280.516 431.081,299.797 431.502,311.607C431.675,316.454 434.151,321.151 439.382,321.008C444.713,320.862 446.068,315.948 447.222,311.644C449.429,303.42 450.587,294.947 452.589,286.671C462.914,243.978 479.738,204.865 503.77,168.032C517.461,147.049 535.001,128.004 553.334,111.01C555.811,108.714 558.54,106.655 561.462,104.96C564.239,103.349 570.379,100.132 570.948,103.291C572.191,110.186 566.15,121.177 562.82,126.539C545.281,154.778 535.893,164.355 523.532,177.757C521.039,180.459 509.185,191.161 504.392,192.518C501.406,193.363 494.258,192.418 492.506,197.367C487.932,210.285 506.909,205.223 511.158,202.551C513.051,201.742 514.975,200.92 516.648,199.72C525.667,193.246 532.426,186.727 539.791,178.374C554.423,161.78 567.113,141.531 577.444,122.027C582.129,113.182 585.372,102.786 577.23,95.065C572.878,90.937 565.19,92.819 560.572,94.858C540.551,103.701 524.337,124.654 511.475,139.921C503.941,148.863 497.199,158.063 490.611,168.242C492.021,161.176 508.428,126.684 489.323,119.671C454.263,106.8 406.064,153.937 416.017,198.414C418.136,207.882 429.339,211.478 429.339,211.478C429.339,211.478 424.124,203.671 423.208,198.192Z" style="fill:rgb(70,26,62);"/>
        <g id="Layer2">
            <g id="Layer3">
                <path d="M636.033,109.294C634.533,108.239 636.228,101.195 625.83,99.979C624.389,99.811 619.709,100.441 615.548,102.937C607.099,108.007 593.398,123.841 586.069,134.677C579.334,144.637 566.64,165.106 566.903,184.092C567.059,195.393 575.639,203.157 583.253,203.207C591.939,203.265 602.103,192.276 602.103,192.276C602.103,192.276 604.166,205.288 614.797,204.582C624.453,203.941 653.075,165.281 653.075,165.281C653.075,165.281 639.347,194.231 640.933,200.493C641.861,204.158 644.841,206.766 648.213,206.623C651.585,206.48 653.584,201.729 654.849,197.2C656.114,192.671 660.827,176.522 666.234,166.282C672.569,154.284 676.111,150.039 682.732,142.618C689.593,134.928 714.266,111.275 730.914,108.708C739.402,107.399 745.314,109.504 749.749,111.664C755.134,114.287 756.809,110.385 756.285,108.276C755.426,104.825 743.582,96.259 735.541,96.455C727.499,96.652 723.834,97.987 716.957,101.11C702.208,107.81 676.795,133.116 676.795,133.116C676.795,133.116 684.924,116.222 685.257,112.733C685.93,105.674 678.378,106.054 675.542,111.301C672.707,116.547 665.475,130.745 659.233,139.677C648.983,154.347 620.467,195.806 616.036,194.239C611.614,192.675 615.344,179.879 615.883,177.444C619.085,162.976 647.997,115.516 645.015,111.167C641.143,105.521 638.051,110.712 636.033,109.294ZM626.293,106.026C618.712,106.159 610.157,117.552 606.267,122.438C597.057,134.009 589.857,146.356 584.567,160.159C581.808,167.355 580.112,173.828 580.072,181.499C580.071,181.759 579.609,191.575 583.423,192.193C590.802,193.388 601.25,174.398 602.596,172.054C613.268,153.486 623.769,133.519 633.629,114.507C635.386,111.12 632.298,110.611 631.654,109.681C631.008,108.747 631.935,106.88 631.311,106.298C630.733,105.758 627.509,106.005 626.293,106.026Z" style="fill:rgb(70,26,62);"/>
            </g>
        </g>
    </g>
</svg>
