<?xml version="1.0" encoding="UTF-8" standalone="no"?>
<!DOCTYPE svg PUBLIC "-//W3C//DTD SVG 1.1//EN" "http://www.w3.org/Graphics/SVG/1.1/DTD/svg11.dtd">
<svg class="shadow" width="1165px" height="253px" version="1.1" xmlns="http://www.w3.org/2000/svg" xmlns:xlink="http://www.w3.org/1999/xlink" xml:space="preserve" xmlns:serif="http://www.serif.com/" style="fill-rule:evenodd;clip-rule:evenodd;stroke-linecap:round;stroke-linejoin:round;stroke-miterlimit:1.5;">
    
    <style>

    .shadow {
    -webkit-filter: drop-shadow( 1px 1px 1px rgba(0, 0, 0, .7));
    filter: drop-shadow( 1px 1px 1px rgba(0, 0, 0, .4));
    /* Similar syntax to box-shadow */
    }
    svg {
        overflow: visible;
        
        
    }

</style>
    
    <g id="par-splash" serif:id="par splash">
        <path id="cat" d="M1142.33,36.727C1148.77,36.735 1154.01,31.537 1154.02,25.126C1154.03,14.781 1145.68,6.36 1135.35,6.25C1098.59,6.381 1067.92,32.673 1060.97,67.511C1060.84,68.177 1063.42,54.351 1056.28,43.175C1051.49,35.669 1042.85,36.071 1038.64,40.362C1030.85,48.301 1037.86,58.644 1040.19,62.808C1046.99,74.943 1047.65,85.533 1046.94,100.012C1046.21,114.886 1038.81,141.939 1059.49,142.22C1074.44,142.424 1070.18,109.993 1070.14,99.732C1070.11,89.563 1069.7,77.619 1077.35,67.511C1083.29,59.665 1084.48,58.727 1093.76,51.478C1106.32,41.668 1122.22,36.73 1138.5,36.649C1139.78,36.643 1141.06,36.669 1142.33,36.727" style="fill:rgb(70,26,62);stroke:rgb(67,0,71);stroke-opacity:0;stroke-width:0.42px;"/>
        <path d="M1018.01,53.266C1019.13,45.447 1016.73,40.088 1009.04,37.944C999.682,35.334 996.296,46.119 996.296,46.119C996.296,46.119 991.612,36.229 977.29,38.052C962.969,39.875 937.732,58.659 935.736,96.998C934.199,126.509 944.329,138.755 965.934,139.521C989.692,140.362 1000.25,111.059 1000.25,111.059C1000.25,111.059 1008.48,142.305 1024.8,142.324C1039.3,142.341 1038.19,131.718 1038.19,131.718C1038.19,131.718 1038.67,124.862 1025.45,112.582C1014.01,101.951 1015.19,73.061 1018.01,53.266ZM973.224,54.633C967.405,57.866 954.961,70.682 954.204,88.674C953.675,101.255 958.854,113.732 969.561,114.253C987.187,115.111 993.912,84.408 992.512,63.458C992.09,57.145 980.262,50.723 973.224,54.633Z" style="fill:rgb(70,26,62);"/>
        <path id="cat1" serif:id="cat" d="M791.37,204.595C785.229,206.547 781.821,213.091 783.762,219.201C786.896,229.06 797.407,234.544 807.281,231.508C839.529,221.089 858.158,182.988 857.331,147.632C857.29,145.894 925.329,149.785 928.352,87.145C930.722,38.013 909.81,27.806 893.587,27.241C854.554,25.882 848.017,62.294 848.017,62.294C848.017,62.294 842.229,50.19 837.619,49.86C823.396,48.841 818.602,67.239 823.18,75.427C837.051,100.234 841.89,126.019 841.525,142.118C841.145,158.905 836.23,170.075 836.016,170.677C835.407,172.395 834.051,174.534 833.153,175.773C823.803,188.683 810.525,198.478 795.042,203.504C793.825,203.9 792.599,204.264 791.367,204.596L791.37,204.595ZM857.244,85.113C858.483,71.581 866.893,50.646 883.557,50.323C898.079,50.042 908.817,71.393 908.062,86.246C905.516,136.314 862.418,128.572 862.418,128.572C862.418,128.572 855.676,102.251 857.244,85.113Z" style="fill:rgb(70,26,62);stroke:rgb(70,26,62);stroke-opacity:0;stroke-width:0.42px;"/>
    </g>
    <g id="minimale">
        <path d="M755.709,116.294C749.066,129.568 735.965,140.871 720.884,140.872C699.102,140.874 681.402,119.751 681.4,96.518C681.399,73.284 699.141,54.001 720.923,53.999C742.705,53.998 760.332,73.278 760.333,96.512L760.333,96.515L684.605,96.513" style="fill-opacity:0;stroke:rgb(70,26,62);stroke-width:12.5px;"/>
        <path d="M652.579,6.25L652.611,141.044" style="fill:none;stroke:rgb(70,26,62);stroke-width:12.5px;"/>
        <path d="M623.789,103.78C623.79,116.413 606.105,140.917 584.323,140.918C562.541,140.92 544.858,121.586 544.856,97.716C544.855,73.846 562.625,53.962 584.407,53.961C606.189,53.959 623.788,72.69 623.789,96.56L623.789,140.918" style="fill-opacity:0;stroke:rgb(70,26,62);stroke-width:12.5px;"/>
        <g>
            <path d="M358.341,140.657C358.317,133.075 358.204,107.632 358.203,96.619C358.201,73.21 375.956,53.701 397.735,53.699C419.515,53.698 437.123,73.205 437.125,96.613C437.126,120.022 437.117,140.657 437.117,140.657" style="fill-opacity:0;stroke:rgb(70,26,62);stroke-width:12.5px;stroke-miterlimit:2;"/>
            <path d="M437.125,140.657C437.101,133.075 437.137,107.632 437.136,96.619C437.134,73.21 455.117,53.701 476.896,53.699C498.675,53.698 516.056,73.205 516.058,96.613C516.059,120.022 516.067,140.657 516.067,140.657" style="fill-opacity:0;stroke:rgb(70,26,62);stroke-width:12.5px;"/>
        </g>
        <g>
            <path d="M329.413,53.999L329.405,140.918" style="fill:none;stroke:rgb(70,26,62);stroke-width:12.5px;"/>
        </g>
        <path d="M221.693,141.038C221.669,133.471 221.704,107.614 221.703,96.623C221.702,73.261 239.374,54.292 261.15,54.291C282.926,54.289 300.613,73.255 300.614,96.617C300.616,119.979 300.615,141.038 300.615,141.038" style="fill-opacity:0;stroke:rgb(70,26,62);stroke-width:12.5px;"/>
        <g>
            <path d="M192.895,53.961L192.895,141.044" style="fill:none;stroke:rgb(70,26,62);stroke-width:12.5px;"/>
        </g>
        <g>
            <path d="M6.519,140.918C6.495,133.336 6.251,107.39 6.25,96.377C6.248,72.968 24.087,53.962 45.866,53.961C67.645,53.959 85.17,72.963 85.172,96.371C85.174,119.78 85.173,140.918 85.173,140.918" style="fill-opacity:0;stroke:rgb(70,26,62);stroke-width:12.5px;"/>
            <path d="M85.173,140.918C85.149,133.336 85.184,107.39 85.183,96.377C85.181,72.968 102.516,53.962 124.295,53.961C146.074,53.959 164.103,72.963 164.105,96.371C164.107,119.78 164.106,140.918 164.106,140.918" style="fill-opacity:0;stroke:rgb(70,26,62);stroke-width:12.5px;"/>
        </g>
    </g>
</svg>
