<?xml version="1.0" encoding="UTF-8" standalone="no"?><!DOCTYPE svg PUBLIC "-//W3C//DTD SVG 1.1//EN" "http://www.w3.org/Graphics/SVG/1.1/DTD/svg11.dtd"><svg width="126px" height="126px" version="1.1" xmlns="http://www.w3.org/2000/svg" xmlns:xlink="http://www.w3.org/1999/xlink" xml:space="preserve" xmlns:serif="http://www.serif.com/" style="fill-rule:evenodd;clip-rule:evenodd;stroke-linejoin:round;stroke-miterlimit:2;"><g transform="matrix(1,0,0,1,-1634.6,-3296)"><g id="favicon" transform="matrix(1,0,0,1,133.356,-0.156614)"><rect x="1501.24" y="3296.16" width="125.419" height="125.419" style="fill:none;"/><g transform="matrix(1.23537,0,0,1.23911,-370.835,-788.949)"><circle cx="1566.31" cy="3347.42" r="50.609" style="fill:rgb(70,26,62);"/></g><g transform="matrix(1,0,0,1,-133.356,0.156614)"><path d="M1697.31,3299.82C1729.82,3299.82 1756.21,3326.21 1756.21,3358.72C1756.21,3391.23 1729.82,3417.62 1697.31,3417.62C1664.79,3417.62 1638.4,3391.23 1638.4,3358.72C1638.4,3326.21 1664.79,3299.82 1697.31,3299.82ZM1708.51,3320.84C1708.84,3321.02 1709.16,3321.22 1709.49,3321.46C1710.19,3321.97 1710.81,3322.58 1711.37,3323.24C1712.37,3324.42 1713.11,3325.76 1714.91,3325.59C1715.73,3325.55 1716.44,3326.17 1716.48,3326.98C1716.5,3327.32 1716.4,3327.64 1716.21,3327.89C1716.75,3328.41 1717.11,3329.11 1717.15,3329.91C1717.18,3330.45 1717.06,3330.97 1716.83,3331.42L1716.83,3331.42C1717.01,3333.35 1715.92,3335.23 1714.14,3335.98L1714.14,3335.98C1713.01,3336.46 1712.07,3337.43 1711.65,3338.61C1711.5,3339.12 1711.35,3339.63 1711.27,3340.15C1711.02,3341.64 1711.41,3343.28 1712.11,3344.61C1712.28,3344.96 1712.45,3345.32 1712.61,3345.68C1713.63,3347.93 1714.24,3350.41 1714.34,3353.03C1714.51,3357.44 1713.2,3361.57 1710.86,3364.94C1707.11,3370.4 1705.04,3377.1 1705.4,3384.24C1705.48,3385.88 1705.67,3388.07 1705.97,3390.24C1705.98,3390.32 1705.98,3390.37 1706.05,3390.66C1706.12,3390.96 1706.08,3390.82 1706.14,3391C1706.64,3392.48 1708.32,3394.27 1710.64,3394.23C1711.29,3394.22 1712.45,3393.77 1712.97,3393.37C1713.56,3392.93 1714.23,3392.13 1714.61,3391.63C1718.49,3386.4 1720.69,3380 1720.77,3373.33C1720.78,3372.81 1720.77,3372.28 1720.75,3371.76L1720.75,3371.76C1720.76,3369.12 1722.89,3366.99 1725.51,3367C1729.72,3367.02 1733.12,3370.47 1733.14,3374.7C1732.96,3391.86 1719,3405.69 1701.91,3405.59C1700.64,3405.59 1692.97,3405.54 1692.84,3405.54C1682.98,3405.62 1674.04,3401.01 1668.26,3393.74C1664.34,3388.81 1661.65,3382.64 1661.53,3375.85C1661.28,3361.05 1670.25,3348.74 1684.36,3344.21C1687.46,3343.22 1689.99,3340.05 1689.83,3336.61C1689.78,3336.06 1689.75,3335.51 1689.76,3334.96L1683.68,3339.54L1681.74,3336.93L1688.28,3332.01L1684.07,3326.34L1702.39,3312.55L1706.6,3318.21L1713.14,3313.28L1715.07,3315.89L1708.51,3320.84Z" style="fill:rgb(252,190,117);"/></g></g></g></svg>