<?xml version="1.0" encoding="UTF-8" standalone="no"?>
<!DOCTYPE svg PUBLIC "-//W3C//DTD SVG 1.1//EN" "http://www.w3.org/Graphics/SVG/1.1/DTD/svg11.dtd">


<svg id="catlogo" viewBox="0 0 48 62" xmlns="http://www.w3.org/2000/svg" fill-rule="evenodd" clip-rule="evenodd"
    stroke-linecap="round" stroke-linejoin="round" stroke-miterlimit="1.5">
    <path class="logocat"
        d="M39.406 39.069a3.143 3.143 0 013.128-3.152 5.09 5.09 0 015.091 5.033c-.04 11.286-9.223 20.443-20.54 20.457l-6.003.006c-6.533.098-12.472-2.896-16.328-7.647C2.131 50.536.323 46.491.215 42.024c-.235-9.732 5.651-17.865 14.974-20.907 2.049-.669 3.709-2.764 3.583-5.027-.282-2.922.543-6.119 2.46-8.38.871-1.029 1.105-1.073 2.202-1.826.166-.114.384-1.145.939-2.163.628-1.15 1.596-2.292 1.703-2.21.018.014.292.561.609 1.749.287 1.078.141 1.617.429 1.611 1.688-.038 3.195.158 4.606 1.166a7.19 7.19 0 011.259 1.162c.666.773 1.163 1.649 2.355 1.529.539-.03 1.015.376 1.045.907a.948.948 0 01-.174.605c.358.335.599.796.629 1.322.02.357-.057.697-.208.995h.001c.13 1.266-.581 2.509-1.757 3.012l.001-.001a3 3 0 00-1.638 1.741 8.206 8.206 0 00-.248 1.012c-.155.984.107 2.062.576 2.928.118.232.231.467.339.704a12.794 12.794 0 011.178 4.824 12.784 12.784 0 01-2.248 7.853 20.424 20.424 0 00-3.533 12.714 46.3 46.3 0 00.41 3.948c.007.049.005.082.052.276.048.198.017.101.06.223.339.967 1.46 2.138 2.999 2.102.428-.01 1.193-.312 1.536-.573.391-.297.829-.821 1.074-1.153a20.51 20.51 0 003.978-13.098" />
    <path class="logohat"
        d="M17.729 13.07l-2.813-3.707L26.979.208l2.813 3.706 4.309-3.27 1.294 1.705-20.681 15.696-1.294-1.705 4.309-3.27z" />
    <path class="logoribbon" d="M28.459 2.226l-11.998 9.106 1.294 1.705 11.998-9.106-1.294-1.705z" />
</svg>