<?xml version="1.0" standalone="no"?>
<!DOCTYPE svg PUBLIC "-//W3C//DTD SVG 20010904//EN"
 "http://www.w3.org/TR/2001/REC-SVG-20010904/DTD/svg10.dtd">
<svg version="1.0" xmlns="http://www.w3.org/2000/svg"
 width="256.000000pt" height="256.000000pt" viewBox="0 0 256.000000 256.000000"
 preserveAspectRatio="xMidYMid meet">
<metadata>
Created by potrace 1.14, written by Peter Selinger 2001-2017
</metadata>
<g transform="translate(0.000000,256.000000) scale(0.100000,-0.100000)"
fill="#000000" stroke="none">
<path d="M1170 2553 c-159 -16 -325 -64 -464 -136 -344 -176 -586 -492 -671
-877 -22 -102 -31 -330 -16 -428 61 -388 256 -696 576 -906 377 -248 860 -272
1269 -63 345 176 592 503 670 889 46 224 24 480 -59 704 -123 329 -410 614
-741 739 -176 66 -389 96 -564 78z m294 -238 c203 -36 383 -127 535 -270 215
-204 331 -469 331 -758 0 -568 -433 -1026 -995 -1054 -594 -29 -1093 446
-1095 1043 -2 653 585 1150 1224 1039z"/>
<path d="M1210 1938 c-80 -60 -144 -115 -142 -121 2 -6 17 -28 34 -50 18 -22
27 -42 21 -45 -5 -4 -30 -22 -56 -41 -44 -32 -45 -34 -30 -57 l15 -23 45 34
c65 50 71 48 53 -16 -13 -46 -53 -83 -118 -108 -292 -115 -429 -443 -299 -715
62 -130 182 -235 315 -276 83 -26 269 -36 377 -21 254 36 455 256 455 499 0
61 -2 66 -39 103 -32 32 -46 39 -78 39 -63 0 -85 -31 -93 -132 -8 -95 -35
-178 -81 -249 -48 -75 -96 -90 -138 -45 -20 21 -24 38 -28 123 -6 114 10 193
57 282 79 147 84 162 84 241 0 52 -7 92 -22 130 -35 87 -30 121 23 173 33 33
45 53 45 75 0 57 -12 91 -34 98 -11 4 -40 24 -62 44 l-42 38 54 39 c29 21 54
41 54 44 0 3 -8 13 -18 22 -17 16 -22 15 -72 -23 l-53 -39 -34 44 c-19 25 -37
45 -41 44 -4 0 -72 -50 -152 -111z"/>
</g>
</svg>
