<?xml version="1.0" encoding="UTF-8" standalone="no"?>
<!DOCTYPE svg PUBLIC "-//W3C//DTD SVG 1.1//EN" "http://www.w3.org/Graphics/SVG/1.1/DTD/svg11.dtd">
<svg width="100%" height="100%" viewBox="0 0 101 101" version="1.1" xmlns="http://www.w3.org/2000/svg" xmlns:xlink="http://www.w3.org/1999/xlink" xml:space="preserve" xmlns:serif="http://www.serif.com/" style="fill-rule:evenodd;clip-rule:evenodd;stroke-linejoin:round;stroke-miterlimit:2;">
    <g transform="matrix(1,0,0,1,-215,-217)">
        <g id="Artboard1" transform="matrix(0.0606481,0,0,0.0627922,168.664,384.8)">
            <rect x="776.895" y="-2657.94" width="1648.86" height="1592.55" style="fill:none;"/>
            <g transform="matrix(16.4886,0,0,15.9255,-2781.03,-6128.15)">
                <path d="M263.099,238.367C264.372,238.207 264.349,237.149 265.09,236.284C266.984,234.075 267.757,231.713 266.934,228.832C266.53,227.417 264.615,225.186 262.939,225.605C261.083,226.069 261.752,226.518 260.331,227.465C258.698,227.14 258.175,229.607 257.869,231.137C257.225,234.354 256.14,237.545 259.767,238.351L259.923,238.847C259.929,238.922 259.984,238.629 259.984,238.629C259.984,238.629 260.09,238.943 260.09,239.106C260.09,239.431 260.037,239.752 260.037,240.061C260.037,240.778 259.623,241.854 259.082,242.395C258.122,243.354 256.614,242.448 255.21,242.448C254.786,242.448 253.055,242.255 252.741,242.569C252.11,243.2 250.849,243.841 249.798,244.798C247.82,246.598 245.327,249.408 244.126,248.807C243.962,248.725 246.158,235.665 246.098,234.919C245.798,234.942 246.442,234.324 246.635,234.18C247.257,233.713 247.748,233.172 247.879,232.477C248.108,231.256 248.343,230.765 248.133,230.739C247.551,230.667 247.354,231.796 247.096,231.924C246.842,232.052 246.141,232.664 245.655,232.177C245.319,231.841 246.191,226.197 245.953,226.068C245.111,225.61 244.497,230.077 244.345,230.002C244.15,229.904 243.768,225.98 243.844,224.89C243.888,224.245 243.672,224.303 243.396,224.165C243.069,224.001 243.201,227.484 242.979,228.374C242.893,228.719 242.896,229.486 242.643,229.738C242.247,230.134 242.141,229.008 242.06,228.095C242.002,227.444 242.038,225.242 241.35,225.754C241.229,225.844 241.557,230.013 241.147,230.423C241.041,230.529 240.489,229.344 240.239,228.844C240.229,228.824 239.789,228.354 239.74,228.452C239.523,228.886 239.849,229.841 239.952,230.255C240.312,231.695 241.787,233.157 241.865,235.531C241.94,237.799 241.32,239.432 240.936,241.739C240.844,242.293 238.042,252.916 240.936,253.82C241.218,253.908 243.099,254.836 248.65,251.724C252.141,249.767 253.751,247.457 254.011,247.718C254.447,248.154 252.92,259.176 252.92,262.089C252.92,262.656 252.46,266.252 252.558,266.845C252.875,268.746 252.688,271.165 252.452,273.05C251.999,276.679 252.58,280.346 251.975,283.976C251.56,286.467 251.094,298.781 250.599,301.252C250.203,303.232 250.175,305.409 250.175,307.458C250.175,308.329 249.249,308.502 248.849,309.102C248.274,309.965 247.026,310.66 246.25,311.436C245.821,311.865 245.608,312.449 245.296,312.762C245.137,312.92 244.832,312.854 244.712,312.974C244.423,313.263 243.566,313.965 244.447,314.406C244.784,314.574 245.334,314.436 245.667,314.353C246.822,314.064 248.126,314.427 249.273,314.141C250.356,313.87 251.811,314.517 252.774,313.875C255.051,312.357 254.766,308.811 255.054,306.503C255.562,302.444 256.065,288.556 256.801,284.506C257.199,282.318 257.227,280.24 257.385,278.036C257.437,277.297 257.451,276.536 257.597,275.808C257.966,273.96 257.487,275.029 258.306,273.391C258.67,272.663 258.417,272.434 259.208,272.171C259.404,272.105 260.152,271.503 260.215,271.534C260.811,271.832 260.587,273.501 260.587,273.974C260.587,276.266 260.604,275.696 260.461,277.983C260.093,283.875 260.24,299.724 260.729,305.602C260.863,307.206 260.906,308.763 261.101,310.322C261.144,310.671 260.952,311.552 261.207,311.807C263.631,314.231 268.551,314.981 271.867,313.875C272.254,313.746 272.467,313.647 272.663,313.451C272.675,313.439 271.897,312.767 271.814,312.602C271.504,311.981 270.825,311.712 270.276,311.383C269.589,310.97 269.102,310.318 268.367,309.951C267.873,309.704 266.941,309.745 266.564,309.367C264.95,307.754 265.07,305.048 264.813,302.737C264.375,298.794 264.721,284.953 265.075,281.059C265.707,274.108 267.085,267.27 267.78,260.321C267.927,258.847 268.585,251.981 268.788,250.562C268.905,249.743 268.25,248.456 268.629,247.698C268.704,247.548 268.495,247.143 268.576,247.062C268.65,246.987 268.744,247.212 268.841,247.115C268.942,247.014 268.788,246.691 268.788,246.691C268.788,246.691 269.001,247.283 269.053,247.592C269.144,248.137 269.09,248.738 269.159,249.289C269.37,250.98 270.109,252.935 269.749,254.892C269.337,257.131 269.891,257.135 269.749,258.839C269.636,260.189 261.885,275.37 263.295,274.9C264.156,274.613 266.242,274.312 266.564,272.702C266.809,271.473 273.111,263.656 273.359,262.417C274.243,258 273.974,250.942 273.402,248.653C273.056,247.269 273.134,245.518 272.553,244.357C272.373,243.996 272.634,243.405 272.447,243.031C272.288,242.711 272.294,242.3 272.129,241.97C271.744,241.199 270.602,240.872 269.902,240.697C268.632,240.38 264.733,241.898 264.256,241.739C263.94,241.633 262.366,239.082 263.272,238.629L263.099,238.367Z" style="fill:rgb(179,149,124);"/>
                <path d="M242.52,228.711C242.541,228.543 242.56,228.388 242.588,228.276C242.76,227.59 242.713,225.349 242.838,224.467C242.865,224.282 242.903,224.141 242.942,224.056C243.004,223.92 243.093,223.846 243.168,223.807C243.295,223.74 243.431,223.732 243.576,223.804C243.681,223.857 243.777,223.883 243.856,223.926C243.981,223.995 244.082,224.087 244.156,224.235C244.222,224.367 244.27,224.571 244.246,224.918C244.206,225.501 244.3,226.911 244.425,228.087C244.578,227.475 244.761,226.839 244.966,226.402C245.124,226.065 245.314,225.831 245.492,225.726C245.703,225.601 245.922,225.59 246.146,225.712C246.22,225.752 246.332,225.841 246.374,226.034C246.399,226.142 246.406,226.376 246.388,226.696C246.331,227.723 246.069,229.813 245.999,231.106C245.981,231.434 245.996,231.804 246.003,231.935C246.085,231.975 246.178,231.952 246.264,231.923C246.505,231.839 246.726,231.673 246.864,231.59C246.901,231.509 247.175,230.926 247.393,230.674C247.605,230.43 247.867,230.297 248.182,230.336C248.299,230.351 248.388,230.397 248.459,230.463C248.546,230.545 248.624,230.675 248.62,230.887C248.616,231.119 248.449,231.641 248.278,232.552C248.213,232.895 248.077,233.208 247.884,233.495C247.632,233.87 247.282,234.203 246.879,234.505C246.808,234.558 246.619,234.756 246.503,234.881L246.503,234.886C246.552,235.488 245.154,244.046 244.677,247.472C244.617,247.901 244.572,248.247 244.547,248.482C244.635,248.475 244.73,248.45 244.83,248.416C245.136,248.311 245.476,248.103 245.84,247.837C246.995,246.991 248.349,245.563 249.522,244.495C249.713,244.321 249.912,244.156 250.112,244C251.003,243.306 251.939,242.791 252.451,242.279C252.574,242.156 252.826,242.049 253.162,242.009C253.817,241.931 254.886,242.037 255.21,242.037C256.152,242.037 257.142,242.449 257.979,242.423C258.281,242.414 258.559,242.336 258.791,242.104C259.024,241.871 259.226,241.521 259.375,241.154C259.528,240.777 259.625,240.379 259.625,240.061L259.674,239.184C259.639,239.158 259.551,239.094 259.521,238.942L259.444,238.696C257.873,238.285 257.165,237.426 256.905,236.332C256.564,234.898 257.079,232.98 257.464,231.056C257.679,229.979 258.017,228.473 258.711,227.675C259.105,227.221 259.602,226.964 260.231,227.032C260.655,226.729 260.844,226.485 261.005,226.277C261.15,226.088 261.281,225.925 261.48,225.771C261.738,225.571 262.118,225.384 262.839,225.203C263.64,225.003 264.495,225.295 265.25,225.856C266.255,226.603 267.075,227.816 267.333,228.718C267.767,230.235 267.778,231.616 267.435,232.909C267.094,234.196 266.399,235.396 265.406,236.555C265.126,236.882 264.967,237.241 264.793,237.559C264.626,237.865 264.446,238.138 264.193,238.35C264.034,238.484 263.848,238.596 263.617,238.675C263.615,238.69 263.612,238.705 263.608,238.719C263.582,238.815 263.516,238.896 263.427,238.94C263.362,238.973 263.35,239.045 263.344,239.124C263.329,239.321 263.39,239.564 263.48,239.817C263.666,240.341 263.991,240.899 264.237,241.227C264.285,241.291 264.346,241.358 264.382,241.397C264.477,241.383 264.742,241.343 264.968,241.287C265.778,241.088 267.032,240.699 268.114,240.476C268.879,240.319 269.566,240.253 269.986,240.358C270.434,240.47 271.05,240.644 271.56,240.94C271.939,241.16 272.259,241.448 272.442,241.814C272.483,241.897 272.517,241.984 272.544,242.074C272.627,242.34 272.641,242.635 272.76,242.875C272.819,242.991 272.851,243.121 272.863,243.26C272.879,243.447 272.855,243.653 272.842,243.852C272.833,243.979 272.818,244.103 272.866,244.2C273.065,244.597 273.194,245.056 273.286,245.548C273.47,246.523 273.508,247.63 273.742,248.568C274.061,249.844 274.291,252.584 274.281,255.537C274.272,257.939 274.106,260.482 273.705,262.486C273.66,262.712 273.443,263.142 273.094,263.699C271.965,265.496 269.436,268.816 267.965,270.982C267.387,271.834 266.968,272.487 266.911,272.772C266.817,273.243 266.596,273.62 266.3,273.924C266.157,274.931 266.02,275.938 265.893,276.946C265.719,278.325 265.564,279.706 265.438,281.092C265.233,283.355 265.031,288.985 264.984,294.069C264.951,297.704 264.996,301.059 265.179,302.697C265.328,304.036 265.346,305.51 265.659,306.822C265.867,307.691 266.204,308.487 266.824,309.107C266.907,309.189 267.033,309.232 267.171,309.272C267.621,309.4 268.181,309.445 268.532,309.621C268.773,309.741 268.99,309.889 269.195,310.049C269.624,310.385 269.996,310.784 270.466,311.066C270.808,311.271 271.198,311.456 271.526,311.71C271.773,311.902 271.987,312.13 272.136,312.422C272.149,312.436 272.226,312.523 272.288,312.585C272.465,312.762 272.706,312.979 272.831,313.096C272.88,313.142 272.916,313.177 272.931,313.194C273.154,313.442 272.958,313.679 272.924,313.712C272.81,313.826 272.692,313.914 272.551,313.993C272.401,314.075 272.222,314.147 271.984,314.226C270.29,314.791 268.191,314.891 266.199,314.54C264.15,314.18 262.218,313.343 260.944,312.069C260.837,311.962 260.758,311.798 260.725,311.592C260.663,311.216 260.766,310.637 260.732,310.368C260.672,309.892 260.627,309.415 260.589,308.938C260.501,307.848 260.452,306.752 260.359,305.632C260.113,302.688 259.952,297.244 259.899,291.799C259.846,286.355 259.901,280.911 260.085,277.959C260.156,276.822 260.188,276.396 260.201,275.968C260.215,275.541 260.21,275.113 260.21,273.974C260.21,273.705 260.286,273.04 260.233,272.473C260.219,272.322 260.196,272.178 260.155,272.056L260.139,272.01C259.863,272.196 259.465,272.483 259.327,272.529C259.13,272.594 259.024,272.637 258.967,272.716C258.919,272.781 258.905,272.861 258.875,272.958C258.827,273.119 258.767,273.313 258.644,273.56C258.254,274.338 258.175,274.434 258.153,274.598C258.13,274.766 258.146,274.99 257.967,275.882C257.912,276.16 257.877,276.444 257.851,276.729C257.811,277.174 257.793,277.622 257.762,278.063C257.667,279.391 257.619,280.673 257.51,281.96C257.436,282.824 257.335,283.69 257.174,284.574C256.998,285.545 256.836,287.087 256.683,288.923C256.2,294.734 255.818,303.47 255.434,306.551C255.26,307.942 255.288,309.778 254.855,311.36C254.54,312.51 253.985,313.528 252.987,314.194C252.629,314.433 252.217,314.53 251.776,314.55C250.984,314.586 250.09,314.332 249.366,314.513C249.111,314.577 248.848,314.612 248.582,314.629C247.649,314.689 246.659,314.501 245.76,314.726C245.542,314.78 245.239,314.854 244.951,314.868C244.703,314.879 244.465,314.845 244.275,314.75C243.731,314.478 243.631,314.115 243.687,313.78C243.718,313.591 243.817,313.397 243.952,313.219C244.111,313.009 244.32,312.821 244.44,312.702C244.511,312.631 244.603,312.578 244.714,312.546C244.773,312.528 244.84,312.516 244.91,312.505C244.947,312.499 245.016,312.483 245.034,312.478C245.242,312.264 245.399,311.919 245.623,311.596C245.727,311.445 245.843,311.298 245.978,311.163C246.515,310.626 247.274,310.127 247.886,309.586C248.138,309.363 248.364,309.134 248.528,308.888C248.693,308.64 248.93,308.45 249.173,308.269C249.353,308.135 249.538,308.01 249.665,307.84C249.741,307.738 249.789,307.616 249.789,307.458C249.789,306.226 249.799,304.948 249.892,303.693C249.955,302.836 250.057,301.99 250.22,301.177C250.343,300.56 250.463,299.322 250.582,297.776C250.94,293.139 251.28,285.778 251.591,283.912C251.709,283.201 251.781,282.489 251.824,281.777C252,278.853 251.701,275.915 252.064,273.002C252.203,271.89 252.325,270.59 252.334,269.324C252.34,268.482 252.296,267.655 252.172,266.909C252.144,266.742 252.151,266.356 252.185,265.864C252.274,264.582 252.528,262.507 252.528,262.089C252.527,261.444 252.601,260.405 252.712,259.173C253.012,255.826 253.59,251.023 253.683,248.843C253.69,248.681 253.69,248.514 253.687,248.366C253.353,248.669 252.868,249.146 252.215,249.704C251.372,250.424 250.259,251.275 248.843,252.069C246.908,253.154 245.41,253.756 244.265,254.076C241.956,254.723 241.016,254.261 240.818,254.199C240.365,254.057 240.013,253.737 239.76,253.268C239.405,252.608 239.246,251.624 239.233,250.492C239.192,247.003 240.481,242.049 240.543,241.673C240.773,240.291 241.087,239.15 241.287,237.97C241.416,237.206 241.495,236.424 241.466,235.544C241.44,234.764 241.252,234.089 241.006,233.483C240.512,232.265 239.802,231.303 239.564,230.352C239.49,230.056 239.312,229.498 239.274,229.027C239.251,228.733 239.285,228.467 239.382,228.273C239.441,228.155 239.533,228.085 239.65,228.053C239.727,228.032 239.837,228.026 239.964,228.083C240.085,228.137 240.317,228.341 240.448,228.478C240.541,228.574 240.593,228.655 240.598,228.665C240.686,228.841 240.812,229.106 240.942,229.366C240.991,228.38 240.925,226.951 240.92,226.224C240.918,225.988 240.925,225.815 240.939,225.733C240.968,225.551 241.065,225.466 241.11,225.432C241.358,225.248 241.576,225.247 241.754,225.316C241.905,225.375 242.05,225.506 242.152,225.723C242.404,226.257 242.417,227.57 242.46,228.06C242.479,228.273 242.497,228.499 242.52,228.711ZM262.82,238.575L262.808,238.558L262.751,238.558C262.672,238.458 262.66,238.33 262.721,238.221C262.781,238.112 262.904,238.036 263.047,238.021L263.047,237.953C263.42,237.907 263.645,237.76 263.811,237.554C264.154,237.129 264.326,236.536 264.774,236.013C265.679,234.958 266.32,233.868 266.631,232.696C266.939,231.539 266.923,230.304 266.535,228.946C266.351,228.3 265.818,227.473 265.145,226.847C264.513,226.259 263.758,225.828 263.04,226.007C262.485,226.146 262.185,226.273 261.986,226.427C261.847,226.534 261.761,226.652 261.66,226.783C261.445,227.061 261.189,227.391 260.561,227.809C260.47,227.87 260.358,227.892 260.25,227.871C259.719,227.765 259.367,228.095 259.097,228.554C258.657,229.307 258.437,230.403 258.274,231.218C257.914,233.015 257.389,234.802 257.707,236.141C257.915,237.016 258.533,237.654 259.856,237.949C259.999,237.981 260.115,238.087 260.159,238.227L260.17,238.262C260.272,238.314 260.35,238.406 260.381,238.522C260.381,238.522 260.444,238.713 260.477,238.883C260.493,238.964 260.501,239.043 260.501,239.106L260.448,240.061C260.448,240.468 260.334,240.98 260.137,241.463C259.945,241.938 259.674,242.384 259.373,242.685C258.979,243.079 258.516,243.23 258.004,243.245C257.159,243.271 256.161,242.858 255.21,242.858C254.968,242.858 254.3,242.795 253.713,242.8C253.516,242.801 253.329,242.81 253.177,242.835C253.117,242.845 253.036,242.87 253.013,242.877C252.848,243.04 252.645,243.203 252.416,243.372C251.755,243.858 250.855,244.39 250.073,245.101C248.88,246.187 247.498,247.637 246.323,248.497C245.781,248.894 245.274,249.168 244.842,249.26C244.506,249.332 244.204,249.303 243.943,249.173C243.876,249.139 243.758,249.066 243.719,248.876C243.712,248.839 243.705,248.761 243.712,248.643C243.726,248.427 243.782,247.974 243.868,247.359C244.313,244.171 245.585,236.477 245.687,235.123C245.64,235.054 245.612,234.97 245.613,234.871C245.613,234.781 245.657,234.625 245.778,234.464C245.94,234.249 246.258,233.954 246.391,233.855C246.663,233.651 246.908,233.433 247.101,233.19C247.288,232.954 247.424,232.696 247.479,232.402C247.504,232.271 247.529,232.143 247.554,232.021L247.549,232.028C247.463,232.159 247.366,232.243 247.278,232.287C247.098,232.377 246.711,232.671 246.318,232.746C245.99,232.809 245.657,232.752 245.369,232.464C245.312,232.407 245.246,232.308 245.212,232.152C245.165,231.938 245.163,231.496 245.197,230.936C245.265,229.818 245.459,228.185 245.546,227.12C245.254,227.933 245.026,229.078 244.881,229.681C244.824,229.916 244.772,230.084 244.736,230.154C244.673,230.281 244.588,230.336 244.535,230.362C244.405,230.428 244.282,230.422 244.165,230.363C244.104,230.333 243.983,230.246 243.914,230.042C243.859,229.877 243.791,229.518 243.728,229.055C243.646,228.446 243.565,227.647 243.509,226.893C243.482,227.557 243.446,228.165 243.369,228.471C243.311,228.703 243.294,229.125 243.212,229.454C243.151,229.696 243.052,229.898 242.927,230.023C242.727,230.223 242.533,230.244 242.379,230.21C242.233,230.177 242.079,230.075 241.97,229.864C241.877,229.684 241.809,229.367 241.757,229.006L241.756,229.052C241.744,229.548 241.711,229.982 241.647,230.256C241.596,230.477 241.51,230.627 241.431,230.706C241.343,230.794 241.239,230.834 241.12,230.83C241.035,230.828 240.845,230.772 240.686,230.549C240.563,230.375 240.384,230.034 240.216,229.699C240.263,229.879 240.311,230.041 240.341,230.158C240.606,231.22 241.486,232.293 241.951,233.742C242.124,234.28 242.243,234.867 242.265,235.517C242.288,236.213 242.247,236.85 242.169,237.465C241.988,238.882 241.6,240.175 241.33,241.804C241.268,242.174 239.988,247.049 240.027,250.482C240.037,251.303 240.12,252.038 240.327,252.595C240.484,253.018 240.704,253.332 241.055,253.441C241.227,253.495 242.043,253.875 244.052,253.313C245.153,253.005 246.594,252.423 248.456,251.379C250.927,249.994 252.441,248.428 253.194,247.751C253.38,247.584 253.528,247.465 253.637,247.401C253.745,247.338 253.839,247.312 253.912,247.305C254.071,247.29 254.194,247.342 254.29,247.439C254.346,247.494 254.417,247.602 254.449,247.781C254.492,248.016 254.493,248.505 254.457,249.17C254.281,252.332 253.313,259.774 253.313,262.089C253.313,262.513 253.058,264.618 252.967,265.919C252.939,266.324 252.922,266.642 252.945,266.78C253.076,267.567 253.124,268.441 253.117,269.329C253.108,270.627 252.983,271.959 252.84,273.099C252.478,275.995 252.778,278.916 252.602,281.824C252.557,282.564 252.482,283.302 252.359,284.04C252.049,285.897 251.712,293.222 251.355,297.836C251.232,299.423 251.106,300.695 250.979,301.328C250.822,302.111 250.724,302.926 250.663,303.751C250.571,304.986 250.561,306.244 250.561,307.458C250.561,307.808 250.451,308.077 250.283,308.302C250.113,308.53 249.874,308.709 249.633,308.888C249.462,309.016 249.287,309.141 249.17,309.316C248.972,309.614 248.702,309.895 248.396,310.164C247.796,310.694 247.049,311.182 246.523,311.708C246.421,311.809 246.335,311.921 246.256,312.035C245.998,312.405 245.808,312.793 245.568,313.034C245.472,313.13 245.353,313.191 245.222,313.227C245.141,313.249 244.997,313.273 244.948,313.281C244.809,313.413 244.574,313.614 244.471,313.833C244.456,313.865 244.437,313.896 244.445,313.928C244.46,313.984 244.526,314.015 244.619,314.062C244.728,314.116 244.873,314.107 245.016,314.091C245.219,314.07 245.421,314.018 245.574,313.98C245.829,313.916 246.092,313.881 246.358,313.863C247.295,313.802 248.286,313.991 249.18,313.768C249.949,313.576 250.9,313.821 251.742,313.783C252.039,313.77 252.32,313.717 252.561,313.556C253.402,312.996 253.851,312.126 254.116,311.158C254.54,309.612 254.505,307.816 254.675,306.456C255.06,303.38 255.443,294.66 255.926,288.86C256.082,286.993 256.249,285.426 256.428,284.438C256.585,283.579 256.683,282.736 256.755,281.896C256.865,280.612 256.913,279.333 257.007,278.009C257.039,277.563 257.057,277.11 257.098,276.661C257.126,276.349 257.165,276.039 257.226,275.734C257.398,274.874 257.383,274.657 257.405,274.496C257.432,274.297 257.496,274.166 257.968,273.222C258.092,272.975 258.136,272.79 258.182,272.644C258.228,272.499 258.278,272.38 258.356,272.272C258.478,272.104 258.67,271.953 259.088,271.813C259.234,271.765 259.7,271.387 259.912,271.259C260.013,271.197 260.097,271.17 260.139,271.162C260.247,271.144 260.327,271.169 260.384,271.197C260.669,271.34 260.865,271.675 260.945,272.117C261.062,272.759 260.963,273.645 260.963,273.974C260.963,275.127 260.967,275.56 260.954,275.992C260.94,276.424 260.908,276.856 260.836,278.006C260.652,280.946 260.596,286.37 260.648,291.792C260.699,297.215 260.856,302.637 261.1,305.571C261.194,306.691 261.242,307.788 261.33,308.879C261.367,309.345 261.411,309.81 261.469,310.276C261.496,310.487 261.444,310.882 261.443,311.231C261.443,311.317 261.446,311.399 261.458,311.472C261.462,311.5 261.475,311.542 261.479,311.554C262.655,312.724 264.441,313.478 266.327,313.811C268.194,314.14 270.162,314.054 271.75,313.525C271.879,313.482 271.986,313.443 272.079,313.402C271.833,313.167 271.536,312.872 271.484,312.768C271.386,312.572 271.239,312.422 271.073,312.294C270.769,312.058 270.404,311.89 270.086,311.699C269.59,311.401 269.194,310.984 268.741,310.631C268.574,310.5 268.398,310.378 268.202,310.28C267.827,310.093 267.191,310.08 266.753,309.908C266.574,309.838 266.421,309.745 266.303,309.628C265.587,308.911 265.183,307.997 264.943,306.993C264.624,305.652 264.6,304.147 264.448,302.778C264.264,301.123 264.217,297.734 264.252,294.062C264.3,288.955 264.505,283.299 264.712,281.026C264.839,279.632 264.996,278.242 265.171,276.855C265.27,276.075 265.375,275.296 265.483,274.517C264.747,274.903 263.891,275.075 263.407,275.237C263.253,275.288 263.129,275.266 263.032,275.218C262.946,275.174 262.873,275.104 262.824,274.997C262.778,274.897 262.752,274.724 262.787,274.485C262.83,274.195 262.958,273.756 263.155,273.206C263.867,271.215 265.494,267.688 266.912,264.598C267.102,263.164 267.276,261.727 267.42,260.285C267.518,259.314 267.837,256.003 268.101,253.45C268.239,252.122 268.362,250.998 268.431,250.511C268.474,250.217 268.395,249.855 268.319,249.483C268.234,249.066 268.145,248.638 268.15,248.257C268.153,248.015 268.193,247.79 268.282,247.591C268.265,247.519 268.195,247.218 268.197,247.116C268.2,246.976 268.254,246.875 268.321,246.808C268.357,246.772 268.393,246.745 268.43,246.726C268.414,246.568 268.505,246.414 268.659,246.355C268.838,246.287 269.039,246.37 269.116,246.545C269.116,246.545 269.123,246.56 269.133,246.584C269.152,246.627 269.176,246.696 269.196,246.772C269.229,246.872 269.27,246.999 269.308,247.126C269.351,247.273 269.388,247.42 269.407,247.533C269.427,247.654 269.441,247.778 269.451,247.903C269.485,248.346 269.461,248.811 269.515,249.245C269.644,250.28 269.972,251.415 270.123,252.589C270.223,253.367 270.248,254.162 270.101,254.957C269.977,255.631 269.944,256.092 269.953,256.46C269.976,257.307 270.204,257.684 270.105,258.869C270.076,259.225 269.544,260.522 268.772,262.238C268.426,263.008 268.032,263.867 267.62,264.765C267.308,267.109 266.953,269.446 266.609,271.783C266.675,271.67 266.749,271.548 266.83,271.42C267.96,269.625 270.49,266.306 271.96,264.139C272.538,263.287 272.956,262.634 273.013,262.348C273.407,260.383 273.569,257.89 273.578,255.534C273.589,252.655 273.373,249.982 273.062,248.738C272.824,247.788 272.784,246.666 272.598,245.677C272.518,245.253 272.411,244.855 272.24,244.513C272.182,244.397 272.151,244.265 272.14,244.122C272.127,243.94 272.152,243.736 272.164,243.538C272.172,243.411 272.184,243.287 272.134,243.187C272.093,243.104 272.06,243.016 272.032,242.925C271.954,242.666 271.939,242.371 271.816,242.127C271.692,241.879 271.465,241.693 271.209,241.544C270.758,241.282 270.212,241.135 269.817,241.036C269.465,240.948 268.894,241.029 268.254,241.16C266.978,241.422 265.46,241.918 264.721,242.056C264.445,242.108 264.244,242.102 264.146,242.069C264.072,242.045 263.943,241.962 263.806,241.803C263.468,241.41 262.895,240.447 262.71,239.673C262.604,239.226 262.639,238.839 262.82,238.575ZM266.572,267.047C265.373,269.671 264.207,272.283 263.711,273.769C263.63,274.013 263.568,274.274 263.53,274.461C264.073,274.312 264.832,274.125 265.427,273.728C265.492,273.685 265.554,273.64 265.613,273.591C265.925,271.409 266.259,269.23 266.572,267.047ZM269.099,250.956C269.028,251.529 268.928,252.46 268.818,253.524C268.554,256.076 268.237,259.386 268.14,260.357C268.072,261.038 267.997,261.718 267.917,262.396C268.038,262.13 268.154,261.873 268.264,261.626C268.908,260.183 269.367,259.119 269.393,258.809C269.488,257.663 269.26,257.299 269.238,256.479C269.227,256.075 269.261,255.568 269.397,254.827C269.529,254.106 269.503,253.386 269.412,252.68C269.336,252.093 269.216,251.516 269.099,250.956ZM260.31,238.706L260.315,238.721L260.315,238.721L260.312,238.711L260.31,238.706ZM246.081,234.513C246.076,234.513 246.071,234.513 246.066,234.513L246.081,234.513Z"/>
            </g>
            <g id="Layer4" transform="matrix(16.4886,0,0,15.9255,-2781.03,-6128.15)">
                <path d="M258.77,241.911C258.827,241.94 258.65,242.402 258.828,242.491C259.974,243.064 262.174,242.823 263.354,242.43C264.326,242.106 264.336,241.124 265.373,240.778C265.906,240.601 266.604,240.776 267.147,240.595C269.484,239.816 272.781,239.513 273.753,242.43C275.67,248.181 275.579,255.25 274.12,261.087C273.781,262.445 273.585,263.663 272.774,264.879C271.656,266.557 270.602,268.703 269.349,269.956C269.024,270.282 268.229,271.476 267.758,271.241C267.36,271.042 267.324,270.378 267.024,270.079C266.473,269.527 265.208,269.608 264.7,269.1C264.36,268.76 265.09,266.752 265.373,266.47C268.31,263.532 269.716,259.518 269.716,255.337C269.716,254.381 269.532,253.351 269.532,252.401C269.532,252.09 269.572,251.216 269.41,251.055C269.346,250.991 269.238,251.852 269.227,251.911C269.108,252.503 268.86,253.142 268.86,253.746C268.86,255.255 268.925,258.019 268.248,259.374C268.034,259.801 268.34,260.474 268.125,260.903C267.911,261.332 268.45,262.781 268.187,263.044C267.798,263.433 267.731,264.112 267.269,264.573C266.619,265.223 265.829,265.769 265.128,266.47C264.479,267.119 264.929,268.259 264.394,268.794C263.716,269.472 261.838,269.31 260.785,269.406C258.773,269.589 256.366,269.41 254.423,269.895C253.963,270.01 253.265,270.507 252.894,270.507C252.662,270.507 252.608,269.832 252.588,269.712C252.44,268.821 252.317,267.553 252.038,266.714C251.516,265.15 251.534,262.98 251.977,261.209C252.224,260.217 251.779,258.927 252.099,257.967C252.554,256.6 252.498,255.119 252.955,253.746C253.102,253.307 253.349,253 253.445,252.523C253.614,251.675 253.297,250.843 253.628,250.015C253.724,249.776 254.316,248.807 253.995,248.486C253.95,248.441 253.209,249.324 253.078,249.403C252.418,249.799 251.641,250.008 250.937,250.321C248.255,251.513 246.17,253.455 243.29,254.174C242.696,254.323 241.533,254.812 240.905,254.603C238.618,253.84 239.253,251.021 239.253,249.159C239.253,246.615 239.187,244.042 239.804,241.573C240.007,240.761 239.808,239.668 240.171,238.943C240.318,238.649 240.744,238.592 240.844,238.393C240.955,238.17 240.782,237.781 240.844,237.536C240.919,237.234 241.302,236.833 241.455,236.68C241.6,236.535 241.32,236.156 241.394,236.007C241.506,235.784 241.924,235.708 242.128,235.64C243.598,235.15 243.694,236.353 245.003,236.68C245.509,236.806 246.374,236.399 246.594,236.619C246.756,236.781 246.078,238.6 246.043,238.882C245.754,241.194 246.304,243.526 245.737,245.794C245.663,246.09 245.072,247.602 245.493,247.813C245.934,248.034 246.9,247.124 247.205,246.895C248.387,246.009 249.308,244.875 250.447,244.02C251.047,243.571 251.573,242.684 252.344,242.491C253.058,242.312 254.418,242.061 255.157,242.307C255.851,242.539 257.22,242.849 257.849,242.43C258.116,242.252 258.421,242.164 258.583,242.002C258.783,241.802 259.195,242.267 259.195,241.94L258.77,241.911Z" style="fill:rgb(137,152,131);"/>
                <path d="M241.12,236.508C241.093,236.421 241.043,236.256 241.03,236.172C241.01,236.044 241.029,235.933 241.072,235.846C241.137,235.717 241.25,235.607 241.396,235.523C241.59,235.413 241.858,235.351 242.014,235.299C242.501,235.137 242.864,235.137 243.167,235.217C243.513,235.308 243.782,235.512 244.067,235.746C244.335,235.965 244.623,236.215 245.09,236.332C245.29,236.382 245.557,236.316 245.802,236.27C246.071,236.218 246.321,236.18 246.493,236.202C246.645,236.222 246.762,236.281 246.847,236.366C246.916,236.435 247.002,236.619 246.963,236.897C246.888,237.432 246.426,238.695 246.397,238.926C246.196,240.532 246.405,242.148 246.354,243.745C246.331,244.461 246.258,245.174 246.081,245.88C246.043,246.033 245.864,246.515 245.762,246.97C245.723,247.141 245.712,247.385 245.709,247.492C245.727,247.485 245.747,247.475 245.768,247.468C245.909,247.419 246.062,247.326 246.213,247.223C246.538,246.999 246.845,246.724 246.993,246.613C247.928,245.913 248.697,245.055 249.544,244.307C249.768,244.109 249.998,243.918 250.236,243.739C250.65,243.429 251.028,242.909 251.477,242.556C251.717,242.367 251.975,242.222 252.259,242.151C252.697,242.041 253.371,241.906 254.006,241.866C254.478,241.837 254.931,241.863 255.268,241.976C255.649,242.103 256.247,242.257 256.796,242.284C257.13,242.3 257.446,242.279 257.655,242.14C257.84,242.017 258.042,241.933 258.207,241.843C258.257,241.815 258.303,241.789 258.337,241.755C258.389,241.703 258.445,241.666 258.506,241.64C258.575,241.543 258.681,241.487 258.794,241.496L258.794,241.564L258.946,241.575L258.957,241.539C258.977,241.549 259,241.563 259.023,241.58L259.218,241.593C259.401,241.606 259.543,241.757 259.543,241.94C259.543,242.102 259.489,242.2 259.436,242.262L259.426,242.273C259.902,242.404 260.485,242.434 261.069,242.407C261.865,242.371 262.664,242.222 263.223,242.036C263.606,241.909 263.793,241.641 263.993,241.382C264.185,241.133 264.381,240.885 264.658,240.684C264.821,240.565 265.011,240.462 265.242,240.386C265.38,240.34 265.527,240.311 265.68,240.295C266.117,240.25 266.612,240.337 267.016,240.203C268.501,239.708 270.355,239.413 271.819,239.912C272.852,240.264 273.707,240.992 274.143,242.3C275.113,245.215 275.576,248.464 275.61,251.723C275.644,254.974 275.25,258.235 274.512,261.185C274.302,262.021 274.146,262.805 273.872,263.568C273.686,264.086 273.448,264.594 273.109,265.102C272.348,266.244 271.616,267.602 270.831,268.749C270.447,269.31 270.049,269.822 269.632,270.239C269.374,270.497 268.828,271.259 268.366,271.528C268.082,271.693 267.809,271.713 267.58,271.598C267.441,271.529 267.326,271.427 267.231,271.302C267.106,271.138 267.016,270.924 266.929,270.714C266.875,270.582 266.829,270.447 266.742,270.361C266.566,270.185 266.293,270.104 266.01,270.027C265.659,269.931 265.29,269.855 264.985,269.734C264.761,269.644 264.566,269.53 264.418,269.381C264.395,269.358 264.373,269.332 264.352,269.302C264.105,269.445 263.798,269.546 263.456,269.611C262.609,269.772 261.53,269.723 260.82,269.787C259.423,269.914 257.837,269.866 256.347,269.987C255.711,270.038 255.092,270.121 254.516,270.265C254.179,270.349 253.713,270.648 253.35,270.787C253.179,270.852 253.022,270.887 252.894,270.887C252.717,270.887 252.548,270.798 252.43,270.604C252.29,270.372 252.232,269.884 252.214,269.774C252.126,269.248 252.048,268.59 251.941,267.966C251.87,267.556 251.787,267.161 251.678,266.834C251.4,265.997 251.267,264.995 251.268,263.968C251.268,263 251.388,262.01 251.611,261.118C251.802,260.354 251.561,259.409 251.61,258.585C251.625,258.327 251.665,258.08 251.743,257.848C252.103,256.768 252.136,255.615 252.368,254.503C252.43,254.208 252.504,253.916 252.6,253.628C252.707,253.308 252.865,253.056 252.983,252.762C253.022,252.666 253.055,252.564 253.078,252.45C253.194,251.872 253.071,251.301 253.102,250.735C253.118,250.448 253.168,250.162 253.282,249.876C253.306,249.817 253.362,249.71 253.427,249.579C253.354,249.652 253.298,249.705 253.269,249.722C253.056,249.85 252.832,249.959 252.601,250.059C252.104,250.275 251.578,250.442 251.087,250.66C249.211,251.493 247.628,252.695 245.858,253.585C245.08,253.977 244.266,254.31 243.38,254.531C242.967,254.634 242.285,254.896 241.689,254.986C241.351,255.038 241.036,255.033 240.789,254.951C239.719,254.594 239.202,253.85 238.97,252.943C238.668,251.766 238.888,250.29 238.888,249.159C238.889,247.626 238.866,246.083 238.981,244.558C239.059,243.522 239.2,242.495 239.452,241.486C239.589,240.942 239.536,240.268 239.607,239.671C239.645,239.348 239.716,239.044 239.848,238.782C239.914,238.649 240.012,238.544 240.126,238.457C240.223,238.384 240.333,238.326 240.433,238.271C240.463,238.254 240.507,238.226 240.527,238.212C240.534,238.178 240.519,238.136 240.514,238.093C240.5,237.971 240.477,237.843 240.471,237.726C240.466,237.626 240.473,237.532 240.494,237.449C240.532,237.295 240.626,237.119 240.745,236.952C240.867,236.781 241.013,236.62 241.12,236.508ZM246.233,236.922L246.208,236.925C246.005,236.954 245.763,237.012 245.532,237.042C245.31,237.07 245.095,237.072 244.916,237.027C244.325,236.88 243.951,236.579 243.612,236.301C243.41,236.136 243.229,235.976 242.983,235.911C242.788,235.86 242.555,235.876 242.242,235.981C242.158,236.009 242.039,236.038 241.92,236.078C241.872,236.094 241.823,236.112 241.779,236.134L241.766,236.141C241.799,236.249 241.853,236.438 241.857,236.537C241.863,236.698 241.812,236.832 241.71,236.934C241.637,237.008 241.505,237.144 241.387,237.297C241.302,237.405 241.219,237.52 241.193,237.624C241.178,237.683 241.196,237.756 241.206,237.831C241.226,237.97 241.247,238.114 241.242,238.24C241.237,238.356 241.212,238.462 241.166,238.554C241.136,238.614 241.095,238.67 241.043,238.721C240.958,238.803 240.832,238.875 240.698,238.949C240.623,238.99 240.534,239.024 240.494,239.105C240.398,239.296 240.352,239.52 240.324,239.756C240.251,240.383 240.297,241.09 240.155,241.661C239.913,242.631 239.779,243.618 239.705,244.612C239.593,246.119 239.617,247.644 239.618,249.159C239.618,250.236 239.391,251.641 239.679,252.761C239.852,253.433 240.228,253.991 241.021,254.255C241.228,254.324 241.507,254.282 241.798,254.22C242.312,254.109 242.854,253.905 243.201,253.818C244.033,253.609 244.796,253.295 245.527,252.927C247.306,252.03 248.899,250.821 250.786,249.982C251.279,249.763 251.807,249.594 252.306,249.378C252.506,249.291 252.701,249.196 252.886,249.085C252.984,249.026 253.432,248.484 253.635,248.29C253.727,248.203 253.805,248.156 253.843,248.141C254.043,248.06 254.178,248.143 254.258,248.223C254.439,248.403 254.501,248.693 254.433,249.029C254.345,249.455 254.042,249.983 253.974,250.153C253.891,250.36 253.859,250.568 253.847,250.776C253.814,251.377 253.933,251.982 253.811,252.596C253.779,252.758 253.732,252.904 253.677,253.041C253.564,253.321 253.412,253.56 253.31,253.865C252.949,254.949 252.916,256.102 252.687,257.21C252.625,257.505 252.551,257.798 252.455,258.086C252.398,258.256 252.372,258.44 252.36,258.63C252.309,259.499 252.543,260.495 252.342,261.3C252.134,262.136 252.023,263.063 252.023,263.968C252.023,264.909 252.141,265.828 252.397,266.595C252.489,266.871 252.566,267.191 252.632,267.53C252.769,268.24 252.86,269.034 252.963,269.649C252.971,269.699 253.022,269.937 253.054,270.086L253.079,270.076C253.468,269.928 253.97,269.616 254.331,269.526C254.946,269.372 255.606,269.282 256.286,269.226C257.773,269.105 259.356,269.152 260.75,269.024C261.348,268.97 262.213,268.999 262.971,268.909C263.447,268.852 263.881,268.764 264.122,268.522C264.289,268.356 264.296,268.1 264.319,267.835C264.351,267.472 264.373,267.088 264.503,266.749C264.58,266.548 264.692,266.361 264.856,266.197C264.997,266.056 265.141,265.921 265.288,265.79C265.526,265.576 265.77,265.374 266.01,265.174C266.737,264.285 267.341,263.317 267.825,262.292C267.776,261.981 267.709,261.636 267.691,261.356C267.675,261.094 267.707,260.874 267.779,260.73C267.837,260.613 267.822,260.468 267.812,260.319C267.797,260.091 267.768,259.855 267.785,259.643C267.798,259.483 267.834,259.334 267.901,259.2C268.163,258.676 268.299,257.925 268.377,257.126C268.493,255.927 268.47,254.623 268.469,253.746C268.469,253.539 268.494,253.327 268.534,253.115C268.615,252.684 268.761,252.248 268.843,251.835C268.853,251.785 268.929,251.211 268.992,251.006C269.138,250.528 269.563,250.655 269.687,250.778C269.767,250.859 269.851,251.022 269.887,251.247C269.943,251.596 269.924,252.159 269.924,252.401C269.924,253.151 270.041,253.952 270.088,254.725C270.101,254.931 270.109,255.136 270.109,255.337C270.109,257.466 269.753,259.553 269.025,261.483C268.902,261.81 268.768,262.131 268.624,262.448C268.643,262.612 268.653,262.76 268.643,262.876C268.625,263.079 268.552,263.226 268.46,263.318C268.328,263.45 268.248,263.627 268.165,263.811C268.062,264.04 267.96,264.281 267.817,264.503C267.739,264.624 267.649,264.74 267.542,264.846C267.265,265.123 266.963,265.381 266.653,265.64C266.342,266.025 266.009,266.395 265.654,266.75C265.533,266.871 265.34,267.365 265.19,267.859C265.095,268.168 265.022,268.481 265.011,268.718C265.009,268.761 265.014,268.82 265.017,268.851C265.187,268.995 265.448,269.06 265.72,269.13C266.071,269.221 266.444,269.303 266.756,269.438C266.969,269.53 267.157,269.647 267.306,269.797C267.396,269.887 267.472,269.998 267.537,270.123C267.622,270.286 267.688,270.477 267.77,270.65C267.808,270.731 267.84,270.813 267.903,270.862C267.963,270.822 268.179,270.677 268.304,270.549C268.61,270.234 268.899,269.84 269.066,269.673C269.451,269.288 269.815,268.815 270.169,268.297C270.951,267.152 271.68,265.796 272.44,264.656C272.74,264.206 272.949,263.755 273.113,263.296C273.378,262.558 273.526,261.799 273.728,260.989C274.449,258.102 274.831,254.912 274.796,251.732C274.761,248.559 274.31,245.397 273.364,242.56C273.023,241.539 272.361,240.965 271.554,240.691C270.249,240.248 268.6,240.545 267.277,240.987C267.139,241.033 266.993,241.061 266.842,241.078C266.399,241.127 265.902,241.038 265.504,241.171C265.111,241.302 264.907,241.556 264.714,241.805C264.519,242.056 264.333,242.306 264.075,242.508C263.911,242.636 263.721,242.745 263.485,242.823C262.754,243.067 261.651,243.257 260.622,243.247C259.871,243.24 259.16,243.122 258.641,242.863C258.511,242.799 258.416,242.689 258.367,242.541C258.26,242.593 258.148,242.649 258.042,242.72C257.728,242.93 257.263,243.005 256.762,242.981C256.146,242.951 255.475,242.782 255.047,242.639C254.78,242.55 254.423,242.541 254.05,242.565C253.46,242.602 252.836,242.729 252.429,242.831C252.239,242.879 252.071,242.982 251.911,243.107C251.458,243.464 251.076,243.988 250.658,244.301C249.751,244.982 248.984,245.844 248.109,246.612C247.887,246.808 247.657,246.998 247.417,247.178C247.205,247.337 246.686,247.806 246.228,248.038C245.887,248.21 245.562,248.243 245.334,248.129C245.129,248.026 244.99,247.788 244.989,247.44C244.986,246.883 245.335,245.94 245.393,245.708C245.557,245.051 245.623,244.388 245.644,243.722C245.694,242.103 245.486,240.466 245.689,238.838C245.716,238.622 246.117,237.509 246.233,236.922ZM269.25,254.078C269.253,254.953 269.257,256.12 269.151,257.202C269.062,258.107 268.892,258.954 268.595,259.548C268.537,259.664 268.552,259.809 268.562,259.958C268.57,260.079 268.582,260.203 268.588,260.324C269.081,258.734 269.323,257.05 269.323,255.337C269.323,254.927 269.289,254.503 269.25,254.078Z"/>
            </g>
            <g id="Layer5" transform="matrix(16.4886,0,0,15.9255,-2781.03,-6128.15)">
                <path d="M258.384,242.333C258.032,242.143 256.844,241.336 256.466,241.714C256.369,241.81 256.44,242.641 256.425,242.759C256.271,243.991 256.305,245.244 256.305,246.496C256.305,247.756 256.528,249.298 256.225,250.514C256.142,250.843 256.426,251.398 256.305,251.639C255.979,252.291 255.808,253.175 255.501,253.889C255.154,254.701 254.647,255.464 254.175,256.22C253.729,256.935 253.244,257.754 252.648,258.349C252.345,258.653 251.658,258.924 251.483,259.274C251.209,259.822 251.565,260.875 251.443,261.484C250.969,263.853 251.429,266.467 251.162,268.877C250.625,273.705 251.185,278.625 250.88,283.503C250.783,285.067 250.301,286.566 250.197,288.124C250.082,289.857 250.088,291.613 249.996,293.348C249.893,295.304 250.061,297.365 249.675,299.295C249.341,300.965 248.831,302.78 248.831,304.479C248.831,305.448 248.875,306.432 249.032,307.372C249.092,307.735 249.448,308.322 249.112,308.658C249.031,308.739 249.776,308.932 249.916,308.979C250.448,309.156 251.167,309.404 251.644,309.702C252.57,310.281 253.67,310.483 254.416,311.229C254.503,311.316 255.089,311.642 255.22,311.51C255.258,311.473 255.29,311.008 255.3,310.948C255.407,310.31 255.435,309.66 255.541,309.019C255.964,306.487 255.719,303.816 256.144,301.264C256.241,300.681 256.041,300.068 255.983,299.496C255.888,298.541 256.127,297.293 256.225,296.322C256.278,295.788 256.318,295.231 256.466,294.714C256.607,294.219 256.942,293.817 256.988,293.268C257.089,292.061 256.629,290.914 256.747,289.732C256.863,288.574 256.891,287.346 257.068,286.196C257.25,285.018 257.585,283.945 257.671,282.74C257.764,281.442 257.8,280.084 258.033,278.802C258.26,277.553 258.716,276.365 258.716,275.105C258.716,274.739 259.074,274.144 259.278,273.94C259.3,273.918 259.409,273.508 259.56,273.659C259.969,274.068 259.497,274.438 259.399,275.025C259.164,276.434 259.278,277.97 259.278,279.405C259.278,282.914 259.251,286.517 259.52,290.013C259.704,292.416 259.319,294.842 259.479,297.246C259.604,299.118 259.214,300.994 259.359,302.871C259.476,304.401 259.68,305.859 259.68,307.412C259.68,308.604 260.396,309.607 260.926,310.667C260.948,310.712 261.224,311.631 261.046,311.631C260.817,311.631 260.92,310.983 260.966,310.868C261.164,310.374 261.544,310.165 262.051,310.064C263.213,309.832 264.203,309.114 265.386,308.899C265.75,308.832 266.433,308.679 266.792,308.858C267.126,309.025 266.876,309.304 267.034,309.461C267.132,309.56 267.435,309.582 267.435,309.582C267.435,309.582 267.12,309.324 267.074,309.14C266.987,308.794 266.953,308.334 266.953,307.974C266.953,306.632 266.646,305.29 266.913,303.956C267.02,303.42 266.613,302.886 266.471,302.389C266.242,301.589 266.15,300.765 266.15,299.938C266.15,298.108 266.476,296.211 266.31,294.393C266.204,293.226 265.853,292.099 265.748,290.937C265.524,288.477 265.523,285.866 265.828,283.423C266.2,280.444 265.779,277.494 267.154,274.744C267.246,274.56 267.057,274.166 267.114,273.94C267.201,273.59 267.212,272.472 266.993,272.252C266.928,272.187 266.537,272.185 266.431,272.132C266.037,271.935 265.607,271.787 265.266,271.489C264.48,270.802 264.435,269.97 264.1,269.078C264.009,268.836 263.224,267.938 263.297,267.792C263.484,267.417 264.202,267.802 264.542,267.632C264.754,267.526 265.085,267.088 265.306,266.868C265.392,266.782 265.41,266.474 265.507,266.346C266.019,265.663 266.498,264.925 266.873,264.176C267.065,263.791 267.554,263.617 267.797,263.252C268.071,262.841 268.195,262.376 268.4,261.966C268.775,261.216 268.278,260.082 268.48,259.274C268.704,258.379 269.082,256.862 268.681,256.059C268.529,255.755 268.178,255.687 267.998,255.416C267.638,254.876 267.016,254.133 266.511,253.728C266.253,253.522 266.182,253.131 265.868,253.005C265.405,252.82 264.937,252.644 264.422,252.644C264.308,252.644 263.836,252.243 263.859,252.202C264.069,251.834 264.52,247.997 264.599,247.446C264.712,246.652 265.755,243.902 265.828,243.241C265.884,242.739 265.826,242.205 265.949,241.714C266.009,241.474 266.109,240.991 266.109,240.991C266.109,240.991 265.066,240.788 264.743,241.111C263.937,241.917 263.281,243.726 262.975,244.848C262.563,246.358 262.204,247.926 262.011,249.469C261.966,249.827 262.102,250.905 261.85,251.157C261.536,251.471 260.197,251.49 259.801,251.358C259.52,251.264 259.009,251.301 258.877,251.036C258.784,250.852 258.98,250.424 258.997,250.233C259.037,249.792 259.037,249.351 259.037,248.907C259.037,247.249 259.4,245.094 258.997,243.482C258.875,242.993 257.993,241.678 257.993,242.558L258.384,242.333Z" style="fill:rgb(121,154,255);"/>
                <path d="M261.592,250.917C261.597,250.903 261.612,250.862 261.618,250.834C261.64,250.735 261.649,250.614 261.654,250.487C261.668,250.089 261.635,249.636 261.662,249.426C261.759,248.642 261.899,247.853 262.067,247.068C262.234,246.29 262.428,245.515 262.635,244.755C262.819,244.079 263.127,243.16 263.518,242.349C263.804,241.754 264.137,241.217 264.493,240.861C264.626,240.728 264.832,240.638 265.072,240.6C265.551,240.524 266.177,240.643 266.177,240.643C266.271,240.661 266.353,240.716 266.406,240.796C266.458,240.876 266.476,240.974 266.455,241.068L266.293,241.8C266.26,241.929 266.243,242.062 266.232,242.196C266.204,242.556 266.22,242.926 266.181,243.28C266.161,243.462 266.076,243.791 265.953,244.193C265.628,245.267 265.034,246.915 264.952,247.496C264.894,247.898 264.64,250.042 264.424,251.323C264.371,251.642 264.314,251.912 264.264,252.103L264.496,252.287C264.702,252.293 264.902,252.322 265.098,252.368C265.407,252.441 265.705,252.555 266.001,252.673C266.155,252.734 266.274,252.832 266.375,252.952C266.503,253.105 266.574,253.32 266.735,253.449C267.003,253.663 267.302,253.966 267.581,254.288C267.855,254.603 268.109,254.936 268.297,255.217C268.357,255.308 268.452,255.36 268.539,255.419C268.644,255.491 268.746,255.566 268.833,255.659C268.899,255.728 268.956,255.806 269.002,255.898C269.195,256.284 269.244,256.811 269.202,257.371C269.15,258.071 268.963,258.825 268.829,259.361C268.758,259.647 268.793,259.979 268.831,260.317C268.875,260.71 268.926,261.11 268.895,261.473C268.875,261.707 268.822,261.928 268.722,262.127C268.578,262.415 268.475,262.73 268.331,263.034C268.263,263.177 268.187,263.317 268.097,263.452C268.034,263.547 267.958,263.633 267.875,263.712C267.743,263.839 267.589,263.948 267.446,264.064C267.347,264.145 267.252,264.226 267.196,264.337C267.003,264.725 266.782,265.109 266.543,265.485C266.31,265.852 266.06,266.211 265.802,266.555C265.798,266.565 265.779,266.619 265.77,266.65C265.746,266.735 265.725,266.823 265.7,266.892C265.663,266.994 265.613,267.073 265.562,267.124C265.418,267.268 265.225,267.506 265.051,267.682C264.926,267.808 264.803,267.906 264.704,267.956C264.586,268.015 264.441,268.042 264.281,268.04C264.126,268.038 263.951,268.007 263.788,267.992C264.011,268.328 264.379,268.787 264.44,268.951C264.641,269.485 264.734,269.998 264.952,270.47C265.075,270.734 265.241,270.984 265.505,271.215C265.62,271.316 265.748,271.395 265.88,271.466C266.106,271.587 266.346,271.684 266.574,271.797C266.613,271.801 266.946,271.845 267.054,271.879C267.146,271.909 267.211,271.955 267.251,271.995C267.363,272.107 267.468,272.367 267.507,272.696C267.563,273.161 267.531,273.776 267.468,274.029C267.456,274.075 267.477,274.135 267.488,274.197C267.512,274.326 267.539,274.457 267.544,274.57C267.549,274.7 267.527,274.815 267.481,274.907C266.95,275.969 266.699,277.063 266.563,278.176C266.353,279.905 266.416,281.682 266.193,283.469C266.042,284.677 265.967,285.928 265.958,287.181C265.949,288.433 266.005,289.687 266.116,290.904C266.2,291.825 266.44,292.725 266.587,293.64C266.625,293.878 266.657,294.118 266.679,294.359C266.73,294.923 266.736,295.494 266.719,296.068C266.679,297.358 266.521,298.665 266.521,299.938C266.521,300.336 266.544,300.734 266.594,301.128C266.643,301.518 266.72,301.905 266.829,302.287C266.929,302.635 267.156,303.002 267.251,303.374C267.306,303.591 267.322,303.81 267.279,304.029C267.203,304.405 267.178,304.782 267.177,305.159C267.176,306.095 267.327,307.035 267.327,307.974C267.327,308.143 267.335,308.335 267.353,308.525C267.37,308.705 267.396,308.882 267.434,309.036L267.716,309.334C267.822,309.455 267.84,309.629 267.76,309.768C267.68,309.907 267.52,309.98 267.363,309.949C267.363,309.949 267.166,309.93 267.016,309.876C266.914,309.838 266.828,309.785 266.769,309.726C266.715,309.672 266.678,309.614 266.651,309.553C266.615,309.469 266.6,309.376 266.601,309.279C266.601,309.254 266.602,309.214 266.603,309.184C266.507,309.144 266.381,309.145 266.25,309.151C265.962,309.164 265.656,309.231 265.453,309.267C265.236,309.307 265.026,309.365 264.821,309.434C263.908,309.74 263.071,310.243 262.125,310.432C261.926,310.472 261.751,310.528 261.608,310.627C261.516,310.69 261.44,310.771 261.379,310.876C261.4,310.955 261.42,311.038 261.436,311.121C261.476,311.316 261.491,311.504 261.474,311.615C261.429,311.905 261.241,312.007 261.046,312.007C260.828,312.007 260.658,311.89 260.575,311.651C260.5,311.437 260.543,311.038 260.588,310.833C260.268,310.193 259.882,309.573 259.622,308.922C259.429,308.441 259.303,307.943 259.303,307.412C259.302,306.804 259.27,306.211 259.225,305.622C259.154,304.716 259.052,303.821 258.981,302.9C258.951,302.514 258.943,302.127 258.949,301.74C258.97,300.249 259.199,298.759 259.1,297.271C258.971,295.34 259.191,293.395 259.189,291.459C259.189,290.986 259.175,290.514 259.138,290.042C259.03,288.635 258.969,287.211 258.935,285.782C258.885,283.651 258.894,281.511 258.894,279.405C258.893,278.592 258.857,277.747 258.867,276.911C258.72,277.56 258.535,278.207 258.414,278.872C258.323,279.374 258.263,279.888 258.218,280.405C258.149,281.195 258.114,281.992 258.059,282.768C258.033,283.139 257.984,283.498 257.923,283.851C257.784,284.655 257.581,285.429 257.454,286.255C257.402,286.594 257.363,286.94 257.331,287.289C257.255,288.117 257.216,288.961 257.136,289.771C257.043,290.698 257.321,291.602 257.381,292.532C257.398,292.786 257.4,293.042 257.378,293.3C257.362,293.497 257.316,293.678 257.254,293.851C257.134,294.185 256.94,294.48 256.843,294.822C256.788,295.013 256.75,295.21 256.72,295.409C256.673,295.726 256.646,296.047 256.615,296.361C256.558,296.935 256.451,297.607 256.393,298.257C256.355,298.679 256.338,299.091 256.375,299.457C256.415,299.86 256.526,300.284 256.556,300.703C256.571,300.913 256.567,301.122 256.533,301.329C256.195,303.355 256.285,305.458 256.12,307.506C256.078,308.036 256.019,308.563 255.932,309.084L255.691,311.013C255.683,311.065 255.657,311.405 255.626,311.543C255.596,311.679 255.532,311.759 255.5,311.791C255.397,311.894 255.216,311.967 254.98,311.924C254.68,311.87 254.223,311.597 254.136,311.51C253.935,311.308 253.703,311.154 253.456,311.019C252.816,310.669 252.083,310.445 251.433,310.039C251.256,309.929 251.043,309.827 250.819,309.732C250.47,309.586 250.098,309.459 249.79,309.357C249.668,309.316 249.134,309.168 248.958,309.066C248.779,308.963 248.726,308.817 248.713,308.734C248.693,308.608 248.722,308.485 248.831,308.376C248.855,308.352 248.856,308.319 248.856,308.286C248.857,308.23 248.846,308.171 248.832,308.112C248.775,307.87 248.67,307.625 248.639,307.437C248.558,306.952 248.506,306.455 248.474,305.954C248.443,305.464 248.432,304.969 248.432,304.479C248.432,303.772 248.516,303.047 248.64,302.319C248.82,301.27 249.082,300.217 249.282,299.216C249.395,298.652 249.458,298.076 249.495,297.495C249.584,296.108 249.523,294.692 249.595,293.327C249.658,292.115 249.674,290.893 249.717,289.676C249.736,289.149 249.76,288.622 249.795,288.098C249.878,286.84 250.204,285.62 250.381,284.376C250.424,284.078 250.458,283.779 250.476,283.478C250.688,280.075 250.478,276.653 250.514,273.255C250.53,271.775 250.593,270.299 250.755,268.832C250.94,267.164 250.772,265.397 250.813,263.683C250.832,262.909 250.892,262.144 251.04,261.403C251.083,261.192 251.05,260.919 251.021,260.637C250.988,260.309 250.952,259.971 250.971,259.678C250.986,259.457 251.032,259.257 251.115,259.09C251.177,258.967 251.274,258.848 251.401,258.736C251.675,258.495 252.129,258.287 252.357,258.058C252.582,257.834 252.789,257.575 252.984,257.302C253.288,256.878 253.563,256.421 253.826,256.001C254.105,255.554 254.396,255.104 254.659,254.643C254.83,254.343 254.988,254.039 255.122,253.727C255.361,253.168 255.516,252.505 255.729,251.934C255.788,251.776 255.851,251.625 255.92,251.484C255.917,251.452 255.906,251.343 255.891,251.274C255.857,251.11 255.815,250.936 255.801,250.778C255.79,250.646 255.796,250.522 255.823,250.414C255.91,250.066 255.949,249.689 255.963,249.301C255.998,248.365 255.89,247.363 255.89,246.496C255.89,245.742 255.878,244.988 255.901,244.238C255.917,243.725 255.95,243.215 256.013,242.707C256.025,242.607 255.979,241.997 256.021,241.744C256.048,241.58 256.118,241.473 256.171,241.42C256.39,241.201 256.76,241.143 257.187,241.27C257.703,241.423 258.337,241.834 258.582,241.966L258.549,241.966C258.654,242.034 258.722,242.16 258.731,242.301C258.994,242.623 259.267,243.124 259.335,243.397C259.466,243.919 259.521,244.495 259.534,245.094C259.56,246.373 259.387,247.759 259.387,248.907C259.387,249.177 259.387,249.446 259.379,249.714C259.373,249.898 259.363,250.081 259.346,250.264C259.338,250.351 259.303,250.479 259.265,250.616C259.244,250.69 259.221,250.81 259.21,250.873C259.258,250.889 259.35,250.918 259.414,250.929C259.591,250.958 259.775,250.98 259.912,251.025C260.083,251.082 260.459,251.098 260.826,251.075C261.025,251.062 261.221,251.037 261.384,250.995C261.471,250.972 261.548,250.954 261.592,250.917ZM265.679,241.292C265.595,241.285 265.504,241.281 265.413,241.282C265.317,241.284 265.22,241.291 265.132,241.309C265.077,241.321 265.025,241.33 264.994,241.362C264.685,241.67 264.403,242.14 264.155,242.656C263.784,243.426 263.491,244.299 263.316,244.941C263.112,245.688 262.921,246.45 262.756,247.216C262.592,247.981 262.455,248.75 262.36,249.513C262.326,249.785 262.393,250.469 262.321,250.9C262.283,251.128 262.2,251.304 262.098,251.405C261.93,251.574 261.541,251.707 261.096,251.756C260.559,251.815 259.947,251.776 259.69,251.691C259.5,251.627 259.207,251.622 258.993,251.546C258.796,251.476 258.646,251.359 258.563,251.193C258.518,251.103 258.495,250.987 258.503,250.854C258.516,250.642 258.635,250.351 258.648,250.201C258.664,250.031 258.673,249.861 258.679,249.691C258.687,249.431 258.687,249.169 258.687,248.907C258.688,247.763 258.861,246.383 258.836,245.108C258.825,244.564 258.777,244.041 258.659,243.567C258.612,243.379 258.432,243.047 258.25,242.811L258.166,242.86C258.058,242.921 257.926,242.921 257.818,242.859C257.711,242.797 257.645,242.682 257.645,242.558C257.645,242.497 257.649,242.442 257.656,242.392C257.538,242.326 257.412,242.259 257.285,242.2C257.144,242.134 257.003,242.077 256.874,242.048C256.864,242.045 256.854,242.044 256.843,242.042C256.845,242.29 256.847,242.741 256.838,242.81C256.778,243.292 256.747,243.777 256.732,244.264C256.708,245.005 256.72,245.75 256.72,246.496C256.72,247.373 256.826,248.386 256.791,249.332C256.774,249.78 256.726,250.213 256.626,250.614C256.607,250.691 256.634,250.786 256.654,250.885C256.689,251.057 256.732,251.233 256.744,251.381C256.759,251.556 256.733,251.707 256.675,251.824C256.612,251.949 256.556,252.083 256.504,252.223C256.286,252.807 256.125,253.482 255.881,254.052C255.735,254.392 255.562,254.725 255.376,255.051C255.108,255.522 254.81,255.982 254.525,256.438C254.254,256.872 253.968,257.344 253.654,257.782C253.431,258.092 253.195,258.385 252.939,258.64C252.724,258.855 252.33,259.06 252.036,259.28C251.957,259.338 251.884,259.391 251.851,259.457C251.789,259.582 251.784,259.744 251.788,259.919C251.8,260.475 251.933,261.128 251.845,261.564C251.706,262.259 251.651,262.976 251.633,263.703C251.59,265.441 251.756,267.231 251.568,268.922C251.407,270.363 251.346,271.811 251.329,273.264C251.291,276.676 251.499,280.112 251.284,283.529C251.264,283.852 251.228,284.172 251.183,284.49C251.007,285.715 250.683,286.914 250.6,288.151C250.565,288.668 250.542,289.186 250.523,289.705C250.479,290.927 250.462,292.153 250.398,293.369C250.326,294.737 250.385,296.156 250.296,297.547C250.256,298.164 250.188,298.775 250.068,299.374C249.869,300.367 249.607,301.412 249.429,302.454C249.312,303.136 249.231,303.816 249.23,304.479C249.23,304.953 249.241,305.43 249.271,305.904C249.3,306.378 249.349,306.847 249.425,307.306C249.47,307.575 249.655,307.962 249.653,308.292C249.652,308.352 249.648,308.411 249.638,308.468C249.803,308.523 249.989,308.584 250.042,308.601C250.367,308.71 250.76,308.844 251.128,309C251.393,309.111 251.645,309.234 251.854,309.365C252.491,309.763 253.21,309.979 253.837,310.322C254.15,310.493 254.441,310.693 254.697,310.949C254.716,310.968 254.8,311.008 254.889,311.047C254.898,310.967 254.907,310.9 254.909,310.883L255.151,308.954C255.487,306.94 255.398,304.837 255.566,302.777C255.609,302.248 255.669,301.721 255.756,301.199C255.789,301.002 255.779,300.801 255.755,300.6C255.713,300.24 255.627,299.88 255.592,299.535C255.561,299.219 255.563,298.874 255.585,298.516C255.631,297.764 255.766,296.957 255.834,296.283C255.867,295.956 255.895,295.622 255.944,295.293C255.979,295.06 256.025,294.83 256.089,294.607C256.191,294.248 256.391,293.936 256.517,293.586C256.556,293.476 256.587,293.36 256.598,293.235C256.677,292.29 256.399,291.382 256.346,290.464C256.331,290.208 256.332,289.951 256.358,289.693C256.439,288.885 256.478,288.043 256.554,287.218C256.588,286.853 256.628,286.491 256.683,286.136C256.811,285.306 257.015,284.527 257.156,283.718C257.212,283.39 257.259,283.057 257.283,282.712C257.339,281.933 257.375,281.131 257.444,280.338C257.492,279.796 257.555,279.258 257.651,278.733C257.81,277.861 258.08,277.02 258.229,276.163C258.289,275.814 258.329,275.463 258.329,275.105C258.329,274.915 258.395,274.676 258.5,274.442C258.629,274.158 258.812,273.882 258.953,273.722C258.988,273.644 259.069,273.474 259.136,273.402C259.209,273.324 259.294,273.276 259.377,273.254C259.515,273.218 259.675,273.228 259.833,273.386C260.065,273.618 260.125,273.847 260.108,274.081C260.096,274.244 260.034,274.415 259.954,274.599C259.89,274.744 259.811,274.903 259.78,275.089C259.688,275.637 259.652,276.206 259.64,276.78C259.623,277.659 259.664,278.55 259.663,279.405C259.663,281.505 259.652,283.639 259.701,285.764C259.734,287.179 259.794,288.59 259.901,289.984C259.938,290.475 259.953,290.967 259.953,291.459C259.953,293.378 259.732,295.306 259.859,297.22C259.959,298.729 259.729,300.24 259.707,301.751C259.702,302.115 259.709,302.479 259.736,302.842C259.819,303.918 259.944,304.959 260.011,306.023C260.04,306.48 260.058,306.942 260.058,307.412C260.058,307.845 260.166,308.249 260.322,308.642C260.521,309.14 260.797,309.618 261.057,310.103C261.097,310.069 261.138,310.037 261.182,310.007C261.404,309.855 261.67,309.757 261.977,309.695C262.893,309.512 263.699,309.019 264.583,308.723C264.822,308.642 265.066,308.576 265.319,308.53C265.587,308.481 266.016,308.392 266.384,308.4C266.457,308.402 266.527,308.407 266.594,308.417C266.584,308.263 266.579,308.112 266.579,307.974C266.58,307.034 266.429,306.095 266.431,305.158C266.432,304.732 266.463,304.307 266.547,303.883C266.578,303.73 266.541,303.579 266.489,303.429C266.379,303.108 266.199,302.793 266.113,302.491C265.994,302.073 265.91,301.649 265.856,301.222C265.802,300.796 265.778,300.368 265.778,299.938C265.778,298.657 265.937,297.343 265.978,296.046C265.994,295.501 265.99,294.96 265.942,294.426C265.858,293.502 265.618,292.603 265.472,291.69C265.434,291.451 265.402,291.212 265.38,290.971C265.267,289.73 265.211,288.451 265.221,287.175C265.231,285.893 265.309,284.614 265.464,283.378C265.726,281.281 265.598,279.199 265.974,277.19C266.138,276.314 266.395,275.452 266.814,274.608C266.812,274.583 266.804,274.506 266.795,274.458C266.775,274.349 266.751,274.235 266.742,274.133C266.734,274.03 266.739,273.934 266.76,273.852C266.797,273.702 266.815,273.394 266.805,273.094C266.8,272.917 266.756,272.675 266.733,272.559L266.529,272.529C266.416,272.512 266.322,272.485 266.268,272.458C266.028,272.338 265.775,272.235 265.536,272.108C265.356,272.011 265.183,271.9 265.026,271.763C264.676,271.457 264.455,271.126 264.292,270.775C264.067,270.287 263.967,269.758 263.76,269.206C263.688,269.013 263.157,268.396 263.008,268.1C262.901,267.887 262.93,267.713 262.972,267.63C263.067,267.441 263.218,267.334 263.412,267.286C263.593,267.241 263.833,267.265 264.068,267.295C264.185,267.31 264.3,267.347 264.38,267.307C264.427,267.284 264.478,267.231 264.536,267.172C264.699,267.008 264.878,266.79 265.018,266.644L265.08,266.43C265.114,266.311 265.161,266.203 265.217,266.128C265.466,265.796 265.708,265.451 265.933,265.097C266.158,264.742 266.367,264.38 266.55,264.014C266.605,263.904 266.676,263.806 266.759,263.716C266.888,263.578 267.047,263.459 267.202,263.337C267.312,263.251 267.421,263.165 267.497,263.051C267.567,262.946 267.626,262.836 267.679,262.725C267.825,262.416 267.931,262.097 268.077,261.805C268.17,261.62 268.188,261.404 268.183,261.177C268.171,260.513 267.985,259.769 268.131,259.186C268.257,258.682 268.436,257.975 268.485,257.317C268.517,256.901 268.503,256.506 268.36,256.22C268.316,256.132 268.237,256.084 268.163,256.032C268.068,255.966 267.971,255.902 267.885,255.826C267.816,255.764 267.753,255.695 267.699,255.615C267.527,255.356 267.292,255.049 267.039,254.758C266.791,254.471 266.526,254.199 266.287,254.008C266.09,253.85 265.983,253.6 265.825,253.411C265.8,253.381 265.774,253.353 265.735,253.338C265.473,253.233 265.209,253.129 264.934,253.065C264.768,253.026 264.598,253.001 264.422,253.001C264.359,253.001 264.244,252.976 264.116,252.898C263.956,252.8 263.728,252.608 263.631,252.502C263.445,252.295 263.517,252.08 263.549,252.024C263.617,251.905 263.696,251.379 263.795,250.734C263.991,249.46 264.196,247.749 264.246,247.395C264.275,247.194 264.359,246.874 264.473,246.494C264.808,245.375 265.42,243.696 265.475,243.202C265.514,242.855 265.497,242.493 265.525,242.14C265.539,241.967 265.563,241.795 265.605,241.628L265.679,241.292ZM264.201,252.308C264.19,252.338 264.179,252.362 264.17,252.379C264.182,252.358 264.193,252.334 264.201,252.308Z"/>
                <path d="M256.837,232.496C256.744,232.336 256.864,231.878 256.875,231.699C256.914,231.072 257.002,230.439 257.125,229.824C257.143,229.732 256.948,229.66 256.906,229.59C256.766,229.356 256.69,229.019 256.594,228.762C256.386,228.207 256.746,227.3 257.031,226.824C257.464,226.103 258.239,225.824 258.922,225.434C260.018,224.808 261.336,224.427 262.609,224.512C262.819,224.526 263.027,224.491 263.234,224.543C263.566,224.626 263.841,224.859 264.172,224.949C264.585,225.062 264.982,225.045 265.391,225.231C265.997,225.506 266.391,226.03 266.937,226.371C267.218,226.547 267.719,226.699 268.047,226.746C268.187,226.766 268.381,226.76 268.5,226.731C268.522,226.725 268.618,226.661 268.641,226.684C268.729,226.772 268.474,227.265 268.438,227.356C268.319,227.653 268.233,228.091 268,228.324C267.75,228.574 267.416,228.943 267.328,229.293C267.275,229.505 267.348,229.75 267.313,229.965C267.25,230.342 267.219,230.752 267.219,231.137C267.219,231.384 267.263,231.696 267.203,231.934C267.157,232.117 267.133,232.379 267,232.512C266.969,232.543 266.933,232.672 266.875,232.653C266.366,232.483 266.332,231.787 266.375,231.356C266.424,230.868 266.271,230.39 266.219,229.918C266.21,229.838 266.246,229.446 266.187,229.387C266.091,229.29 265.956,229.187 265.875,229.106C265.778,229.009 265.328,229.298 265.234,229.324C264.535,229.524 263.814,229.65 263.094,229.715C262.429,229.776 261.733,229.912 261.062,229.856C260.44,229.804 259.748,229.377 259.125,229.481C258.399,229.602 257.801,230.413 257.469,231.012C257.31,231.297 257.223,231.572 257.125,231.887C257.094,231.985 256.969,232.146 256.969,232.246L256.837,232.496Z" style="fill:rgb(38,9,0);"/>
                <path d="M256.683,229.936C256.629,229.888 256.573,229.834 256.553,229.802C256.499,229.711 256.451,229.608 256.409,229.499C256.334,229.303 256.277,229.085 256.21,228.906C256.101,228.614 256.101,228.247 256.18,227.873C256.279,227.406 256.495,226.927 256.683,226.615C256.885,226.279 257.149,226.023 257.446,225.811C257.841,225.528 258.298,225.326 258.722,225.084C259.301,224.755 259.939,224.49 260.6,224.32C261.267,224.147 261.957,224.071 262.636,224.117C262.782,224.127 262.927,224.113 263.072,224.122C263.158,224.127 263.244,224.139 263.33,224.16C263.416,224.182 263.499,224.211 263.581,224.245C263.815,224.344 264.027,224.502 264.275,224.57C264.563,224.649 264.843,224.663 265.124,224.731C265.266,224.764 265.409,224.809 265.552,224.875C265.759,224.969 265.944,225.087 266.118,225.219C266.469,225.483 266.768,225.808 267.143,226.043C267.261,226.117 267.426,226.184 267.596,226.24C267.774,226.299 267.956,226.344 268.101,226.365C268.15,226.372 268.207,226.374 268.263,226.373C268.311,226.371 268.359,226.368 268.396,226.36C268.463,226.335 268.583,226.294 268.633,226.295C268.753,226.297 268.845,226.344 268.912,226.412C268.985,226.485 269.048,226.6 269.043,226.761C269.038,226.96 268.831,227.405 268.793,227.498C268.708,227.711 268.637,227.993 268.523,228.227C268.454,228.367 268.37,228.494 268.27,228.594C268.156,228.707 268.023,228.847 267.908,228.998C267.814,229.123 267.729,229.254 267.696,229.385C267.661,229.526 267.702,229.684 267.701,229.833C267.701,229.899 267.696,229.964 267.685,230.027C267.655,230.206 267.633,230.392 267.618,230.579C267.603,230.766 267.595,230.955 267.595,231.137C267.595,231.311 267.615,231.518 267.608,231.71C267.604,231.821 267.591,231.927 267.567,232.025C267.531,232.165 267.504,232.346 267.444,232.494C267.406,232.59 267.356,232.675 267.293,232.745C267.268,232.787 267.213,232.875 267.177,232.909C267.116,232.967 267.049,233.001 266.98,233.017C266.909,233.034 266.835,233.033 266.757,233.007C266.442,232.901 266.238,232.672 266.12,232.383C265.984,232.049 265.975,231.628 266.006,231.319C266.023,231.153 266.011,230.989 265.99,230.826C265.952,230.534 265.884,230.245 265.853,229.959C265.848,229.912 265.849,229.686 265.849,229.576L265.753,229.489C265.626,229.549 265.384,229.662 265.335,229.676C264.974,229.778 264.607,229.862 264.238,229.928C263.869,229.993 263.498,230.042 263.126,230.075C262.727,230.111 262.316,230.174 261.906,230.206C261.613,230.229 261.321,230.237 261.033,230.213C260.589,230.175 260.109,229.956 259.644,229.858C259.487,229.824 259.333,229.806 259.183,229.831C258.951,229.869 258.739,230.003 258.548,230.173C258.222,230.462 257.957,230.857 257.775,231.182C257.719,231.283 257.673,231.382 257.632,231.483C257.567,231.645 257.515,231.812 257.458,231.991C257.435,232.064 257.333,232.253 257.315,232.287C257.31,232.33 257.297,232.371 257.277,232.409L257.145,232.658L257.205,232.658C257.135,232.77 256.997,232.841 256.845,232.844C256.694,232.846 256.553,232.78 256.477,232.671L256.477,232.706C256.427,232.62 256.391,232.5 256.386,232.356C256.378,232.137 256.451,231.819 256.46,231.674C256.481,231.35 256.514,231.026 256.558,230.703C256.594,230.446 256.635,230.19 256.683,229.936ZM268.112,227.14C268.07,227.137 268.03,227.133 267.992,227.128C267.81,227.102 267.579,227.048 267.355,226.975C267.121,226.898 266.895,226.801 266.732,226.7C266.338,226.454 266.019,226.118 265.65,225.842C265.52,225.745 265.383,225.656 265.229,225.586C265.133,225.543 265.039,225.514 264.944,225.492C264.654,225.424 264.366,225.409 264.068,225.328C263.984,225.306 263.903,225.276 263.823,225.241C263.592,225.142 263.383,224.987 263.139,224.926C263.085,224.913 263.031,224.91 262.977,224.909C262.846,224.906 262.715,224.915 262.583,224.907C261.989,224.868 261.384,224.939 260.801,225.092C260.209,225.247 259.639,225.486 259.121,225.783C258.722,226.012 258.29,226.2 257.918,226.468C257.71,226.618 257.521,226.796 257.38,227.034C257.253,227.245 257.11,227.553 257.022,227.869C256.947,228.136 256.899,228.41 256.977,228.618C257.036,228.773 257.087,228.956 257.149,229.129C257.174,229.201 257.201,229.271 257.234,229.333C257.28,229.368 257.37,229.437 257.407,229.479C257.46,229.539 257.495,229.603 257.515,229.667C257.54,229.744 257.545,229.824 257.529,229.905C257.497,230.065 257.468,230.226 257.442,230.388C257.621,230.126 257.836,229.861 258.078,229.645C258.373,229.382 258.709,229.191 259.067,229.131C259.301,229.091 259.544,229.11 259.79,229.161C260.227,229.253 260.675,229.465 261.092,229.499C261.342,229.519 261.595,229.51 261.848,229.489C262.256,229.456 262.664,229.392 263.061,229.355C263.411,229.323 263.761,229.275 264.109,229.212C264.449,229.15 264.787,229.072 265.12,228.977C265.138,228.968 265.31,228.877 265.421,228.827C265.563,228.762 265.705,228.722 265.802,228.72C265.949,228.716 266.058,228.771 266.134,228.846L266.447,229.127C266.491,229.171 266.542,229.246 266.567,229.356C266.597,229.49 266.576,229.805 266.585,229.878C266.622,230.21 266.709,230.547 266.741,230.887C266.757,231.055 266.76,231.223 266.744,231.393C266.726,231.569 266.722,231.8 266.777,232.005C266.782,232.023 266.787,232.042 266.793,232.06C266.81,231.984 266.823,231.908 266.84,231.843C266.857,231.774 266.859,231.696 266.859,231.617C266.859,231.453 266.843,231.283 266.843,231.137C266.842,230.935 266.85,230.727 266.866,230.52C266.882,230.311 266.907,230.102 266.94,229.903C266.966,229.745 266.923,229.571 266.931,229.407C266.934,229.337 266.944,229.268 266.96,229.201C267.005,229.019 267.1,228.831 267.221,228.652C267.373,228.428 267.568,228.218 267.73,228.055C267.792,227.993 267.833,227.906 267.871,227.815C267.955,227.613 268.012,227.388 268.082,227.213L268.112,227.14Z"/>
                <path d="M254.727,311.862C254.552,312.38 254.725,312.872 254.847,313.401C254.918,313.707 255.068,314.084 254.751,314.243C253.825,314.706 252.604,314.903 251.577,315.084C249.322,315.482 247.13,315.71 244.844,315.349C244.207,315.248 243.598,315.158 242.969,315.012C242.725,314.956 242.219,314.96 242.031,314.772C241.939,314.68 241.833,314.373 241.766,314.219C241.098,312.658 243.463,312.022 244.604,311.814C244.871,311.766 245.13,311.695 245.397,311.646C245.759,311.58 246.182,311.557 246.551,311.598C247.063,311.655 247.602,311.952 248.114,312.055C248.151,312.062 248.457,312.169 248.475,312.151C248.533,312.093 247.92,311.876 247.85,311.862C247.233,311.739 246.614,311.749 245.998,311.646C245.862,311.623 245.401,311.539 245.469,311.333C245.551,311.088 246.169,310.741 246.383,310.612C246.641,310.457 246.827,310.195 247.056,310.011C247.292,309.822 247.589,309.712 247.826,309.554C248.094,309.375 248.319,309.089 248.595,308.905C248.84,308.742 249.122,308.785 249.413,308.785C249.549,308.785 249.809,308.886 249.701,308.833L254.727,311.862Z" style="fill:rgb(141,255,221);"/>
                <path d="M245.096,311.322C245.101,311.288 245.109,311.253 245.121,311.217C245.164,311.088 245.285,310.929 245.461,310.784C245.699,310.586 246.042,310.39 246.195,310.299C246.252,310.264 246.305,310.222 246.355,310.177C246.518,310.031 246.663,309.859 246.829,309.727C246.913,309.66 247.002,309.601 247.095,309.547C247.273,309.443 247.464,309.36 247.625,309.253C247.829,309.117 248.006,308.914 248.203,308.749C248.265,308.698 248.329,308.649 248.395,308.605C248.542,308.507 248.697,308.457 248.86,308.435C249.036,308.411 249.223,308.425 249.413,308.426C249.497,308.426 249.618,308.452 249.708,308.474C249.76,308.475 249.812,308.487 249.862,308.512C249.931,308.547 249.988,308.581 250.034,308.615L254.907,311.564L254.942,311.564C255.11,311.648 255.185,311.818 255.122,311.973L255.122,311.995C255.07,312.148 255.061,312.298 255.073,312.447C255.095,312.73 255.183,313.013 255.25,313.308C255.314,313.586 255.396,313.913 255.324,314.155C255.269,314.34 255.156,314.502 254.935,314.612C254.536,314.81 254.086,314.964 253.619,315.087C252.962,315.261 252.27,315.376 251.648,315.485C250.503,315.685 249.374,315.841 248.242,315.901C247.099,315.962 245.953,315.925 244.783,315.738C244.397,315.677 244.022,315.619 243.646,315.55C243.392,315.504 243.138,315.453 242.881,315.393C242.712,315.354 242.419,315.341 242.189,315.278C242.009,315.228 241.857,315.149 241.756,315.047C241.713,315.004 241.665,314.939 241.62,314.857C241.543,314.715 241.463,314.497 241.41,314.372C241.047,313.521 241.36,312.878 241.974,312.404C242.675,311.861 243.825,311.568 244.536,311.44L245.096,311.322ZM249.577,309.176C249.524,309.16 249.46,309.143 249.413,309.144C249.278,309.144 249.144,309.133 249.016,309.142C248.939,309.147 248.864,309.159 248.795,309.205C248.587,309.344 248.411,309.547 248.219,309.709C248.157,309.762 248.093,309.811 248.027,309.855C247.855,309.97 247.653,310.062 247.463,310.174C247.401,310.211 247.34,310.25 247.284,310.295C247.129,310.42 246.995,310.582 246.843,310.72C246.758,310.796 246.669,310.867 246.571,310.925C246.477,310.982 246.3,311.084 246.129,311.2C246.288,311.199 246.444,311.206 246.593,311.223C246.717,311.237 246.842,311.263 246.968,311.296C247.087,311.328 247.208,311.368 247.328,311.411L247.336,311.412C247.532,311.432 247.727,311.459 247.923,311.497C247.991,311.511 248.483,311.683 248.643,311.787C248.974,312.004 248.856,312.297 248.739,312.415C248.703,312.451 248.575,312.556 248.367,312.516C248.28,312.499 248.071,312.427 248.041,312.421C247.745,312.363 247.44,312.243 247.136,312.138C246.736,312.098 246.336,312.077 245.938,312.01C245.899,312.003 245.839,311.992 245.77,311.976C245.665,311.986 245.563,312.001 245.465,312.019L244.672,312.189C244.056,312.302 243.053,312.54 242.446,313.012C242.116,313.269 241.926,313.609 242.123,314.066C242.169,314.173 242.295,314.457 242.315,314.503C242.328,314.51 242.346,314.511 242.363,314.517C242.419,314.535 242.482,314.547 242.546,314.557C242.734,314.587 242.929,314.602 243.057,314.631C243.302,314.687 243.544,314.735 243.785,314.778C244.156,314.844 244.525,314.9 244.906,314.959C246.02,315.133 247.111,315.163 248.198,315.102C249.298,315.039 250.394,314.882 251.506,314.684C252.107,314.577 252.774,314.465 253.408,314.295C253.805,314.189 254.188,314.06 254.53,313.892C254.527,313.865 254.523,313.825 254.518,313.797C254.498,313.696 254.466,313.591 254.444,313.494C254.366,313.158 254.271,312.836 254.245,312.514C254.23,312.34 254.235,312.166 254.266,311.99L249.577,309.176ZM249.515,309.139L249.518,309.141L249.515,309.139ZM249.496,309.127L249.5,309.129L249.491,309.123L249.496,309.127ZM249.477,309.112L249.48,309.115L249.477,309.112Z"/>
                <path d="M260.63,311.131C260.612,311.036 260.546,310.755 260.546,310.852C260.546,311.428 260.426,311.985 260.426,312.56C260.426,312.645 260.369,313 260.401,313.065C260.665,313.591 261.599,314.088 262.109,314.315C263.068,314.741 264.03,314.782 265.066,314.868C265.847,314.933 266.61,315.229 267.399,315.301C268.559,315.406 269.751,315.209 270.861,314.892C271.438,314.727 272.113,314.795 272.64,314.531C272.764,314.47 272.949,314.512 273.025,314.435C273.093,314.367 273.001,314.243 273.001,314.147C273.001,313.823 272.948,313.497 272.833,313.209C272.707,312.894 272.688,312.558 272.472,312.271C271.944,311.567 270.762,311.683 269.996,311.574C269.335,311.479 268.958,311.799 268.457,312.175C268.42,312.202 267.859,312.731 267.855,312.728C267.751,312.623 268.236,312.241 268.288,312.199C268.834,311.762 269.53,311.598 270.236,311.598C270.32,311.598 271.38,311.636 271.15,311.405C270.97,311.226 270.493,311.041 270.26,310.925C269.928,310.759 269.648,310.416 269.298,310.299C268.832,310.144 267.904,310.131 267.591,309.818C267.468,309.695 267.187,309.539 267.11,309.386C267.018,309.201 267.032,308.89 266.87,308.809C266.696,308.722 266.179,308.798 266.004,308.833C265.615,308.911 265.173,308.807 264.778,308.857C264.231,308.925 263.702,309.094 263.167,309.217C262.129,309.457 261.356,309.97 260.618,310.708C260.386,310.94 260.041,311.085 260.041,311.478L260.63,311.131Z" style="fill:rgb(141,255,221);"/>
                <path d="M260.379,310.451C260.767,310.063 261.165,309.735 261.601,309.471C262.046,309.202 262.531,309 263.087,308.871C263.463,308.783 263.836,308.674 264.215,308.592C264.386,308.554 264.559,308.523 264.733,308.501C265.023,308.464 265.337,308.502 265.638,308.503C265.739,308.503 265.838,308.498 265.933,308.479C266.065,308.452 266.37,308.406 266.614,308.407C266.788,308.408 266.939,308.438 267.032,308.485C267.133,308.535 267.214,308.615 267.274,308.72C267.319,308.8 267.352,308.901 267.377,309.008C267.395,309.082 267.405,309.163 267.435,309.223L267.849,309.561C267.916,309.628 268.035,309.661 268.165,309.695C268.574,309.804 269.098,309.846 269.414,309.951C269.553,309.997 269.684,310.069 269.811,310.155C270.018,310.296 270.209,310.487 270.425,310.594C270.587,310.675 270.862,310.787 271.08,310.908C271.217,310.984 271.334,311.066 271.412,311.143C271.484,311.215 271.52,311.286 271.537,311.35C271.683,311.378 271.825,311.413 271.959,311.461C272.287,311.578 272.572,311.762 272.781,312.039C272.865,312.151 272.928,312.269 272.977,312.389C273.067,312.609 273.103,312.842 273.193,313.065C273.262,313.235 273.312,313.417 273.344,313.603C273.374,313.773 273.389,313.947 273.39,314.121C273.402,314.168 273.445,314.342 273.438,314.419C273.427,314.529 273.385,314.627 273.301,314.711C273.238,314.774 273.157,314.821 273.06,314.848C272.992,314.867 272.829,314.885 272.801,314.888C272.612,314.981 272.407,315.04 272.194,315.081C271.793,315.158 271.358,315.159 270.969,315.271C270.396,315.436 269.801,315.569 269.199,315.648C268.588,315.729 267.971,315.753 267.362,315.699C267.193,315.684 267.024,315.659 266.856,315.628C266.245,315.517 265.644,315.32 265.033,315.27C264.395,315.218 263.785,315.182 263.186,315.068C262.768,314.988 262.355,314.871 261.943,314.688C261.622,314.546 261.143,314.303 260.746,314.013C260.429,313.781 260.166,313.514 260.033,313.249C260.011,313.206 259.986,313.134 259.981,313.038C259.973,312.913 260.012,312.635 260.012,312.56C260.012,312.436 260.017,312.312 260.025,312.19C260.033,312.068 260.045,311.947 260.057,311.826C259.992,311.829 259.926,311.814 259.867,311.781C259.759,311.718 259.692,311.603 259.692,311.478C259.691,311.294 259.739,311.145 259.814,311.015C259.903,310.862 260.044,310.746 260.184,310.627C260.206,310.59 260.228,310.567 260.24,310.554C260.283,310.506 260.33,310.472 260.379,310.451ZM266.659,309.138C266.585,309.136 266.466,309.134 266.386,309.142C266.259,309.154 266.14,309.173 266.075,309.186C265.977,309.206 265.877,309.216 265.776,309.22C265.462,309.234 265.128,309.175 264.822,309.213C264.616,309.238 264.412,309.279 264.21,309.326C263.888,309.401 263.568,309.49 263.247,309.564C262.767,309.674 262.349,309.846 261.965,310.076C261.618,310.285 261.298,310.54 260.987,310.838C261.009,310.917 261.029,311.003 261.039,311.052L260.972,311.052C260.987,311.145 260.975,311.238 260.941,311.319C260.906,311.733 260.839,312.142 260.839,312.56C260.839,312.613 260.818,312.846 260.808,312.946C260.901,313.089 261.059,313.223 261.232,313.35C261.577,313.604 261.995,313.817 262.275,313.941C262.628,314.099 262.982,314.2 263.34,314.269C263.911,314.38 264.492,314.414 265.1,314.466C265.27,314.48 265.439,314.505 265.608,314.535C266.216,314.646 266.817,314.846 267.435,314.903C267.985,314.954 268.544,314.933 269.096,314.862C269.659,314.789 270.216,314.666 270.753,314.513C271.164,314.397 271.624,314.392 272.048,314.312C272.194,314.284 272.336,314.247 272.466,314.182C272.503,314.163 272.556,314.148 272.612,314.135C272.611,314.001 272.601,313.867 272.578,313.736C272.555,313.603 272.521,313.474 272.473,313.353C272.394,313.156 272.355,312.952 272.288,312.755C272.259,312.668 272.223,312.582 272.163,312.503C272.003,312.288 271.755,312.187 271.486,312.123C271.038,312.016 270.533,312.014 270.116,311.973C269.841,311.981 269.57,312.018 269.312,312.093C269.253,312.11 269.193,312.129 269.135,312.151C268.988,312.245 268.843,312.359 268.684,312.478C268.656,312.499 268.312,312.824 268.172,312.952C267.906,313.195 267.594,313 267.589,312.995C267.478,312.884 267.427,312.735 267.486,312.548C267.512,312.466 267.578,312.355 267.675,312.249C267.813,312.096 268.018,311.933 268.053,311.905C268.27,311.732 268.508,311.596 268.759,311.493C268.901,311.403 269.043,311.328 269.195,311.274C269.426,311.192 269.677,311.155 269.975,311.187C269.777,311.064 269.592,310.896 269.396,310.763C269.328,310.715 269.258,310.673 269.182,310.648C268.877,310.546 268.371,310.507 267.976,310.401C267.703,310.327 267.475,310.218 267.333,310.076C267.237,309.98 267.046,309.863 266.929,309.744C266.866,309.679 266.817,309.613 266.785,309.548C266.745,309.468 266.717,309.373 266.694,309.274C266.685,309.236 266.67,309.18 266.659,309.138Z"/>
                <g transform="matrix(1,0,0,1,-0.0229754,-0.46577)">
                    <path d="M261.524,231.921C261.879,231.607 262.295,231.358 262.761,231.174C262.982,231.087 263.236,231.028 263.49,231.019C263.764,231.009 264.036,231.056 264.272,231.175C264.473,231.277 264.691,231.487 264.742,231.644C264.797,231.812 264.767,231.965 264.638,232.093C264.503,232.229 264.282,232.229 264.146,232.093C264.081,232.028 264.047,231.944 264.045,231.858C264.017,231.837 263.983,231.814 263.959,231.802C263.826,231.736 263.672,231.718 263.519,231.725C263.347,231.733 263.175,231.775 263.025,231.836C262.676,231.977 262.361,232.162 262.088,232.392C262.185,232.486 262.277,232.584 262.362,232.686C262.675,233.062 262.897,233.494 262.958,233.998C262.997,234.322 262.959,234.593 262.873,234.842C262.757,235.179 262.545,235.472 262.318,235.809C262.213,235.965 262.025,236.152 261.815,236.251C261.625,236.341 261.42,236.366 261.224,236.3C261.132,236.269 261.044,236.212 260.968,236.133C260.888,236.05 260.821,235.932 260.764,235.856C260.656,235.711 260.536,235.527 260.441,235.339C260.37,235.198 260.312,235.054 260.279,234.92C260.267,234.871 260.261,234.82 260.26,234.768C260.259,234.699 260.29,234.626 260.277,234.56C260.238,234.359 260.252,234.152 260.302,233.948C260.362,233.705 260.472,233.465 260.566,233.25C260.68,232.986 260.818,232.744 260.978,232.523C260.785,232.387 260.586,232.262 260.395,232.144C260.265,232.064 260.112,232.049 259.958,232.051C259.748,232.053 259.535,232.093 259.344,232.126C259.321,232.13 259.231,232.152 259.175,232.166C259.095,232.254 258.979,232.307 258.851,232.302C258.621,232.293 258.442,232.099 258.451,231.869C258.457,231.726 258.528,231.567 258.708,231.46C258.848,231.377 259.127,231.321 259.207,231.308C259.491,231.262 259.814,231.211 260.12,231.234C260.372,231.252 260.614,231.317 260.828,231.452C261.056,231.596 261.294,231.751 261.524,231.921ZM261.548,232.985C261.431,233.155 261.329,233.34 261.244,233.541C261.168,233.721 261.074,233.919 261.027,234.122C261.004,234.219 260.992,234.318 261.012,234.414C261.032,234.511 261.015,234.712 261.012,234.749C261.04,234.85 261.092,234.959 261.151,235.064C261.22,235.187 261.3,235.304 261.372,235.399C261.399,235.435 261.452,235.51 261.485,235.558L261.489,235.556C261.524,235.538 261.555,235.513 261.584,235.487C261.622,235.453 261.653,235.415 261.676,235.381C261.859,235.103 262.041,234.867 262.133,234.591C262.182,234.444 262.201,234.285 262.176,234.096C262.131,233.749 261.968,233.457 261.75,233.2C261.687,233.125 261.619,233.054 261.548,232.985Z"/>
                </g>
                <g transform="matrix(-1.60152,-3.92259e-16,2.2092e-15,-9.01974,675.141,2335.87)">
                    <path d="M259.177,233.143C259.174,233.14 259.172,233.137 259.172,233.134C259.172,233.113 259.27,233.096 259.39,233.096C259.442,233.095 259.581,233.103 259.624,233.135C259.649,233.154 259.658,233.203 259.643,233.223C259.632,233.24 259.595,233.248 259.583,233.251C259.515,233.268 259.428,233.268 259.36,233.267C259.305,233.266 259.21,233.261 259.156,233.238C259.139,233.231 259.119,233.199 259.115,233.181C259.113,233.171 259.12,233.164 259.122,233.162C259.133,233.152 259.162,233.146 259.176,233.143L259.177,233.143ZM259.123,233.184C259.121,233.183 259.121,233.182 259.12,233.181C259.12,233.182 259.121,233.183 259.123,233.184Z"/>
                </g>
                <g transform="matrix(-0.532994,-3.77383e-16,6.21603e-16,-4.19786,404.192,1211.25)">
                    <path d="M263.153,233.082C263.161,233.052 263.18,233.021 263.203,233.009C263.269,232.976 263.444,232.962 263.526,232.955C263.782,232.933 264.049,232.935 264.331,232.961C264.383,232.966 264.56,232.987 264.636,233.042C264.711,233.097 264.668,233.166 264.622,233.201C264.574,233.236 264.441,233.256 264.393,233.263C264.284,233.279 264.154,233.285 264.048,233.289C263.862,233.297 263.681,233.293 263.501,233.283C263.397,233.277 263.15,233.259 263.07,233.205C263.054,233.194 263.044,233.168 263.054,233.123C263.063,233.108 263.098,233.094 263.153,233.082Z"/>
                </g>
            </g>
        </g>
    </g>
</svg>
